<svg width="50" height="50" viewBox="0 0 50 50" fill="none" xmlns="http://www.w3.org/2000/svg">
<g clip-path="url(#clip0_431_75)">
<g filter="url(#filter0_f_431_75)">
<mask id="path-1-inside-1_431_75" fill="white">
<path d="M5.3808 19.4774L4.19039 20.7755V20.7755C3.51694 20.0411 3.51694 18.9136 4.19039 18.1792V18.1792L5.3808 19.4774ZM34 34.1642C34 35.1781 33.2463 36 32.3165 36C31.3867 36 30.633 35.1781 30.633 34.1642H34ZM13.9011 28.5444C13.2057 29.3028 12.01 29.3028 11.3145 28.5444L4.19039 20.7755L6.5712 18.1792L13.9011 26.1725C14.5163 26.8435 14.5163 27.8735 13.9011 28.5444V28.5444ZM4.19039 18.1792L11.3145 10.4103C12.0099 9.65197 13.2057 9.65197 13.9011 10.4103V10.4103C14.5163 11.0813 14.5163 12.1113 13.9011 12.7822L6.5712 20.7755L4.19039 18.1792ZM5.3808 17.6415H22.2156V21.3132H5.3808V17.6415ZM34 30.4925V34.1642H30.633V30.4925H34ZM22.2156 17.6415C28.724 17.6415 34 23.3951 34 30.4925H30.633C30.633 25.423 26.8644 21.3132 22.2156 21.3132V17.6415Z"/>
</mask>
<path d="M5.3808 19.4774L4.19039 20.7755V20.7755C3.51694 20.0411 3.51694 18.9136 4.19039 18.1792V18.1792L5.3808 19.4774ZM34 34.1642C34 35.1781 33.2463 36 32.3165 36C31.3867 36 30.633 35.1781 30.633 34.1642H34ZM13.9011 28.5444C13.2057 29.3028 12.01 29.3028 11.3145 28.5444L4.19039 20.7755L6.5712 18.1792L13.9011 26.1725C14.5163 26.8435 14.5163 27.8735 13.9011 28.5444V28.5444ZM4.19039 18.1792L11.3145 10.4103C12.0099 9.65197 13.2057 9.65197 13.9011 10.4103V10.4103C14.5163 11.0813 14.5163 12.1113 13.9011 12.7822L6.5712 20.7755L4.19039 18.1792ZM5.3808 17.6415H22.2156V21.3132H5.3808V17.6415ZM34 30.4925V34.1642H30.633V30.4925H34ZM22.2156 17.6415C28.724 17.6415 34 23.3951 34 30.4925H30.633C30.633 25.423 26.8644 21.3132 22.2156 21.3132V17.6415Z" fill="#1C274C"/>
<path d="M30.633 35.6642H34V32.6642H30.633V35.6642ZM20.7156 17.6415V21.3132H23.7156V17.6415H20.7156ZM30.633 31.9925H34V28.9925H30.633V31.9925ZM5.3808 19.4774L7.59187 21.505L9.4512 19.4774L7.59189 17.4498L5.3808 19.4774ZM4.19039 20.7755L1.97931 18.7479L0.119991 20.7755L1.9793 22.8031L4.19039 20.7755ZM4.19039 18.1792L1.9793 16.1517L0.119991 18.1792L1.97931 20.2068L4.19039 18.1792ZM6.5712 18.1792L8.7823 16.1517L6.57121 13.7405L4.36012 16.1516L6.5712 18.1792ZM6.5712 20.7755L4.36012 22.8031L6.57121 25.2143L8.78229 22.8031L6.5712 20.7755ZM5.3808 17.6415V14.6415H2.3808V17.6415H5.3808ZM5.3808 21.3132H2.3808V24.3132H5.3808V21.3132ZM11.3145 28.5444L9.10344 30.572L11.3145 28.5444ZM3.16972 17.4498L1.97932 18.7479L6.40146 22.8031L7.59187 21.505L3.16972 17.4498ZM1.9793 20.2068L3.16971 21.505L7.59189 17.4498L6.40148 16.1517L1.9793 20.2068ZM31 34.1642C31 33.7712 31.3501 33 32.3165 33V39C35.1425 39 37 36.585 37 34.1642H31ZM32.3165 33C33.283 33 33.633 33.7712 33.633 34.1642H27.633C27.633 36.585 29.4905 39 32.3165 39V33ZM13.5256 26.5168L6.40148 18.7479L1.9793 22.8031L9.10344 30.572L13.5256 26.5168ZM6.40147 22.8031L8.78229 20.2068L4.36012 16.1516L1.97931 18.7479L6.40147 22.8031ZM4.36011 20.2068L11.69 28.2001L16.1122 24.145L8.7823 16.1517L4.36011 20.2068ZM6.40148 20.2068L13.5256 12.4379L9.10343 8.38275L1.9793 16.1517L6.40148 20.2068ZM11.69 10.7547L4.36012 18.7479L8.78229 22.8031L16.1122 14.8098L11.69 10.7547ZM8.78229 18.7479L6.40147 16.1516L1.97931 20.2068L4.36012 22.8031L8.78229 18.7479ZM5.3808 20.6415H22.2156V14.6415H5.3808V20.6415ZM22.2156 18.3132H5.3808V24.3132H22.2156V18.3132ZM8.3808 21.3132V17.6415H2.3808V21.3132H8.3808ZM31 30.4925V34.1642H37V30.4925H31ZM33.633 34.1642V30.4925H27.633V34.1642H33.633ZM22.2156 20.6415C26.8277 20.6415 31 24.802 31 30.4925H37C37 21.9882 30.6202 14.6415 22.2156 14.6415V20.6415ZM33.633 30.4925C33.633 24.0161 28.7606 18.3132 22.2156 18.3132V24.3132C24.9682 24.3132 27.633 26.8298 27.633 30.4925H33.633ZM11.69 12.4379C11.2534 11.9618 11.2534 11.2308 11.69 10.7547L16.1122 14.8098C17.7793 12.9918 17.7793 10.2008 16.1122 8.38275L11.69 12.4379ZM13.5256 12.4379C13.0321 12.9761 12.1835 12.9761 11.69 12.4379L16.1122 8.38275C14.2278 6.32783 10.9878 6.32782 9.10343 8.38275L13.5256 12.4379ZM11.69 28.2001C11.2534 27.724 11.2534 26.993 11.69 26.5168L16.1122 30.572C17.7793 28.754 17.7793 25.963 16.1122 24.145L11.69 28.2001ZM9.10344 30.572C10.9878 32.6269 14.2278 32.6269 16.1122 30.572L11.69 26.5168C12.1835 25.9786 13.0321 25.9786 13.5256 26.5168L9.10344 30.572ZM6.40148 18.7479C6.77992 19.1606 6.7799 19.7941 6.40149 20.2068L1.97929 16.1517C0.253992 18.0331 0.253955 20.9216 1.9793 22.8031L6.40148 18.7479Z" fill="#1C274C" mask="url(#path-1-inside-1_431_75)"/>
</g>
<mask id="path-3-inside-2_431_75" fill="white">
<path d="M4.3808 19.4774L3.19039 20.7755V20.7755C2.51694 20.0411 2.51694 18.9136 3.19039 18.1792V18.1792L4.3808 19.4774ZM33 34.1642C33 35.1781 32.2463 36 31.3165 36C30.3867 36 29.633 35.1781 29.633 34.1642H33ZM12.9011 28.5444C12.2057 29.3028 11.01 29.3028 10.3145 28.5444L3.19039 20.7755L5.5712 18.1792L12.9011 26.1725C13.5163 26.8435 13.5163 27.8735 12.9011 28.5444V28.5444ZM3.19039 18.1792L10.3145 10.4103C11.0099 9.65197 12.2057 9.65197 12.9011 10.4103V10.4103C13.5163 11.0813 13.5163 12.1113 12.9011 12.7822L5.5712 20.7755L3.19039 18.1792ZM4.3808 17.6415H21.2156V21.3132H4.3808V17.6415ZM33 30.4925V34.1642H29.633V30.4925H33ZM21.2156 17.6415C27.724 17.6415 33 23.3951 33 30.4925H29.633C29.633 25.423 25.8644 21.3132 21.2156 21.3132V17.6415Z"/>
</mask>
<path d="M4.3808 19.4774L3.19039 20.7755V20.7755C2.51694 20.0411 2.51694 18.9136 3.19039 18.1792V18.1792L4.3808 19.4774ZM33 34.1642C33 35.1781 32.2463 36 31.3165 36C30.3867 36 29.633 35.1781 29.633 34.1642H33ZM12.9011 28.5444C12.2057 29.3028 11.01 29.3028 10.3145 28.5444L3.19039 20.7755L5.5712 18.1792L12.9011 26.1725C13.5163 26.8435 13.5163 27.8735 12.9011 28.5444V28.5444ZM3.19039 18.1792L10.3145 10.4103C11.0099 9.65197 12.2057 9.65197 12.9011 10.4103V10.4103C13.5163 11.0813 13.5163 12.1113 12.9011 12.7822L5.5712 20.7755L3.19039 18.1792ZM4.3808 17.6415H21.2156V21.3132H4.3808V17.6415ZM33 30.4925V34.1642H29.633V30.4925H33ZM21.2156 17.6415C27.724 17.6415 33 23.3951 33 30.4925H29.633C29.633 25.423 25.8644 21.3132 21.2156 21.3132V17.6415Z" fill="#1C274C"/>
<path d="M29.633 35.6642H33V32.6642H29.633V35.6642ZM19.7156 17.6415V21.3132H22.7156V17.6415H19.7156ZM29.633 31.9925H33V28.9925H29.633V31.9925ZM4.3808 19.4774L6.59187 21.505L8.4512 19.4774L6.59189 17.4498L4.3808 19.4774ZM3.19039 20.7755L0.979309 18.7479L-0.880009 20.7755L0.979302 22.8031L3.19039 20.7755ZM3.19039 18.1792L0.979302 16.1517L-0.880009 18.1792L0.979309 20.2068L3.19039 18.1792ZM5.5712 18.1792L7.7823 16.1517L5.57121 13.7405L3.36012 16.1516L5.5712 18.1792ZM5.5712 20.7755L3.36012 22.8031L5.57121 25.2143L7.78229 22.8031L5.5712 20.7755ZM4.3808 17.6415V14.6415H1.3808V17.6415H4.3808ZM4.3808 21.3132H1.3808V24.3132H4.3808V21.3132ZM10.3145 28.5444L8.10344 30.572L10.3145 28.5444ZM2.16972 17.4498L0.979317 18.7479L5.40146 22.8031L6.59187 21.505L2.16972 17.4498ZM0.979301 20.2068L2.16971 21.505L6.59189 17.4498L5.40148 16.1517L0.979301 20.2068ZM30 34.1642C30 33.7712 30.3501 33 31.3165 33V39C34.1425 39 36 36.585 36 34.1642H30ZM31.3165 33C32.283 33 32.633 33.7712 32.633 34.1642H26.633C26.633 36.585 28.4905 39 31.3165 39V33ZM12.5256 26.5168L5.40148 18.7479L0.979302 22.8031L8.10344 30.572L12.5256 26.5168ZM5.40147 22.8031L7.78229 20.2068L3.36012 16.1516L0.979309 18.7479L5.40147 22.8031ZM3.36011 20.2068L10.69 28.2001L15.1122 24.145L7.7823 16.1517L3.36011 20.2068ZM5.40148 20.2068L12.5256 12.4379L8.10343 8.38275L0.979302 16.1517L5.40148 20.2068ZM10.69 10.7547L3.36012 18.7479L7.78229 22.8031L15.1122 14.8098L10.69 10.7547ZM7.78229 18.7479L5.40147 16.1516L0.979309 20.2068L3.36012 22.8031L7.78229 18.7479ZM4.3808 20.6415H21.2156V14.6415H4.3808V20.6415ZM21.2156 18.3132H4.3808V24.3132H21.2156V18.3132ZM7.3808 21.3132V17.6415H1.3808V21.3132H7.3808ZM30 30.4925V34.1642H36V30.4925H30ZM32.633 34.1642V30.4925H26.633V34.1642H32.633ZM21.2156 20.6415C25.8277 20.6415 30 24.802 30 30.4925H36C36 21.9882 29.6202 14.6415 21.2156 14.6415V20.6415ZM32.633 30.4925C32.633 24.0161 27.7606 18.3132 21.2156 18.3132V24.3132C23.9682 24.3132 26.633 26.8298 26.633 30.4925H32.633ZM10.69 12.4379C10.2534 11.9618 10.2534 11.2308 10.69 10.7547L15.1122 14.8098C16.7793 12.9918 16.7793 10.2008 15.1122 8.38275L10.69 12.4379ZM12.5256 12.4379C12.0321 12.9761 11.1835 12.9761 10.69 12.4379L15.1122 8.38275C13.2278 6.32783 9.98781 6.32782 8.10343 8.38275L12.5256 12.4379ZM10.69 28.2001C10.2534 27.724 10.2534 26.993 10.69 26.5168L15.1122 30.572C16.7793 28.754 16.7793 25.963 15.1122 24.145L10.69 28.2001ZM8.10344 30.572C9.98781 32.6269 13.2278 32.6269 15.1122 30.572L10.69 26.5168C11.1835 25.9786 12.0321 25.9786 12.5256 26.5168L8.10344 30.572ZM5.40148 18.7479C5.77992 19.1606 5.7799 19.7941 5.40149 20.2068L0.979288 16.1517C-0.746008 18.0331 -0.746045 20.9216 0.979303 22.8031L5.40148 18.7479Z" fill="#1C274C" mask="url(#path-3-inside-2_431_75)"/>
<g filter="url(#filter1_f_431_75)">
<path d="M18.8609 5.3386C22.9833 4.35526 27.3102 4.68827 31.2337 6.29012C35.1572 7.89229 38.4804 10.6831 40.7367 14.2707C42.9928 17.8583 44.0684 22.0626 43.8127 26.2928C43.5569 30.5231 41.9824 34.5671 39.3103 37.8567C36.6383 41.1463 33.003 43.5163 28.9149 44.6339C24.8268 45.7514 20.4914 45.5604 16.5175 44.0875C12.5436 42.6148 9.13076 39.9341 6.75849 36.4222" stroke="#1C274C" stroke-width="3" stroke-linecap="round"/>
</g>
<path d="M18.8609 5.3386C22.9833 4.35526 27.3102 4.68827 31.2337 6.29012C35.1572 7.89229 38.4804 10.6831 40.7367 14.2707C42.9928 17.8583 44.0684 22.0626 43.8127 26.2928C43.5569 30.5231 41.9824 34.5671 39.3103 37.8567C36.6383 41.1463 33.003 43.5163 28.9149 44.6339C24.8268 45.7514 20.4914 45.5604 16.5175 44.0875C12.5436 42.6148 9.13076 39.9341 6.75849 36.4222" stroke="#1C274C" stroke-width="3" stroke-linecap="round"/>
</g>
<defs>
<filter id="filter0_f_431_75" x="0.485547" y="6.6418" width="36.7145" height="32.5582" filterUnits="userSpaceOnUse" color-interpolation-filters="sRGB">
<feFlood flood-opacity="0" result="BackgroundImageFix"/>
<feBlend mode="normal" in="SourceGraphic" in2="BackgroundImageFix" result="shape"/>
<feGaussianBlur stdDeviation="1.6" result="effect1_foregroundBlur_431_75"/>
</filter>
<filter id="filter1_f_431_75" x="1.25879" y="-0.714844" width="48.0908" height="51.5664" filterUnits="userSpaceOnUse" color-interpolation-filters="sRGB">
<feFlood flood-opacity="0" result="BackgroundImageFix"/>
<feBlend mode="normal" in="SourceGraphic" in2="BackgroundImageFix" result="shape"/>
<feGaussianBlur stdDeviation="2" result="effect1_foregroundBlur_431_75"/>
</filter>
<clipPath id="clip0_431_75">
<rect width="50" height="50" fill="white"/>
</clipPath>
</defs>
</svg>
