<svg width="50" height="50" viewBox="0 0 50 50" fill="none" xmlns="http://www.w3.org/2000/svg">
<g clip-path="url(#clip0_431_70)">
<g filter="url(#filter0_f_431_70)">
<path d="M7.23764 19.0764L5.61881 20.8204V20.8204C4.70592 19.8369 4.70593 18.3158 5.61881 17.3323V17.3323L7.23764 19.0764ZM46.1569 38.808C46.1569 40.1703 45.1319 41.2745 43.8675 41.2745C42.6031 41.2745 41.5781 40.1703 41.5781 38.808H46.1569ZM18.8049 31.279C17.866 32.2905 16.2653 32.2905 15.3264 31.279L5.61881 20.8204L8.85648 17.3323L18.8049 28.0503C19.6499 28.9606 19.6499 30.3686 18.8049 31.279V31.279ZM5.61881 17.3323L15.3264 6.87377C16.2653 5.86226 17.866 5.86226 18.8049 6.87377V6.87377C19.6499 7.78414 19.6499 9.1921 18.8049 10.1025L8.85648 20.8204L5.61881 17.3323ZM7.23764 16.6099H30.1313V21.5428H7.23764V16.6099ZM46.1569 33.8751V38.808H41.5781V33.8751H46.1569ZM30.1313 16.6099C38.982 16.6099 46.1569 24.3398 46.1569 33.8751H41.5781C41.5781 27.0642 36.4532 21.5428 30.1313 21.5428V16.6099Z" fill="#1C274C"/>
</g>
<path d="M7.23764 19.0764L5.61881 20.8204V20.8204C4.70592 19.8369 4.70593 18.3158 5.61881 17.3323V17.3323L7.23764 19.0764ZM46.1569 38.808C46.1569 40.1703 45.1319 41.2745 43.8675 41.2745C42.6031 41.2745 41.5781 40.1703 41.5781 38.808H46.1569ZM18.8049 31.279C17.866 32.2905 16.2653 32.2905 15.3264 31.279L5.61881 20.8204L8.85648 17.3323L18.8049 28.0503C19.6499 28.9606 19.6499 30.3686 18.8049 31.279V31.279ZM5.61881 17.3323L15.3264 6.87377C16.2653 5.86226 17.866 5.86226 18.8049 6.87377V6.87377C19.6499 7.78414 19.6499 9.1921 18.8049 10.1025L8.85648 20.8204L5.61881 17.3323ZM7.23764 16.6099H30.1313V21.5428H7.23764V16.6099ZM46.1569 33.8751V38.808H41.5781V33.8751H46.1569ZM30.1313 16.6099C38.982 16.6099 46.1569 24.3398 46.1569 33.8751H41.5781C41.5781 27.0642 36.4532 21.5428 30.1313 21.5428V16.6099Z" fill="#1C274C"/>
</g>
<defs>
<filter id="filter0_f_431_70" x="0.93457" y="2.11523" width="49.2227" height="43.1592" filterUnits="userSpaceOnUse" color-interpolation-filters="sRGB">
<feFlood flood-opacity="0" result="BackgroundImageFix"/>
<feBlend mode="normal" in="SourceGraphic" in2="BackgroundImageFix" result="shape"/>
<feGaussianBlur stdDeviation="2" result="effect1_foregroundBlur_431_70"/>
</filter>
<clipPath id="clip0_431_70">
<rect width="50" height="50" fill="white"/>
</clipPath>
</defs>
</svg>
