<svg width="50" height="51" viewBox="0 0 50 51" fill="none" xmlns="http://www.w3.org/2000/svg">
<g clip-path="url(#clip0_446_41)">
<g filter="url(#filter0_f_446_41)">
<path d="M21.9 20.5C21.9 23.2328 19.7921 25.4 17.25 25.4C14.7079 25.4 12.6 23.2328 12.6 20.5C12.6 17.7672 14.7079 15.6 17.25 15.6C19.7921 15.6 21.9 17.7672 21.9 20.5Z" stroke="white" stroke-width="1.2"/>
<path d="M21 24L28 31" stroke="white"/>
<path d="M31.3101 11.9089C29.8626 14.2269 26.9268 14.9486 24.7705 13.6021C22.6143 12.2556 21.9743 9.30085 23.4219 6.9829C24.8694 4.66494 27.8052 3.94322 29.9614 5.28974C32.1176 6.63625 32.7576 9.59096 31.3101 11.9089Z" stroke="white" stroke-width="1.2"/>
<path d="M28.6934 14.4009L30.923 24.046" stroke="white"/>
<path d="M28.0962 32.4257C28.9185 35.0318 27.5605 37.7329 25.1362 38.4978C22.7119 39.2628 20.0496 37.8303 19.2272 35.2242C18.4049 32.6181 19.7629 29.917 22.1872 29.1521C24.6115 28.3871 27.2738 29.8196 28.0962 32.4257Z" fill="white" stroke="white" stroke-width="1.2"/>
<path d="M28.292 36.0332L37.074 40.6024" stroke="white"/>
<path d="M14.6026 6.5283C15.0055 9.23125 13.2402 11.6855 10.7258 12.0603C8.21146 12.435 5.80712 10.6023 5.40425 7.89931C5.00138 5.19636 6.76674 2.7421 9.28109 2.36734C11.7954 1.99258 14.1998 3.82535 14.6026 6.5283Z" fill="white" stroke="white" stroke-width="1.2"/>
<path d="M14.2295 10.1221L22.185 16.0136" stroke="white"/>
<path d="M12.3056 28.9642C13.771 31.2709 13.1539 34.2305 11.0081 35.5936C8.86237 36.9567 5.92106 36.2578 4.45567 33.9511C2.99028 31.6444 3.60739 28.6848 5.75314 27.3216C7.89889 25.9585 10.8402 26.6575 12.3056 28.9642Z" fill="white" stroke="white" stroke-width="1.2"/>
<path d="M13.4229 32.4004L23.0849 34.5554" stroke="white"/>
<path d="M45.03 38C45.03 43.5824 40.7212 48.03 35.5 48.03C30.2788 48.03 25.97 43.5824 25.97 38C25.97 32.4176 30.2788 27.97 35.5 27.97C40.7212 27.97 45.03 32.4176 45.03 38Z" stroke="white" stroke-width="1.94"/>
</g>
<path d="M21.9 20.5C21.9 23.2328 19.7921 25.4 17.25 25.4C14.7079 25.4 12.6 23.2328 12.6 20.5C12.6 17.7672 14.7079 15.6 17.25 15.6C19.7921 15.6 21.9 17.7672 21.9 20.5Z" stroke="white" stroke-width="1.2"/>
<path d="M21 24L28 31" stroke="white"/>
<path d="M31.3101 11.9089C29.8626 14.2269 26.9268 14.9486 24.7705 13.6021C22.6143 12.2556 21.9743 9.30085 23.4219 6.9829C24.8694 4.66494 27.8052 3.94322 29.9614 5.28974C32.1176 6.63625 32.7576 9.59096 31.3101 11.9089Z" stroke="white" stroke-width="1.2"/>
<path d="M28.6934 14.4009L30.923 24.046" stroke="white"/>
<path d="M28.0962 32.4257C28.9185 35.0318 27.5605 37.7329 25.1362 38.4978C22.7119 39.2628 20.0496 37.8303 19.2272 35.2242C18.4049 32.6181 19.7629 29.917 22.1872 29.1521C24.6115 28.3871 27.2738 29.8196 28.0962 32.4257Z" fill="white" stroke="white" stroke-width="1.2"/>
<path d="M28.292 36.0332L37.074 40.6024" stroke="white"/>
<path d="M14.6026 6.5283C15.0055 9.23125 13.2402 11.6855 10.7258 12.0603C8.21146 12.435 5.80712 10.6023 5.40425 7.89931C5.00138 5.19636 6.76674 2.7421 9.28109 2.36734C11.7954 1.99258 14.1998 3.82535 14.6026 6.5283Z" fill="white" stroke="white" stroke-width="1.2"/>
<path d="M14.2295 10.1221L22.185 16.0136" stroke="white"/>
<path d="M12.3056 28.9642C13.771 31.2709 13.1539 34.2305 11.0081 35.5936C8.86237 36.9567 5.92106 36.2578 4.45567 33.9511C2.99028 31.6444 3.60739 28.6848 5.75314 27.3216C7.89889 25.9585 10.8402 26.6575 12.3056 28.9642Z" fill="white" stroke="white" stroke-width="1.2"/>
<path d="M13.4229 32.4004L23.0849 34.5554" stroke="white"/>
<path d="M45.03 38C45.03 43.5824 40.7212 48.03 35.5 48.03C30.2788 48.03 25.97 43.5824 25.97 38C25.97 32.4176 30.2788 27.97 35.5 27.97C40.7212 27.97 45.03 32.4176 45.03 38Z" stroke="white" stroke-width="1.94"/>
</g>
<defs>
<filter id="filter0_f_446_41" x="-0.943359" y="-2.28174" width="50.9434" height="55.2817" filterUnits="userSpaceOnUse" color-interpolation-filters="sRGB">
<feFlood flood-opacity="0" result="BackgroundImageFix"/>
<feBlend mode="normal" in="SourceGraphic" in2="BackgroundImageFix" result="shape"/>
<feGaussianBlur stdDeviation="2" result="effect1_foregroundBlur_446_41"/>
</filter>
<clipPath id="clip0_446_41">
<rect width="50" height="50" fill="white" transform="translate(0 0.5)"/>
</clipPath>
</defs>
</svg>
