<svg width="54" height="57" viewBox="0 0 54 57" fill="none" xmlns="http://www.w3.org/2000/svg">
<g clip-path="url(#clip0_446_55)" filter="url(#filter0_d_446_55)">
<g filter="url(#filter1_f_446_55)">
<path d="M22.4054 15.5328C22.6817 18.2516 20.8038 20.6208 18.2747 20.8778C15.7456 21.1349 13.4294 19.192 13.1531 16.4732C12.8767 13.7544 14.7547 11.3851 17.2838 11.1281C19.8129 10.871 22.1291 12.814 22.4054 15.5328Z" stroke="white" stroke-width="1.2"/>
<path d="M21.8633 19.1055L29.5352 25.3618" stroke="white"/>
<path d="M32.2659 7.95362C31.19 10.4657 28.3991 11.6279 26.0623 10.627C23.7255 9.62613 22.6411 6.80407 23.7171 4.29199C24.7931 1.77992 27.584 0.61769 29.9208 1.61858C32.2576 2.61948 33.3419 5.44154 32.2659 7.95362Z" stroke="white" stroke-width="1.2"/>
<path d="M30.0615 10.8164L33.7401 20.0071" stroke="white"/>
<path d="M25.3252 30.1015C26.6501 32.4916 25.8572 35.409 23.6339 36.6415C21.4105 37.874 18.5162 37.0004 17.1913 34.6103C15.8664 32.2202 16.6592 29.3028 18.8826 28.0703C21.106 26.8378 24.0003 27.7113 25.3252 30.1015Z" fill="white" stroke="white" stroke-width="1.2"/>
<path d="M26.2344 33.5962L35.7506 36.3241" stroke="white"/>
<path d="M13.5824 5.14794C14.9488 7.51466 14.2068 10.4454 12.0052 11.7164C9.80365 12.9874 6.89461 12.1644 5.52827 9.79771C4.16194 7.43099 4.9039 4.50023 7.10548 3.22923C9.30707 1.95823 12.2161 2.78122 13.5824 5.14794Z" fill="white" stroke="white" stroke-width="1.2"/>
<path d="M14.5537 8.62842L24.1158 11.1909" stroke="white"/>
<path d="M14.767 22.0574C15.7754 24.5974 14.616 27.3894 12.2532 28.3275C9.89051 29.2655 7.13169 28.029 6.12329 25.4891C5.11488 22.9491 6.27431 20.1571 8.63704 19.219C10.9998 18.281 13.7586 19.5175 14.767 22.0574Z" fill="white" stroke="white" stroke-width="1.2"/>
<path d="M15.2227 25.6416L24.3117 29.5646" stroke="white"/>
<path d="M49.03 37.5C49.03 43.0824 44.7212 47.53 39.5 47.53C34.2788 47.53 29.97 43.0824 29.97 37.5C29.97 31.9176 34.2788 27.47 39.5 27.47C44.7212 27.47 49.03 31.9176 49.03 37.5Z" stroke="white" stroke-width="1.94"/>
</g>
<path d="M22.4054 15.5328C22.6817 18.2516 20.8038 20.6208 18.2747 20.8778C15.7456 21.1349 13.4294 19.192 13.1531 16.4732C12.8767 13.7544 14.7547 11.3851 17.2838 11.1281C19.8129 10.871 22.1291 12.814 22.4054 15.5328Z" stroke="white" stroke-width="1.2"/>
<path d="M21.8633 19.1055L29.5352 25.3618" stroke="white"/>
<path d="M32.2659 7.95362C31.19 10.4657 28.3991 11.6279 26.0623 10.627C23.7255 9.62613 22.6411 6.80407 23.7171 4.29199C24.7931 1.77992 27.584 0.61769 29.9208 1.61858C32.2576 2.61948 33.3419 5.44154 32.2659 7.95362Z" stroke="white" stroke-width="1.2"/>
<path d="M30.0615 10.8164L33.7401 20.0071" stroke="white"/>
<path d="M25.3252 30.1015C26.6501 32.4916 25.8572 35.409 23.6339 36.6415C21.4105 37.874 18.5162 37.0004 17.1913 34.6103C15.8664 32.2202 16.6592 29.3028 18.8826 28.0703C21.106 26.8378 24.0003 27.7113 25.3252 30.1015Z" fill="white" stroke="white" stroke-width="1.2"/>
<path d="M26.2344 33.5962L35.7506 36.3241" stroke="white"/>
<path d="M13.5824 5.14794C14.9488 7.51466 14.2068 10.4454 12.0052 11.7164C9.80365 12.9874 6.89461 12.1644 5.52827 9.79771C4.16194 7.43099 4.9039 4.50023 7.10548 3.22923C9.30707 1.95823 12.2161 2.78122 13.5824 5.14794Z" fill="white" stroke="white" stroke-width="1.2"/>
<path d="M14.5537 8.62842L24.1158 11.1909" stroke="white"/>
<path d="M14.767 22.0574C15.7754 24.5974 14.616 27.3894 12.2532 28.3275C9.89051 29.2655 7.13169 28.029 6.12329 25.4891C5.11488 22.9491 6.27431 20.1571 8.63704 19.219C10.9998 18.281 13.7586 19.5175 14.767 22.0574Z" fill="white" stroke="white" stroke-width="1.2"/>
<path d="M15.2227 25.6416L24.3117 29.5646" stroke="white"/>
<path d="M49.03 37.5C49.03 43.0824 44.7212 47.53 39.5 47.53C34.2788 47.53 29.97 43.0824 29.97 37.5C29.97 31.9176 34.2788 27.47 39.5 27.47C44.7212 27.47 49.03 31.9176 49.03 37.5Z" stroke="white" stroke-width="1.94"/>
</g>
<defs>
<filter id="filter0_d_446_55" x="-2" y="0" width="58" height="58" filterUnits="userSpaceOnUse" color-interpolation-filters="sRGB">
<feFlood flood-opacity="0" result="BackgroundImageFix"/>
<feColorMatrix in="SourceAlpha" type="matrix" values="0 0 0 0 0 0 0 0 0 0 0 0 0 0 0 0 0 0 127 0" result="hardAlpha"/>
<feOffset dy="4"/>
<feGaussianBlur stdDeviation="2"/>
<feComposite in2="hardAlpha" operator="out"/>
<feColorMatrix type="matrix" values="0 0 0 0 0 0 0 0 0 0 0 0 0 0 0 0 0 0 0.25 0"/>
<feBlend mode="normal" in2="BackgroundImageFix" result="effect1_dropShadow_446_55"/>
<feBlend mode="normal" in="SourceGraphic" in2="effect1_dropShadow_446_55" result="shape"/>
</filter>
<filter id="filter1_f_446_55" x="0.241211" y="-3.34082" width="53.7588" height="55.8408" filterUnits="userSpaceOnUse" color-interpolation-filters="sRGB">
<feFlood flood-opacity="0" result="BackgroundImageFix"/>
<feBlend mode="normal" in="SourceGraphic" in2="BackgroundImageFix" result="shape"/>
<feGaussianBlur stdDeviation="2" result="effect1_foregroundBlur_446_55"/>
</filter>
<clipPath id="clip0_446_55">
<rect width="50" height="50" fill="white" transform="translate(2)"/>
</clipPath>
</defs>
</svg>
