<svg width="57" height="69" viewBox="0 0 57 69" fill="none" xmlns="http://www.w3.org/2000/svg">
<g filter="url(#filter0_f_254_81)">
<path d="M4.95898 22.3949C4.95898 14.1472 4.95899 10.0234 7.52122 7.46116C10.0834 4.89893 14.2073 4.89893 22.455 4.89893H34.119C42.3666 4.89893 46.4904 4.89893 49.0527 7.46116C51.615 10.0234 51.615 14.1472 51.615 22.3949V45.7229C51.615 53.9705 51.615 58.0943 49.0527 60.6566C46.4904 63.2189 42.3666 63.2189 34.119 63.2189H22.455C14.2073 63.2189 10.0834 63.2189 7.52122 60.6566C4.95899 58.0943 4.95898 53.9705 4.95898 45.7229V22.3949Z" stroke="white" stroke-width="1.944"/>
<path d="M51.317 45.7231H16.3249C13.6131 45.7231 12.2572 45.7231 11.1448 46.0212C8.12588 46.8301 5.76788 49.1882 4.95898 52.2069" stroke="white" stroke-width="1.944"/>
<path d="M13.707 45.7229V6.35693" stroke="white" stroke-width="1.944" stroke-linecap="round"/>
<path d="M31.2031 45.7231V56.0192C31.2031 56.8229 31.2031 57.2247 30.9263 57.3871C30.6499 57.5496 30.2717 57.3699 29.515 57.0104L25.8927 55.29C25.6367 55.1684 25.5087 55.1074 25.3711 55.1074C25.2334 55.1074 25.1054 55.1684 24.8494 55.29L21.2271 57.0104C20.4705 57.3699 20.0923 57.5496 19.8156 57.3871C19.5391 57.2247 19.5391 56.8229 19.5391 56.0192V47.0353" stroke="white" stroke-width="1.944" stroke-linecap="round"/>
</g>
<path d="M4.95898 22.3949C4.95898 14.1472 4.95899 10.0234 7.52122 7.46116C10.0834 4.89893 14.2073 4.89893 22.455 4.89893H34.119C42.3666 4.89893 46.4904 4.89893 49.0527 7.46116C51.615 10.0234 51.615 14.1472 51.615 22.3949V45.7229C51.615 53.9705 51.615 58.0943 49.0527 60.6566C46.4904 63.2189 42.3666 63.2189 34.119 63.2189H22.455C14.2073 63.2189 10.0834 63.2189 7.52122 60.6566C4.95899 58.0943 4.95898 53.9705 4.95898 45.7229V22.3949Z" stroke="white" stroke-width="1.944"/>
<path d="M51.317 45.7231H16.3249C13.6131 45.7231 12.2572 45.7231 11.1448 46.0212C8.12588 46.8301 5.76788 49.1882 4.95898 52.2069" stroke="white" stroke-width="1.944"/>
<path d="M13.707 45.7229V6.35693" stroke="white" stroke-width="1.944" stroke-linecap="round"/>
<path d="M31.2031 45.7231V56.0192C31.2031 56.8229 31.2031 57.2247 30.9263 57.3871C30.6499 57.5496 30.2717 57.3699 29.515 57.0104L25.8927 55.29C25.6367 55.1684 25.5087 55.1074 25.3711 55.1074C25.2334 55.1074 25.1054 55.1684 24.8494 55.29L21.2271 57.0104C20.4705 57.3699 20.0923 57.5496 19.8156 57.3871C19.5391 57.2247 19.5391 56.8229 19.5391 56.0192V47.0353" stroke="white" stroke-width="1.944" stroke-linecap="round"/>
<defs>
<filter id="filter0_f_254_81" x="0.0993047" y="0.0387578" width="56.3756" height="68.0402" filterUnits="userSpaceOnUse" color-interpolation-filters="sRGB">
<feFlood flood-opacity="0" result="BackgroundImageFix"/>
<feBlend mode="normal" in="SourceGraphic" in2="BackgroundImageFix" result="shape"/>
<feGaussianBlur stdDeviation="1.944" result="effect1_foregroundBlur_254_81"/>
</filter>
</defs>
</svg>
