<svg width="69" height="65" viewBox="0 0 69 65" fill="none" xmlns="http://www.w3.org/2000/svg">
<g filter="url(#filter0_f_254_64)">
<path d="M63.446 11.5289V46.7252C63.446 49.5246 61.1715 52.1487 58.3721 52.4986L57.4099 52.6156C51.053 53.4612 41.2552 56.6977 35.6565 59.7886C34.8983 60.226 33.6445 60.226 32.8571 59.7886L32.7405 59.7306C27.1417 56.6688 17.3733 53.4612 11.0455 52.6156L10.1998 52.4986C7.40043 52.1487 5.12598 49.5246 5.12598 46.7252V11.4998C5.12598 8.02971 7.95441 5.40534 11.4244 5.69694C17.548 6.19266 26.8209 9.28371 32.0115 12.5205L32.7405 12.9578C33.5861 13.4827 34.9858 13.4827 35.8315 12.9578L36.3272 12.6371C38.1643 11.4998 40.4971 10.3625 43.034 9.34194V21.2393L48.866 17.3609L54.698 21.2393V6.01785C55.4853 5.87205 56.2435 5.78445 56.9433 5.72613H57.1183C60.5883 5.43453 63.446 8.02974 63.446 11.5289Z" stroke="white" stroke-width="1.944" stroke-linecap="round" stroke-linejoin="round"/>
<path d="M34.2861 13.9199V57.6599" stroke="white" stroke-width="1.944" stroke-linecap="round" stroke-linejoin="round"/>
<path d="M54.6982 6.01758V21.239L48.8662 17.3607L43.0342 21.239V9.34167C46.8541 7.82535 51.1115 6.60078 54.6982 6.01758Z" stroke="white" stroke-width="1.944" stroke-linecap="round" stroke-linejoin="round"/>
</g>
<path d="M63.446 11.5289V46.7252C63.446 49.5246 61.1715 52.1487 58.3721 52.4986L57.4099 52.6156C51.053 53.4612 41.2552 56.6977 35.6565 59.7886C34.8983 60.226 33.6445 60.226 32.8571 59.7886L32.7405 59.7306C27.1417 56.6688 17.3733 53.4612 11.0455 52.6156L10.1998 52.4986C7.40043 52.1487 5.12598 49.5246 5.12598 46.7252V11.4998C5.12598 8.02971 7.95441 5.40534 11.4244 5.69694C17.548 6.19266 26.8209 9.28371 32.0115 12.5205L32.7405 12.9578C33.5861 13.4827 34.9858 13.4827 35.8315 12.9578L36.3272 12.6371C38.1643 11.4998 40.4971 10.3625 43.034 9.34194V21.2393L48.866 17.3609L54.698 21.2393V6.01785C55.4853 5.87205 56.2435 5.78445 56.9433 5.72613H57.1183C60.5883 5.43453 63.446 8.02974 63.446 11.5289Z" stroke="white" stroke-width="1.944" stroke-linecap="round" stroke-linejoin="round"/>
<path d="M34.2861 13.9199V57.6599" stroke="white" stroke-width="1.944" stroke-linecap="round" stroke-linejoin="round"/>
<path d="M54.6982 6.01758V21.239L48.8662 17.3607L43.0342 21.239V9.34167C46.8541 7.82535 51.1115 6.60078 54.6982 6.01758Z" stroke="white" stroke-width="1.944" stroke-linecap="round" stroke-linejoin="round"/>
<defs>
<filter id="filter0_f_254_64" x="0.266297" y="0.814637" width="68.0397" height="64.1622" filterUnits="userSpaceOnUse" color-interpolation-filters="sRGB">
<feFlood flood-opacity="0" result="BackgroundImageFix"/>
<feBlend mode="normal" in="SourceGraphic" in2="BackgroundImageFix" result="shape"/>
<feGaussianBlur stdDeviation="1.944" result="effect1_foregroundBlur_254_64"/>
</filter>
</defs>
</svg>
