<svg width="45" height="63" viewBox="0 0 45 63" fill="none" xmlns="http://www.w3.org/2000/svg">
<g filter="url(#filter0_f_304_205)">
<circle cx="22.5" cy="22.5" r="9.5" fill="white"/>
</g>
<g filter="url(#filter1_f_304_205)">
<path d="M15.4976 57.488H29.4944M39.992 22.496C39.992 12.8332 32.1587 5 22.496 5C12.8332 5 5 12.8332 5 22.496C5 29.6704 9.31836 35.8364 15.4976 38.5363V46.9904H29.4944V38.5363C35.6736 35.8364 39.992 29.6704 39.992 22.496Z" stroke="white" stroke-width="1.944" stroke-linecap="round" stroke-linejoin="round"/>
</g>
<path d="M15.4976 57.488H29.4944M39.992 22.496C39.992 12.8332 32.1587 5 22.496 5C12.8332 5 5 12.8332 5 22.496C5 29.6704 9.31836 35.8364 15.4976 38.5363V46.9904H29.4944V38.5363C35.6736 35.8364 39.992 29.6704 39.992 22.496Z" stroke="white" stroke-width="1.944" stroke-linecap="round" stroke-linejoin="round"/>
<defs>
<filter id="filter0_f_304_205" x="9" y="9" width="27" height="27" filterUnits="userSpaceOnUse" color-interpolation-filters="sRGB">
<feFlood flood-opacity="0" result="BackgroundImageFix"/>
<feBlend mode="normal" in="SourceGraphic" in2="BackgroundImageFix" result="shape"/>
<feGaussianBlur stdDeviation="2" result="effect1_foregroundBlur_304_205"/>
</filter>
<filter id="filter1_f_304_205" x="0.0283203" y="0.027832" width="44.9355" height="62.4321" filterUnits="userSpaceOnUse" color-interpolation-filters="sRGB">
<feFlood flood-opacity="0" result="BackgroundImageFix"/>
<feBlend mode="normal" in="SourceGraphic" in2="BackgroundImageFix" result="shape"/>
<feGaussianBlur stdDeviation="2" result="effect1_foregroundBlur_304_205"/>
</filter>
</defs>
</svg>
