<svg width="97" height="99" viewBox="0 0 97 99" fill="none" xmlns="http://www.w3.org/2000/svg">
<g filter="url(#filter0_f_254_62)">
<path d="M8 90.9575L57.5 90.957V23.4086C57.5 17.2704 57.5 14.2013 56.2342 12.0741C55.124 10.2088 53.3771 8.80759 51.3156 8.12859C48.9644 7.35418 45.9683 8.01996 39.9761 9.35151L28.2762 11.9515C24.2526 12.8456 22.2409 13.2927 20.7392 14.3745C19.4146 15.3288 18.3745 16.6254 17.7304 18.1254C17 19.8261 17 21.8869 17 26.0086V90.9575M57.473 18.9573H65.6C70.6405 18.9573 73.1609 18.9573 75.086 19.9383C76.7794 20.8011 78.1563 22.178 79.019 23.8714C80 25.7966 80 28.3169 80 33.3573V90.9575H89M44 50.4575H44.045" stroke="white" stroke-width="3" stroke-linecap="round" stroke-linejoin="round"/>
</g>
<path d="M8 90.9575L57.5 90.957V23.4086C57.5 17.2704 57.5 14.2013 56.2342 12.0741C55.124 10.2088 53.3771 8.80759 51.3156 8.12859C48.9644 7.35418 45.9683 8.01996 39.9761 9.35151L28.2762 11.9515C24.2526 12.8456 22.2409 13.2927 20.7392 14.3745C19.4146 15.3288 18.3745 16.6254 17.7304 18.1254C17 19.8261 17 21.8869 17 26.0086V90.9575M57.473 18.9573H65.6C70.6405 18.9573 73.1609 18.9573 75.086 19.9383C76.7794 20.8011 78.1563 22.178 79.019 23.8714C80 25.7966 80 28.3169 80 33.3573V90.9575H89M44 50.4575H44.045" stroke="white" stroke-width="3" stroke-linecap="round" stroke-linejoin="round"/>
<defs>
<filter id="filter0_f_254_62" x="0.5" y="0.299316" width="96" height="98.1582" filterUnits="userSpaceOnUse" color-interpolation-filters="sRGB">
<feFlood flood-opacity="0" result="BackgroundImageFix"/>
<feBlend mode="normal" in="SourceGraphic" in2="BackgroundImageFix" result="shape"/>
<feGaussianBlur stdDeviation="3" result="effect1_foregroundBlur_254_62"/>
</filter>
</defs>
</svg>
