<svg width="63" height="65" viewBox="0 0 63 65" fill="none" xmlns="http://www.w3.org/2000/svg">
<g filter="url(#filter0_f_254_62)">
<path d="M4.95215 59.5989L37.0281 59.5986V15.8272C37.0281 11.8497 37.0282 9.86091 36.2079 8.48243C35.4885 7.27378 34.3565 6.36577 33.0207 5.92577C31.4971 5.42396 29.5556 5.85538 25.6727 6.71822L18.0911 8.40303C15.4839 8.98241 14.1802 9.27211 13.2071 9.97315C12.3488 10.5915 11.6748 11.4317 11.2574 12.4037C10.7841 13.5057 10.7841 14.8411 10.7841 17.512V59.5989M37.0107 12.9428H42.277C45.5432 12.9428 47.1764 12.9428 48.4239 13.5784C49.5212 14.1376 50.4135 15.0298 50.9725 16.1271C51.6081 17.3747 51.6082 19.0078 51.6082 22.274V59.5989H57.4402M28.2801 33.3549H28.3093" stroke="white" stroke-width="1.944" stroke-linecap="round" stroke-linejoin="round"/>
</g>
<path d="M4.95215 59.5989L37.0281 59.5986V15.8272C37.0281 11.8497 37.0282 9.86091 36.2079 8.48243C35.4885 7.27378 34.3565 6.36577 33.0207 5.92577C31.4971 5.42396 29.5556 5.85538 25.6727 6.71822L18.0911 8.40303C15.4839 8.98241 14.1802 9.27211 13.2071 9.97315C12.3488 10.5915 11.6748 11.4317 11.2574 12.4037C10.7841 13.5057 10.7841 14.8411 10.7841 17.512V59.5989M37.0107 12.9428H42.277C45.5432 12.9428 47.1764 12.9428 48.4239 13.5784C49.5212 14.1376 50.4135 15.0298 50.9725 16.1271C51.6081 17.3747 51.6082 19.0078 51.6082 22.274V59.5989H57.4402M28.2801 33.3549H28.3093" stroke="white" stroke-width="1.944" stroke-linecap="round" stroke-linejoin="round"/>
<defs>
<filter id="filter0_f_254_62" x="0.0924687" y="0.852234" width="62.2076" height="63.6066" filterUnits="userSpaceOnUse" color-interpolation-filters="sRGB">
<feFlood flood-opacity="0" result="BackgroundImageFix"/>
<feBlend mode="normal" in="SourceGraphic" in2="BackgroundImageFix" result="shape"/>
<feGaussianBlur stdDeviation="1.944" result="effect1_foregroundBlur_254_62"/>
</filter>
</defs>
</svg>
