<svg width="93" height="93" viewBox="0 0 93 93" fill="none" xmlns="http://www.w3.org/2000/svg">
<mask id="mask0_478_74" style="mask-type:alpha" maskUnits="userSpaceOnUse" x="3" y="3" width="87" height="87">
<path fill-rule="evenodd" clip-rule="evenodd" d="M46.5 90C70.5244 90 90 70.5244 90 46.5C90 22.4756 70.5244 3 46.5 3C22.4756 3 3 22.4756 3 46.5C3 70.5244 22.4756 90 46.5 90ZM46.5 62C55.0604 62 62 55.0604 62 46.5C62 37.9396 55.0604 31 46.5 31C37.9396 31 31 37.9396 31 46.5C31 55.0604 37.9396 62 46.5 62Z" fill="#D9D9D9"/>
</mask>
<g mask="url(#mask0_478_74)">
<path d="M45.8984 16.6655C48.4752 16.6655 50.564 14.5767 50.564 11.9999C50.564 9.4232 48.4752 7.33434 45.8984 7.33434C43.3217 7.33434 41.2328 9.4232 41.2328 11.9999C41.2328 14.5767 43.3217 16.6655 45.8984 16.6655ZM46.7732 45.8984L46.7732 11.9999L45.0236 11.9999L45.0236 45.8984L46.7732 45.8984Z" fill="#C8C60D"/>
<path d="M60.4968 20.8726C62.7226 22.171 65.5794 21.4192 66.8777 19.1934C68.1761 16.9677 67.4243 14.1109 65.1985 12.8125C62.9728 11.5142 60.116 12.266 58.8176 14.4917C57.5193 16.7175 58.2711 19.5743 60.4968 20.8726ZM46.6541 46.3392L63.6033 17.2834L62.0921 16.4018L45.1428 45.4577L46.6541 46.3392Z" fill="#E3CB0B"/>
<path d="M70.9242 31.3C72.2226 33.5258 75.0794 34.2776 77.3052 32.9792C79.5309 31.6809 80.2827 28.8241 78.9843 26.5983C77.686 24.3726 74.8292 23.6208 72.6034 24.9191C70.3777 26.2175 69.6259 29.0743 70.9242 31.3ZM46.3392 46.6541L75.3951 29.7048L74.5135 28.1936L45.4577 45.1428L46.3392 46.6541Z" fill="#F2CE0C"/>
<path d="M75.1313 45.8984C75.1313 48.4752 77.2202 50.564 79.7969 50.564C82.3737 50.564 84.4625 48.4752 84.4625 45.8984C84.4625 43.3217 82.3737 41.2328 79.7969 41.2328C77.2202 41.2328 75.1313 43.3217 75.1313 45.8984ZM45.8984 46.7732H79.7969V45.0236H45.8984V46.7732Z" fill="#D6C80F"/>
<path d="M70.9242 60.4968C69.6259 62.7226 70.3777 65.5794 72.6034 66.8777C74.8292 68.1761 77.686 67.4243 78.9843 65.1985C80.2827 62.9728 79.5309 60.116 77.3052 58.8176C75.0794 57.5193 72.2226 58.2711 70.9242 60.4968ZM45.4577 46.6541L74.5135 63.6033L75.3951 62.0921L46.3392 45.1428L45.4577 46.6541Z" fill="#BDC40E"/>
<path d="M60.4968 70.9242C58.2711 72.2226 57.5193 75.0794 58.8176 77.3052C60.116 79.5309 62.9728 80.2827 65.1985 78.9843C67.4243 77.686 68.1761 74.8292 66.8777 72.6034C65.5794 70.3777 62.7226 69.6259 60.4968 70.9242ZM45.1428 46.3392L62.0921 75.3951L63.6033 74.5135L46.6541 45.4577L45.1428 46.3392Z" fill="#A0BF13"/>
<path d="M45.8984 75.1313C43.3217 75.1313 41.2328 77.2202 41.2328 79.7969C41.2328 82.3737 43.3217 84.4625 45.8984 84.4625C48.4752 84.4625 50.564 82.3737 50.564 79.7969C50.564 77.2202 48.4752 75.1313 45.8984 75.1313ZM45.0236 45.8984V79.7969H46.7732V45.8984H45.0236Z" fill="#70B715"/>
<path d="M31.3 70.9242C29.0743 69.6259 26.2175 70.3777 24.9191 72.6034C23.6208 74.8292 24.3726 77.686 26.5983 78.9843C28.8241 80.2827 31.6809 79.5309 32.9792 77.3052C34.2776 75.0794 33.5258 72.2226 31.3 70.9242ZM45.1428 45.4577L28.1936 74.5135L29.7048 75.3951L46.6541 46.3392L45.1428 45.4577Z" fill="#60B419"/>
<path d="M20.8726 60.4968C19.5743 58.2711 16.7175 57.5193 14.4917 58.8176C12.266 60.116 11.5142 62.9728 12.8125 65.1985C14.1109 67.4243 16.9677 68.1761 19.1934 66.8777C21.4192 65.5794 22.171 62.7226 20.8726 60.4968ZM45.4577 45.1428L16.4018 62.0921L17.2834 63.6033L46.3392 46.6541L45.4577 45.1428Z" fill="#6CB616"/>
<path d="M16.6655 45.8984C16.6655 43.3217 14.5767 41.2328 11.9999 41.2328C9.4232 41.2328 7.33434 43.3217 7.33434 45.8984C7.33434 48.4752 9.4232 50.564 11.9999 50.564C14.5767 50.564 16.6655 48.4752 16.6655 45.8984ZM45.8984 45.0236H11.9999V46.7732H45.8984V45.0236Z" fill="#6CB616"/>
<path d="M20.8726 31.3C22.171 29.0743 21.4192 26.2175 19.1934 24.9191C16.9677 23.6208 14.1109 24.3726 12.8125 26.5983C11.5142 28.8241 12.266 31.6809 14.4917 32.9792C16.7175 34.2776 19.5743 33.5258 20.8726 31.3ZM46.3392 45.1428L17.2834 28.1936L16.4018 29.7048L45.4577 46.6541L46.3392 45.1428Z" fill="#85BC14"/>
<path d="M31.3 20.8726C33.5258 19.5743 34.2776 16.7175 32.9792 14.4917C31.6809 12.266 28.8241 11.5142 26.5983 12.8125C24.3726 14.1109 23.6208 16.9677 24.9191 19.1934C26.2175 21.4192 29.0743 22.171 31.3 20.8726ZM46.6541 45.4577L29.7048 16.4018L28.1936 17.2834L45.1428 46.3392L46.6541 45.4577Z" fill="#A0BF13"/>
</g>
<circle cx="46.4454" cy="46.4454" r="12.5752" fill="#F4CE0B"/>
</svg>
