<svg width="626" height="353" viewBox="0 0 626 353" fill="none" xmlns="http://www.w3.org/2000/svg">
<rect x="348" y="293" width="42" height="42" fill="#F4CE0B"/>
<path fill-rule="evenodd" clip-rule="evenodd" d="M358.795 290H358.875H379.875H379.955C381.987 290 383.627 290 384.954 290.108C386.32 290.22 387.52 290.456 388.631 291.022C390.395 291.921 391.829 293.355 392.728 295.119C393.294 296.229 393.53 297.43 393.642 298.796C393.75 300.124 393.75 301.763 393.75 303.795V303.875V324.875V324.955C393.75 326.987 393.75 328.627 393.642 329.954C393.53 331.32 393.294 332.52 392.728 333.631C391.829 335.395 390.395 336.829 388.631 337.728C387.52 338.294 386.32 338.53 384.954 338.642C383.627 338.75 381.987 338.75 379.955 338.75H379.875H358.875H358.795C356.763 338.75 355.124 338.75 353.796 338.642C352.43 338.53 351.229 338.294 350.119 337.728C348.355 336.829 346.921 335.395 346.022 333.631C345.456 332.52 345.22 331.32 345.108 329.954C345 328.627 345 326.987 345 324.955V324.875V303.875V303.795C345 301.763 345 300.124 345.108 298.796C345.22 297.43 345.456 296.229 346.022 295.119C346.921 293.355 348.355 291.921 350.119 291.022C351.229 290.456 352.43 290.22 353.796 290.108C355.124 290 356.763 290 358.795 290ZM354.102 293.846C352.967 293.939 352.315 294.112 351.821 294.363C350.763 294.902 349.902 295.763 349.363 296.821C349.112 297.315 348.939 297.967 348.846 299.102C348.751 300.258 348.75 301.744 348.75 303.875V324.875C348.75 327.006 348.751 328.492 348.846 329.648C348.939 330.783 349.112 331.435 349.363 331.929C349.902 332.987 350.763 333.848 351.821 334.387C352.315 334.639 352.967 334.811 354.102 334.904C355.258 334.998 356.744 335 358.875 335H379.875C382.006 335 383.492 334.998 384.648 334.904C385.783 334.811 386.435 334.639 386.929 334.387C387.987 333.848 388.848 332.987 389.387 331.929C389.639 331.435 389.811 330.783 389.904 329.648C389.998 328.492 390 327.006 390 324.875V303.875C390 301.744 389.998 300.258 389.904 299.102C389.811 297.967 389.639 297.315 389.387 296.821C388.848 295.763 387.987 294.902 386.929 294.363C386.435 294.112 385.783 293.939 384.648 293.846C383.492 293.751 382.006 293.75 379.875 293.75H358.875C356.744 293.75 355.258 293.751 354.102 293.846ZM376.57 316.25C376.386 316.742 376.045 317.298 375.371 318.091C374.62 318.976 373.571 320.028 372.064 321.535L368.049 325.549C367.317 326.281 367.317 327.469 368.049 328.201C368.781 328.933 369.969 328.933 370.701 328.201L374.715 324.186L374.772 324.129C376.209 322.693 377.368 321.534 378.23 320.518C379.117 319.473 379.799 318.458 380.184 317.272C380.796 315.389 380.796 313.361 380.184 311.478C379.799 310.292 379.117 309.277 378.23 308.232C377.368 307.217 376.209 306.058 374.772 304.621L374.715 304.564L370.701 300.549C369.969 299.817 368.781 299.817 368.049 300.549C367.317 301.281 367.317 302.469 368.049 303.201L372.064 307.216C373.571 308.722 374.62 309.774 375.371 310.659C376.045 311.452 376.386 312.008 376.57 312.5H356.875C355.839 312.5 355 313.339 355 314.375C355 315.411 355.839 316.25 356.875 316.25H376.57Z" fill="#1C274C"/>
<path fill-rule="evenodd" clip-rule="evenodd" d="M336.75 303.795V303.875V324.875V324.955C336.75 326.987 336.75 328.627 336.642 329.954C336.53 331.32 336.294 332.52 335.728 333.631C334.829 335.395 333.395 336.829 331.631 337.728C330.521 338.294 329.32 338.53 327.954 338.642C326.626 338.75 324.987 338.75 322.955 338.75H322.875H301.875H301.795C299.763 338.75 298.123 338.75 296.796 338.642C295.43 338.53 294.23 338.294 293.119 337.728C291.355 336.829 289.921 335.395 289.022 333.631C288.456 332.52 288.22 331.32 288.108 329.954C288 328.627 288 326.987 288 324.955V324.875V303.875V303.795C288 301.763 288 300.124 288.108 298.796C288.22 297.43 288.456 296.229 289.022 295.119C289.921 293.355 291.355 291.921 293.119 291.022C294.23 290.456 295.43 290.22 296.796 290.108C298.123 290 299.763 290 301.795 290H301.875H322.875H322.955C324.987 290 326.626 290 327.954 290.108C329.32 290.22 330.521 290.456 331.631 291.022C333.395 291.921 334.829 293.355 335.728 295.119C336.294 296.229 336.53 297.43 336.642 298.796C336.75 300.124 336.75 301.763 336.75 303.795ZM332.904 299.102C332.811 297.967 332.638 297.315 332.387 296.821C331.848 295.763 330.987 294.902 329.929 294.363C329.435 294.112 328.783 293.939 327.648 293.846C326.492 293.751 325.006 293.75 322.875 293.75H301.875C299.744 293.75 298.258 293.751 297.102 293.846C295.967 293.939 295.315 294.112 294.821 294.363C293.763 294.902 292.902 295.763 292.363 296.821C292.111 297.315 291.939 297.967 291.846 299.102C291.752 300.258 291.75 301.744 291.75 303.875V324.875C291.75 327.006 291.752 328.492 291.846 329.648C291.939 330.783 292.111 331.435 292.363 331.929C292.902 332.987 293.763 333.848 294.821 334.387C295.315 334.639 295.967 334.811 297.102 334.904C298.258 334.998 299.744 335 301.875 335H322.875C325.006 335 326.492 334.998 327.648 334.904C328.783 334.811 329.435 334.639 329.929 334.387C330.987 333.848 331.848 332.987 332.387 331.929C332.638 331.435 332.811 330.783 332.904 329.648C332.999 328.492 333 327.006 333 324.875V303.875C333 301.744 332.999 300.258 332.904 299.102ZM310.5 321.57C310.008 321.386 309.452 321.045 308.659 320.371C307.774 319.62 306.722 318.571 305.215 317.064L301.201 313.049C300.469 312.317 299.281 312.317 298.549 313.049C297.817 313.781 297.817 314.969 298.549 315.701L302.564 319.715L302.621 319.772C304.057 321.209 305.216 322.368 306.232 323.23C307.277 324.117 308.292 324.799 309.478 325.184C311.361 325.796 313.389 325.796 315.272 325.184C316.458 324.799 317.473 324.117 318.518 323.23C319.533 322.368 320.692 321.209 322.129 319.772L322.186 319.715L326.201 315.701C326.933 314.969 326.933 313.781 326.201 313.049C325.469 312.317 324.281 312.317 323.549 313.049L319.534 317.064C318.028 318.571 316.976 319.62 316.091 320.371C315.298 321.045 314.742 321.386 314.25 321.57V301.875C314.25 300.839 313.411 300 312.375 300C311.339 300 310.5 300.839 310.5 301.875V321.57Z" fill="#1C274C"/>
<path fill-rule="evenodd" clip-rule="evenodd" d="M336.75 268.955V268.875V247.875V247.795C336.75 245.763 336.75 244.123 336.642 242.796C336.53 241.43 336.294 240.23 335.728 239.119C334.829 237.355 333.395 235.921 331.631 235.022C330.521 234.456 329.32 234.22 327.954 234.108C326.626 234 324.987 234 322.955 234H322.875H301.875H301.795C299.763 234 298.123 234 296.796 234.108C295.43 234.22 294.23 234.456 293.119 235.022C291.355 235.921 289.921 237.355 289.022 239.119C288.456 240.23 288.22 241.43 288.108 242.796C288 244.123 288 245.763 288 247.795V247.875V268.875V268.955C288 270.987 288 272.626 288.108 273.954C288.22 275.32 288.456 276.521 289.022 277.631C289.921 279.395 291.355 280.829 293.119 281.728C294.23 282.294 295.43 282.53 296.796 282.642C298.123 282.75 299.763 282.75 301.795 282.75H301.875H322.875H322.955C324.987 282.75 326.626 282.75 327.954 282.642C329.32 282.53 330.521 282.294 331.631 281.728C333.395 280.829 334.829 279.395 335.728 277.631C336.294 276.521 336.53 275.32 336.642 273.954C336.75 272.626 336.75 270.987 336.75 268.955ZM332.904 273.648C332.811 274.783 332.638 275.435 332.387 275.929C331.848 276.987 330.987 277.848 329.929 278.387C329.435 278.638 328.783 278.811 327.648 278.904C326.492 278.999 325.006 279 322.875 279H301.875C299.744 279 298.258 278.999 297.102 278.904C295.967 278.811 295.315 278.638 294.821 278.387C293.763 277.848 292.902 276.987 292.363 275.929C292.111 275.435 291.939 274.783 291.846 273.648C291.752 272.492 291.75 271.006 291.75 268.875V247.875C291.75 245.744 291.752 244.258 291.846 243.102C291.939 241.967 292.111 241.315 292.363 240.821C292.902 239.763 293.763 238.902 294.821 238.363C295.315 238.111 295.967 237.939 297.102 237.846C298.258 237.752 299.744 237.75 301.875 237.75H322.875C325.006 237.75 326.492 237.752 327.648 237.846C328.783 237.939 329.435 238.111 329.929 238.363C330.987 238.902 331.848 239.763 332.387 240.821C332.638 241.315 332.811 241.967 332.904 243.102C332.999 244.258 333 245.744 333 247.875V268.875C333 271.006 332.999 272.492 332.904 273.648ZM310.5 251.18C310.008 251.364 309.452 251.705 308.659 252.379C307.774 253.13 306.722 254.179 305.215 255.686L301.201 259.701C300.469 260.433 299.281 260.433 298.549 259.701C297.817 258.969 297.817 257.781 298.549 257.049L302.564 253.035L302.621 252.978C304.057 251.541 305.216 250.382 306.232 249.52C307.277 248.633 308.292 247.951 309.478 247.566C311.361 246.954 313.389 246.954 315.272 247.566C316.458 247.951 317.473 248.633 318.518 249.52C319.533 250.382 320.692 251.541 322.129 252.978L322.186 253.035L326.201 257.049C326.933 257.781 326.933 258.969 326.201 259.701C325.469 260.433 324.281 260.433 323.549 259.701L319.534 255.686C318.028 254.179 316.976 253.13 316.091 252.379C315.298 251.705 314.742 251.364 314.25 251.18V270.875C314.25 271.911 313.411 272.75 312.375 272.75C311.339 272.75 310.5 271.911 310.5 270.875V251.18Z" fill="#1C274C"/>
<rect x="234" y="293" width="42" height="42" fill="#F4CE0B"/>
<path fill-rule="evenodd" clip-rule="evenodd" d="M265.955 290H265.875H244.875H244.795C242.763 290 241.123 290 239.796 290.108C238.43 290.22 237.23 290.456 236.119 291.022C234.355 291.921 232.921 293.355 232.022 295.119C231.456 296.229 231.22 297.43 231.108 298.796C231 300.124 231 301.763 231 303.795V303.875V324.875V324.955C231 326.987 231 328.627 231.108 329.954C231.22 331.32 231.456 332.52 232.022 333.631C232.921 335.395 234.355 336.829 236.119 337.728C237.23 338.294 238.43 338.53 239.796 338.642C241.123 338.75 242.763 338.75 244.795 338.75H244.875H265.875H265.955C267.987 338.75 269.626 338.75 270.954 338.642C272.32 338.53 273.521 338.294 274.631 337.728C276.395 336.829 277.829 335.395 278.728 333.631C279.294 332.52 279.53 331.32 279.642 329.954C279.75 328.627 279.75 326.987 279.75 324.955V324.875V303.875V303.795C279.75 301.763 279.75 300.124 279.642 298.796C279.53 297.43 279.294 296.229 278.728 295.119C277.829 293.355 276.395 291.921 274.631 291.022C273.521 290.456 272.32 290.22 270.954 290.108C269.626 290 267.987 290 265.955 290ZM270.648 293.846C271.783 293.939 272.435 294.112 272.929 294.363C273.987 294.902 274.848 295.763 275.387 296.821C275.638 297.315 275.811 297.967 275.904 299.102C275.999 300.258 276 301.744 276 303.875V324.875C276 327.006 275.999 328.492 275.904 329.648C275.811 330.783 275.638 331.435 275.387 331.929C274.848 332.987 273.987 333.848 272.929 334.387C272.435 334.639 271.783 334.811 270.648 334.904C269.492 334.998 268.006 335 265.875 335H244.875C242.744 335 241.258 334.998 240.102 334.904C238.967 334.811 238.315 334.639 237.821 334.387C236.763 333.848 235.902 332.987 235.363 331.929C235.111 331.435 234.939 330.783 234.846 329.648C234.752 328.492 234.75 327.006 234.75 324.875V303.875C234.75 301.744 234.752 300.258 234.846 299.102C234.939 297.967 235.111 297.315 235.363 296.821C235.902 295.763 236.763 294.902 237.821 294.363C238.315 294.112 238.967 293.939 240.102 293.846C241.258 293.751 242.744 293.75 244.875 293.75H265.875C268.006 293.75 269.492 293.751 270.648 293.846ZM248.18 316.25C248.364 316.742 248.705 317.298 249.379 318.091C250.13 318.976 251.179 320.028 252.686 321.535L256.701 325.549C257.433 326.281 257.433 327.469 256.701 328.201C255.969 328.933 254.781 328.933 254.049 328.201L250.035 324.186L249.978 324.129C248.541 322.693 247.382 321.534 246.52 320.518C245.633 319.473 244.951 318.458 244.566 317.272C243.954 315.389 243.954 313.361 244.566 311.478C244.951 310.292 245.633 309.277 246.52 308.232C247.382 307.217 248.541 306.058 249.978 304.621L250.035 304.564L254.049 300.549C254.781 299.817 255.969 299.817 256.701 300.549C257.433 301.281 257.433 302.469 256.701 303.201L252.686 307.216C251.179 308.722 250.13 309.774 249.379 310.659C248.705 311.452 248.364 312.008 248.18 312.5H267.875C268.911 312.5 269.75 313.339 269.75 314.375C269.75 315.411 268.911 316.25 267.875 316.25H248.18Z" fill="#1C274C"/>
<path d="M510.5 206.9C518.5 209.9 542.783 218.9 562 218.9C581 218.9 606.167 212.067 615.5 208.4" stroke="#1C274C" stroke-width="3.8"/>
<path d="M512.5 206.4V238.4C520.5 241.4 542.1 246.8 561.3 247.6C580.5 248.4 605.167 242.067 614.5 238.4V210.4" stroke="#1C274C" stroke-width="3.8"/>
<path d="M513.382 211.4C507.136 201.933 503.5 190.591 503.5 178.4C503.5 145.263 530.363 118.4 563.5 118.4C596.637 118.4 623.5 145.263 623.5 178.4C623.5 190.591 619.864 201.933 613.618 211.4" stroke="#1C274C" stroke-width="3.5"/>
<path d="M563.617 119.8C563.617 113.4 563.069 107.4 559.869 103C556.669 98.5998 552.669 96.9998 550.269 95.7998" stroke="#1C274C" stroke-width="3.04"/>
<circle cx="544.268" cy="92.2" r="7.8" stroke="#1C274C" stroke-width="2.8"/>
<path d="M512 237.9C504.667 235.9 491.1 237.4 481.5 245.4C469.5 255.4 457 277.9 436.5 274.9V236.9" stroke="#1C274C" stroke-width="3.8"/>
<path d="M511.5 208.9C502.833 207.067 485.921 207.722 477.5 212.4C464 219.9 453.5 238.9 435 238.9" stroke="#1C274C" stroke-width="3.8"/>
<path d="M614.5 238.4C615.667 247.567 616.4 272.8 608 290.4C599.6 308 569.167 333.4 555 343.9C544.833 334.067 520.6 314.6 505 315.4C485.5 316.4 472.5 300.9 467 290.4C462.6 282 461.5 271.233 461.5 266.9" stroke="#1C274C" stroke-width="3.8"/>
<ellipse cx="605.5" cy="173.4" rx="3" ry="6" fill="#1C274C"/>
<path d="M115 212.9C107 215.9 82.7167 224.9 63.5 224.9C44.5 224.9 19.3333 218.067 10 214.4" stroke="#1C274C" stroke-width="3.8"/>
<path d="M113 212.4V244.4C105 247.4 83.4 252.8 64.2 253.6C45 254.4 20.3333 248.067 11 244.4V216.4" stroke="#1C274C" stroke-width="3.8"/>
<path d="M112.118 217.4C118.364 207.933 122 196.591 122 184.4C122 151.263 95.1371 124.4 62 124.4C28.8629 124.4 2 151.263 2 184.4C2 196.591 5.63577 207.933 11.8821 217.4" stroke="#1C274C" stroke-width="3.5"/>
<path d="M61.883 125.8C61.883 119.4 62.4314 113.4 65.6314 109C68.8314 104.6 72.8314 103 75.2314 101.8" stroke="#1C274C" stroke-width="3.04"/>
<circle cx="9.2" cy="9.2" r="7.8" transform="matrix(-1 0 0 1 90.4316 89)" stroke="#1C274C" stroke-width="2.8"/>
<path d="M113.5 243.9C120.833 241.9 134.4 243.4 144 251.4C156 261.4 168.5 283.9 189 280.9V242.9" stroke="#1C274C" stroke-width="3.8"/>
<path d="M114 214.9C122.667 213.067 139.579 213.722 148 218.4C161.5 225.9 172 244.9 190.5 244.9" stroke="#1C274C" stroke-width="3.8"/>
<path d="M11 244.4C9.83333 253.567 9.1 278.8 17.5 296.4C25.9 314 56.3333 339.4 70.5 349.9C80.6667 340.067 104.9 320.6 120.5 321.4C140 322.4 153 306.9 158.5 296.4C162.9 288 164 277.233 164 272.9" stroke="#1C274C" stroke-width="3.8"/>
<ellipse cx="3" cy="6" rx="3" ry="6" transform="matrix(-1 0 0 1 23 173.4)" fill="#1C274C"/>
<path d="M146 184L163.5 194.104V173.896L146 184ZM157.125 185.75H164.542V182.25H157.125V185.75ZM171.958 185.75H179.375V182.25H171.958V185.75ZM186.792 185.75H194.208V182.25H186.792V185.75ZM201.625 185.75H209.042V182.25H201.625V185.75ZM216.458 185.75H223.875V182.25H216.458V185.75ZM231.292 185.75H235V182.25H231.292V185.75ZM235 185.75C236.221 185.75 237.412 185.87 238.564 186.097L239.243 182.664C237.869 182.392 236.45 182.25 235 182.25V185.75ZM245.139 188.823C247.13 190.156 248.844 191.87 250.177 193.861L253.086 191.914C251.498 189.543 249.457 187.502 247.086 185.914L245.139 188.823ZM252.903 200.436C253.13 201.588 253.25 202.779 253.25 204H256.75C256.75 202.55 256.608 201.131 256.336 199.757L252.903 200.436ZM253.25 204V207.583H256.75V204H253.25ZM253.25 214.75V221.917H256.75V214.75H253.25ZM253.25 229.083V236.25H256.75V229.083H253.25ZM253.25 243.417V250.583H256.75V243.417H253.25ZM253.25 257.75V264.917H256.75V257.75H253.25ZM253.25 272.083V279.25H256.75V272.083H253.25ZM253.25 286.417V290H256.75V286.417H253.25Z" fill="#1C274C"/>
<path d="M478 186L460.5 196.104V175.896L478 186ZM466.875 187.75H459.458V184.25H466.875V187.75ZM452.042 187.75H444.625V184.25H452.042V187.75ZM437.208 187.75H429.792V184.25H437.208V187.75ZM422.375 187.75H414.958V184.25H422.375V187.75ZM407.542 187.75H400.125V184.25H407.542V187.75ZM392.708 187.75H389V184.25H392.708V187.75ZM389 187.75C387.779 187.75 386.588 187.87 385.436 188.097L384.757 184.664C386.131 184.392 387.55 184.25 389 184.25V187.75ZM378.861 190.823C376.87 192.156 375.156 193.87 373.823 195.861L370.914 193.914C372.502 191.543 374.543 189.502 376.914 187.914L378.861 190.823ZM371.097 202.436C370.87 203.588 370.75 204.779 370.75 206H367.25C367.25 204.55 367.392 203.131 367.664 201.757L371.097 202.436ZM370.75 206V209.583H367.25V206H370.75ZM370.75 216.75V223.917H367.25V216.75H370.75ZM370.75 231.083V238.25H367.25V231.083H370.75ZM370.75 245.417V252.583H367.25V245.417H370.75ZM370.75 259.75V266.917H367.25V259.75H370.75ZM370.75 274.083V281.25H367.25V274.083H370.75ZM370.75 288.417V292H367.25V288.417H370.75Z" fill="#1C274C"/>
<path d="M188.824 173.78L189.004 174.56C187.444 175.68 185.744 176.24 183.904 176.24C182.078 176.24 180.584 175.613 179.424 174.36C178.278 173.107 177.704 171.327 177.704 169.02C177.704 166.7 178.344 164.913 179.624 163.66C180.904 162.393 182.524 161.76 184.484 161.76C186.164 161.76 187.638 162.16 188.904 162.96L188.384 165.94C187.784 165.94 187.484 165.847 187.484 165.66V163.44C186.538 163.107 185.538 162.94 184.484 162.94C183.444 162.94 182.444 163.1 181.484 163.42C180.858 163.887 180.364 164.613 180.004 165.6C179.644 166.587 179.464 167.707 179.464 168.96C179.464 170.973 179.898 172.513 180.764 173.58C181.644 174.647 182.778 175.18 184.164 175.18C184.764 175.18 185.378 175.08 186.004 174.88C186.644 174.667 187.184 174.393 187.624 174.06L187.284 169.88L183.584 169.66V168.8H188.824V173.78ZM195.465 166.64C196.745 166.64 197.792 167.047 198.605 167.86C199.432 168.66 199.845 169.833 199.845 171.38C199.845 172.927 199.425 174.127 198.585 174.98C197.758 175.82 196.685 176.24 195.365 176.24C194.045 176.24 192.985 175.827 192.185 175C191.398 174.16 191.005 172.98 191.005 171.46C191.005 169.927 191.432 168.74 192.285 167.9C193.138 167.06 194.198 166.64 195.465 166.64ZM192.565 171.38C192.565 172.673 192.825 173.66 193.345 174.34C193.878 175.02 194.572 175.36 195.425 175.36C196.278 175.36 196.965 175.02 197.485 174.34C198.018 173.66 198.285 172.687 198.285 171.42C198.285 170.153 198.018 169.187 197.485 168.52C196.952 167.853 196.312 167.52 195.565 167.52C194.818 167.52 194.212 167.62 193.745 167.82C192.958 168.46 192.565 169.647 192.565 171.38ZM208.061 163.04L206.341 162.6C206.341 162.2 206.441 162 206.641 162C206.881 162 207.628 162.027 208.881 162.08L210.941 162C211.141 162 211.241 162.2 211.241 162.6L209.521 163.04L209.621 169L209.521 174.9H214.221L214.741 173.02C214.795 172.833 215.075 172.74 215.581 172.74L215.421 175.76C215.408 175.92 215.215 176 214.841 176L208.881 175.84L206.641 176C206.441 176 206.341 175.8 206.341 175.4L208.061 174.96L207.961 169L208.061 163.04ZM221.371 166.64C222.331 166.64 223.084 167.033 223.631 167.82C224.191 168.593 224.471 169.54 224.471 170.66V171.1C222.791 171.38 221.111 171.52 219.431 171.52H218.131V171.8C218.131 172.893 218.411 173.747 218.971 174.36C219.531 174.973 220.231 175.28 221.071 175.28C221.924 175.28 222.751 175.113 223.551 174.78C223.724 174.94 223.838 175.14 223.891 175.38C223.011 175.953 221.971 176.24 220.771 176.24C219.571 176.24 218.571 175.86 217.771 175.1C216.984 174.34 216.591 173.207 216.591 171.7C216.591 170.18 217.024 168.96 217.891 168.04C218.758 167.107 219.918 166.64 221.371 166.64ZM219.851 167.7C218.944 168.313 218.391 169.333 218.191 170.76C219.738 170.733 221.271 170.593 222.791 170.34C222.831 170.1 222.851 169.873 222.851 169.66C222.851 169.02 222.678 168.52 222.331 168.16C221.984 167.787 221.478 167.6 220.811 167.6C220.451 167.6 220.131 167.633 219.851 167.7ZM229.566 160.76C229.993 160.76 230.519 160.847 231.146 161.02C231.773 161.193 232.239 161.367 232.546 161.54C232.546 161.82 232.473 162.1 232.326 162.38C232.193 162.66 232.066 162.8 231.946 162.8C231.639 162.8 231.346 162.707 231.066 162.52C230.799 162.32 230.519 162.12 230.226 161.92C229.946 161.72 229.759 161.587 229.666 161.52C229.159 161.96 228.906 163.347 228.906 165.68V166.86H231.286C231.286 167.5 231.193 167.82 231.006 167.82H228.906V174.96L231.146 175.4C231.146 175.8 231.053 176 230.866 176L228.226 175.92L226.046 176C225.859 176 225.766 175.8 225.766 175.4L227.486 174.96V167.82H226.266C226.079 167.82 225.986 167.56 225.986 167.04L227.486 166.8C227.486 165.28 227.573 164.147 227.746 163.4C227.919 162.64 228.153 162.067 228.446 161.68C228.739 161.293 229.113 160.987 229.566 160.76ZM237.703 175.28C236.93 175.92 236.123 176.24 235.283 176.24C234.203 176.24 233.663 175.607 233.663 174.34V167.84H232.423C232.237 167.84 232.143 167.58 232.143 167.06L233.803 166.78L234.323 164.54L235.083 164.3V166.88H237.443C237.443 167.52 237.35 167.84 237.163 167.84H235.083V174.22C235.083 174.9 235.343 175.24 235.863 175.24C236.25 175.24 236.75 175.053 237.363 174.68C237.537 174.84 237.65 175.04 237.703 175.28Z" fill="#1C274C"/>
<path d="M152.971 43C153.184 43 153.291 43.2 153.291 43.6L151.391 44.04V52.7C151.391 53.7533 151.697 54.5933 152.311 55.22C152.937 55.8333 153.884 56.14 155.151 56.14C156.431 56.14 157.397 55.8067 158.051 55.14C158.717 54.4733 159.051 53.6533 159.051 52.68V44.04L157.151 43.6C157.151 43.2 157.257 43 157.471 43L159.651 43.08L161.211 43C161.411 43 161.511 43.2 161.511 43.6L160.211 44.04V52.64C160.211 54.0267 159.757 55.14 158.851 55.98C157.957 56.82 156.724 57.24 155.151 57.24C151.604 57.24 149.831 55.7067 149.831 52.64V44.04L148.351 43.62C148.351 43.2067 148.451 43 148.651 43C148.744 43 149.417 43.0267 150.671 43.08L152.971 43ZM168.139 48.88C167.712 48.64 167.165 48.52 166.499 48.52C165.832 48.52 165.265 48.7467 164.799 49.2C164.745 49.36 164.719 49.58 164.719 49.86C164.719 50.34 164.965 50.72 165.459 51L167.959 52.44C169.092 53.1067 169.659 53.9067 169.659 54.84C169.659 55.6133 169.359 56.2067 168.759 56.62C168.159 57.0333 167.339 57.24 166.299 57.24C165.272 57.24 164.245 57.0667 163.219 56.72C163.219 56.52 163.285 56.0333 163.419 55.26C163.552 54.4867 163.625 54.1 163.639 54.1C164.132 54.1 164.379 54.1933 164.379 54.38V55.82C164.912 56.2067 165.525 56.4 166.219 56.4C167.592 56.4 168.279 55.94 168.279 55.02C168.279 54.5133 167.945 54.0667 167.279 53.68L164.959 52.34C164.012 51.7933 163.539 51.04 163.539 50.08C163.539 49.4 163.819 48.8267 164.379 48.36C164.939 47.88 165.692 47.6467 166.639 47.66C167.599 47.66 168.485 47.8133 169.299 48.12C169.299 48.3067 169.232 48.7467 169.099 49.44C168.965 50.1333 168.892 50.48 168.879 50.48C168.385 50.48 168.139 50.3867 168.139 50.2V48.88ZM176.197 47.64C177.157 47.64 177.911 48.0333 178.457 48.82C179.017 49.5933 179.297 50.54 179.297 51.66V52.1C177.617 52.38 175.937 52.52 174.257 52.52H172.957V52.8C172.957 53.8933 173.237 54.7467 173.797 55.36C174.357 55.9733 175.057 56.28 175.897 56.28C176.751 56.28 177.577 56.1133 178.377 55.78C178.551 55.94 178.664 56.14 178.717 56.38C177.837 56.9533 176.797 57.24 175.597 57.24C174.397 57.24 173.397 56.86 172.597 56.1C171.811 55.34 171.417 54.2067 171.417 52.7C171.417 51.18 171.851 49.96 172.717 49.04C173.584 48.1067 174.744 47.64 176.197 47.64ZM174.677 48.7C173.771 49.3133 173.217 50.3333 173.017 51.76C174.564 51.7333 176.097 51.5933 177.617 51.34C177.657 51.1 177.677 50.8733 177.677 50.66C177.677 50.02 177.504 49.52 177.157 49.16C176.811 48.7867 176.304 48.6 175.637 48.6C175.277 48.6 174.957 48.6333 174.677 48.7ZM187.399 44.04L185.679 43.6C185.679 43.2 185.779 43 185.979 43C186.219 43 186.966 43.0267 188.219 43.08L190.279 43C190.479 43 190.579 43.2 190.579 43.6L188.859 44.04L188.959 50L188.859 55.9H193.559L194.079 54.02C194.133 53.8333 194.413 53.74 194.919 53.74L194.759 56.76C194.746 56.92 194.553 57 194.179 57L188.219 56.84L185.979 57C185.779 57 185.679 56.8 185.679 56.4L187.399 55.96L187.299 50L187.399 44.04ZM200.709 47.64C201.669 47.64 202.422 48.0333 202.969 48.82C203.529 49.5933 203.809 50.54 203.809 51.66V52.1C202.129 52.38 200.449 52.52 198.769 52.52H197.469V52.8C197.469 53.8933 197.749 54.7467 198.309 55.36C198.869 55.9733 199.569 56.28 200.409 56.28C201.262 56.28 202.089 56.1133 202.889 55.78C203.062 55.94 203.176 56.14 203.229 56.38C202.349 56.9533 201.309 57.24 200.109 57.24C198.909 57.24 197.909 56.86 197.109 56.1C196.322 55.34 195.929 54.2067 195.929 52.7C195.929 51.18 196.362 49.96 197.229 49.04C198.096 48.1067 199.256 47.64 200.709 47.64ZM199.189 48.7C198.282 49.3133 197.729 50.3333 197.529 51.76C199.076 51.7333 200.609 51.5933 202.129 51.34C202.169 51.1 202.189 50.8733 202.189 50.66C202.189 50.02 202.016 49.52 201.669 49.16C201.322 48.7867 200.816 48.6 200.149 48.6C199.789 48.6 199.469 48.6333 199.189 48.7ZM208.904 41.76C209.331 41.76 209.857 41.8467 210.484 42.02C211.111 42.1933 211.577 42.3667 211.884 42.54C211.884 42.82 211.811 43.1 211.664 43.38C211.531 43.66 211.404 43.8 211.284 43.8C210.977 43.8 210.684 43.7067 210.404 43.52C210.137 43.32 209.857 43.12 209.564 42.92C209.284 42.72 209.097 42.5867 209.004 42.52C208.497 42.96 208.244 44.3467 208.244 46.68V47.86H210.624C210.624 48.5 210.531 48.82 210.344 48.82H208.244V55.96L210.484 56.4C210.484 56.8 210.391 57 210.204 57L207.564 56.92L205.384 57C205.197 57 205.104 56.8 205.104 56.4L206.824 55.96V48.82H205.604C205.417 48.82 205.324 48.56 205.324 48.04L206.824 47.8C206.824 46.28 206.911 45.1467 207.084 44.4C207.257 43.64 207.491 43.0667 207.784 42.68C208.077 42.2933 208.451 41.9867 208.904 41.76ZM217.041 56.28C216.268 56.92 215.461 57.24 214.621 57.24C213.541 57.24 213.001 56.6067 213.001 55.34V48.84H211.761C211.575 48.84 211.481 48.58 211.481 48.06L213.141 47.78L213.661 45.54L214.421 45.3V47.88H216.781C216.781 48.52 216.688 48.84 216.501 48.84H214.421V55.22C214.421 55.9 214.681 56.24 215.201 56.24C215.588 56.24 216.088 56.0533 216.701 55.68C216.875 55.84 216.988 56.04 217.041 56.28ZM221.541 58L228.201 42H229.281L222.621 58H221.541ZM236.071 44.04L234.391 43.6C234.391 43.2 234.491 43 234.691 43C234.811 43 235.497 43.0267 236.751 43.08C238.764 43.0267 239.804 43 239.871 43C241.084 43 242.051 43.3733 242.771 44.12C243.491 44.8667 243.851 45.7733 243.851 46.84C243.851 47.56 243.597 48.26 243.091 48.94C242.584 49.6067 241.877 50.0933 240.971 50.4C241.304 50.6 241.624 50.96 241.931 51.48L244.491 55.96L246.091 56.4C246.091 56.8 245.991 57 245.791 57H243.171L240.291 51.56C240.051 51.1333 239.817 50.84 239.591 50.68L237.711 50.98L237.551 55.96L239.571 56.4C239.571 56.8 239.471 57 239.271 57C238.831 57 237.991 56.9733 236.751 56.92L234.691 57C234.491 57 234.391 56.8 234.391 56.4L236.071 55.96V44.04ZM239.351 43.84L237.551 44.04L237.731 49.84L238.991 49.92C240.124 49.92 240.977 49.6133 241.551 49C242.124 48.3867 242.411 47.6667 242.411 46.84C242.411 46.0133 242.144 45.3067 241.611 44.72C241.091 44.1333 240.337 43.84 239.351 43.84ZM249.245 55.96L250.965 56.4C250.965 56.8 250.871 57 250.685 57L248.545 56.92L246.385 57C246.198 57 246.105 56.8 246.105 56.4L247.825 55.96V48.8H246.405C246.218 48.8 246.125 48.5533 246.125 48.06C246.125 48.0333 246.565 47.96 247.445 47.84C248.338 47.7067 248.831 47.64 248.925 47.64C249.138 47.76 249.245 47.9467 249.245 48.2V55.96ZM248.745 43.46C249.198 43.46 249.425 43.8333 249.425 44.58L249.285 45.7C248.871 45.82 248.531 45.88 248.265 45.88C247.798 45.88 247.565 45.5133 247.565 44.78C247.565 44.4467 247.618 44.0533 247.725 43.6C248.151 43.5067 248.491 43.46 248.745 43.46ZM259.439 50.8C259.439 51.9067 259.099 52.7467 258.419 53.32C257.753 53.8933 256.866 54.18 255.759 54.18C255.426 54.18 255.093 54.1467 254.759 54.08C254.253 54.7867 253.979 55.3733 253.939 55.84H257.199C258.266 55.84 259.093 56.1 259.679 56.62C260.266 57.14 260.559 57.7733 260.559 58.52C260.559 59.4933 260.099 60.3533 259.179 61.1C258.259 61.86 256.986 62.24 255.359 62.24C254.213 62.24 253.326 61.9733 252.699 61.44C252.073 60.92 251.759 60.2133 251.759 59.32C251.759 59.0133 252.353 58.24 253.539 57H252.879C252.719 56.88 252.639 56.6933 252.639 56.44C252.639 55.8667 253.079 54.9867 253.959 53.8C252.866 53.28 252.319 52.3067 252.319 50.88C252.319 49.8533 252.659 49.06 253.339 48.5C254.033 47.9267 254.866 47.64 255.839 47.64C256.826 47.64 257.633 47.86 258.259 48.3C258.819 47.8067 259.426 47.4733 260.079 47.3C260.373 47.6467 260.519 47.9333 260.519 48.16C260.519 48.3867 260.406 48.54 260.179 48.62C259.953 48.6867 259.493 48.7533 258.799 48.82C259.226 49.3533 259.439 50.0133 259.439 50.8ZM257.399 57H254.419L253.159 59.08C253.159 59.7467 253.346 60.2933 253.719 60.72C254.106 61.1467 254.799 61.36 255.799 61.36C256.799 61.36 257.613 61.08 258.239 60.52C258.866 59.96 259.179 59.3333 259.179 58.64C259.179 58.1733 259.019 57.78 258.699 57.46C258.393 57.1533 257.959 57 257.399 57ZM253.779 50.54C253.779 51.38 253.959 52.0667 254.319 52.6C254.693 53.1333 255.199 53.4 255.839 53.4C256.493 53.4 257.013 53.1867 257.399 52.76C257.799 52.32 257.999 51.7067 257.999 50.92C257.999 50.12 257.799 49.5067 257.399 49.08C256.999 48.6533 256.533 48.44 255.999 48.44C255.479 48.44 254.999 48.52 254.559 48.68C254.039 49.08 253.779 49.7 253.779 50.54ZM264.432 55.96L265.872 56.4C265.872 56.8 265.785 57 265.612 57C265.598 57 264.978 56.9733 263.752 56.92L261.552 57C261.378 57 261.292 56.8 261.292 56.4L263.012 55.96V42.92H261.532C261.345 42.92 261.252 42.6733 261.252 42.18C261.252 42.1533 261.705 42.08 262.612 41.96C263.518 41.8267 264.018 41.76 264.112 41.76C264.325 41.88 264.432 42.0667 264.432 42.32L264.372 49.1L264.432 49.14C265.272 48.5533 266.178 48.0933 267.152 47.76C268.178 47.76 268.938 48.0067 269.432 48.5C269.938 48.9933 270.192 49.68 270.192 50.56V55.96L271.912 56.4C271.912 56.8 271.825 57 271.652 57C271.638 57 270.905 56.9733 269.452 56.92L267.592 57C267.418 57 267.332 56.8 267.332 56.4L268.772 55.96V50.62C268.772 49.42 268.205 48.82 267.072 48.82C266.365 48.82 265.612 49.0733 264.812 49.58C264.558 50.2067 264.432 50.72 264.432 51.12V55.96ZM278.174 56.28C277.401 56.92 276.594 57.24 275.754 57.24C274.674 57.24 274.134 56.6067 274.134 55.34V48.84H272.894C272.707 48.84 272.614 48.58 272.614 48.06L274.274 47.78L274.794 45.54L275.554 45.3V47.88H277.914C277.914 48.52 277.821 48.84 277.634 48.84H275.554V55.22C275.554 55.9 275.814 56.24 276.334 56.24C276.721 56.24 277.221 56.0533 277.834 55.68C278.007 55.84 278.121 56.04 278.174 56.28ZM285.753 55.96L287.653 56.4C287.653 56.8 287.553 57 287.353 57C287.313 57 286.573 56.9733 285.133 56.92L283.313 57C283.113 57 283.013 56.8 283.013 56.4L284.513 55.96L289.113 43H290.633L295.273 55.96L296.773 56.4C296.773 56.8 296.673 57 296.473 57C296.313 57 295.653 56.9733 294.493 56.92L292.113 57C291.913 57 291.813 56.8 291.813 56.4L293.613 55.96L292.353 52.42L286.853 52.7L285.753 55.96ZM289.613 44.62L287.253 51.54H292.053L289.613 44.62ZM300.457 49.14C301.337 48.34 302.23 47.8333 303.137 47.62C303.443 47.9667 303.597 48.3733 303.597 48.84C303.597 49.12 302.663 49.32 300.797 49.44C300.543 50.1333 300.417 50.74 300.417 51.26V55.96L302.657 56.4C302.657 56.8 302.563 57 302.377 57L299.737 56.92L297.557 57C297.37 57 297.277 56.8 297.277 56.4L298.997 55.96V49.04H297.557C297.37 49.04 297.277 48.7933 297.277 48.3C297.277 48.2733 297.67 48.2 298.457 48.08C299.257 47.9467 299.703 47.88 299.797 47.88C299.997 47.88 300.19 48.2733 300.377 49.06L300.457 49.14ZM307.781 49.14C308.661 48.34 309.554 47.8333 310.461 47.62C310.767 47.9667 310.921 48.3733 310.921 48.84C310.921 49.12 309.987 49.32 308.121 49.44C307.867 50.1333 307.741 50.74 307.741 51.26V55.96L309.981 56.4C309.981 56.8 309.887 57 309.701 57L307.061 56.92L304.881 57C304.694 57 304.601 56.8 304.601 56.4L306.321 55.96V49.04H304.881C304.694 49.04 304.601 48.7933 304.601 48.3C304.601 48.2733 304.994 48.2 305.781 48.08C306.581 47.9467 307.027 47.88 307.121 47.88C307.321 47.88 307.514 48.2733 307.701 49.06L307.781 49.14ZM316.385 47.64C317.665 47.64 318.712 48.0467 319.525 48.86C320.352 49.66 320.765 50.8333 320.765 52.38C320.765 53.9267 320.345 55.1267 319.505 55.98C318.678 56.82 317.605 57.24 316.285 57.24C314.965 57.24 313.905 56.8267 313.105 56C312.318 55.16 311.925 53.98 311.925 52.46C311.925 50.9267 312.352 49.74 313.205 48.9C314.058 48.06 315.118 47.64 316.385 47.64ZM313.485 52.38C313.485 53.6733 313.745 54.66 314.265 55.34C314.798 56.02 315.492 56.36 316.345 56.36C317.198 56.36 317.885 56.02 318.405 55.34C318.938 54.66 319.205 53.6867 319.205 52.42C319.205 51.1533 318.938 50.1867 318.405 49.52C317.872 48.8533 317.232 48.52 316.485 48.52C315.738 48.52 315.132 48.62 314.665 48.82C313.878 49.46 313.485 50.6467 313.485 52.38ZM325.974 57H324.814L322.314 48.92L321.374 48.48C321.374 48.08 321.468 47.88 321.654 47.88L323.214 47.96L324.674 47.88C324.861 47.88 324.954 48.08 324.954 48.48L323.714 48.88L325.594 55.12L327.694 47.88H328.254L330.434 55.12L332.254 48.88L331.014 48.48C331.014 48.08 331.108 47.88 331.294 47.88L332.654 47.96L333.894 47.88C334.081 47.88 334.174 48.08 334.174 48.48L333.234 48.92L330.814 57H329.674L327.774 50.9L325.974 57ZM347.354 43L348.974 43.08L350.874 43C351.061 43 351.154 43.2 351.154 43.6L349.814 44.04L346.494 49.86C346.894 50.0333 347.268 50.42 347.614 51.02L350.514 55.96L352.114 56.4C352.114 56.8 352.014 57 351.814 57H349.194L345.974 51.1C345.774 50.7133 345.574 50.44 345.374 50.28L343.414 50.52L343.234 55.96L345.254 56.4C345.254 56.8 345.154 57 344.954 57C344.514 57 343.674 56.9733 342.434 56.92L340.374 57C340.174 57 340.074 56.8 340.074 56.4L341.754 55.96V44.04L340.074 43.6C340.074 43.2 340.174 43 340.374 43C340.494 43 341.181 43.0267 342.434 43.08L344.534 43C344.734 43 344.834 43.2 344.834 43.6L343.234 44.04L343.414 49.56H345.694L348.494 44L347.054 43.6C347.054 43.2 347.154 43 347.354 43ZM356.725 47.64C357.685 47.64 358.438 48.0333 358.985 48.82C359.545 49.5933 359.825 50.54 359.825 51.66V52.1C358.145 52.38 356.465 52.52 354.785 52.52H353.485V52.8C353.485 53.8933 353.765 54.7467 354.325 55.36C354.885 55.9733 355.585 56.28 356.425 56.28C357.278 56.28 358.105 56.1133 358.905 55.78C359.078 55.94 359.191 56.14 359.245 56.38C358.365 56.9533 357.325 57.24 356.125 57.24C354.925 57.24 353.925 56.86 353.125 56.1C352.338 55.34 351.945 54.2067 351.945 52.7C351.945 51.18 352.378 49.96 353.245 49.04C354.111 48.1067 355.271 47.64 356.725 47.64ZM355.205 48.7C354.298 49.3133 353.745 50.3333 353.545 51.76C355.091 51.7333 356.625 51.5933 358.145 51.34C358.185 51.1 358.205 50.8733 358.205 50.66C358.205 50.02 358.031 49.52 357.685 49.16C357.338 48.7867 356.831 48.6 356.165 48.6C355.805 48.6 355.485 48.6333 355.205 48.7ZM368.2 48.92L365.24 57L363.04 61.86C362.933 62.1133 362.753 62.24 362.5 62.24C362.246 62.24 361.866 62.1 361.36 61.82L361.92 60.92C362.28 60.3067 362.713 59.5667 363.22 58.7C363.74 57.8467 364.113 57.2333 364.34 56.86L361.26 48.92L360.32 48.48C360.32 48.08 360.413 47.88 360.6 47.88L362.16 47.96L363.62 47.88C363.806 47.88 363.9 48.08 363.9 48.48L362.66 48.88L365.04 55L367.22 48.88L365.98 48.48C365.98 48.08 366.066 47.88 366.24 47.88L367.62 47.96L368.86 47.88C369.046 47.88 369.14 48.08 369.14 48.48L368.2 48.92ZM375.268 48.88C374.841 48.64 374.294 48.52 373.628 48.52C372.961 48.52 372.394 48.7467 371.928 49.2C371.874 49.36 371.848 49.58 371.848 49.86C371.848 50.34 372.094 50.72 372.588 51L375.088 52.44C376.221 53.1067 376.788 53.9067 376.788 54.84C376.788 55.6133 376.488 56.2067 375.888 56.62C375.288 57.0333 374.468 57.24 373.428 57.24C372.401 57.24 371.374 57.0667 370.348 56.72C370.348 56.52 370.414 56.0333 370.548 55.26C370.681 54.4867 370.754 54.1 370.768 54.1C371.261 54.1 371.508 54.1933 371.508 54.38V55.82C372.041 56.2067 372.654 56.4 373.348 56.4C374.721 56.4 375.408 55.94 375.408 55.02C375.408 54.5133 375.074 54.0667 374.408 53.68L372.088 52.34C371.141 51.7933 370.668 51.04 370.668 50.08C370.668 49.4 370.948 48.8267 371.508 48.36C372.068 47.88 372.821 47.6467 373.768 47.66C374.728 47.66 375.614 47.8133 376.428 48.12C376.428 48.3067 376.361 48.7467 376.228 49.44C376.094 50.1333 376.021 50.48 376.008 50.48C375.514 50.48 375.268 50.3867 375.268 50.2V48.88ZM388.213 56.28C387.44 56.92 386.633 57.24 385.793 57.24C384.713 57.24 384.173 56.6067 384.173 55.34V48.84H382.933C382.746 48.84 382.653 48.58 382.653 48.06L384.313 47.78L384.833 45.54L385.593 45.3V47.88H387.953C387.953 48.52 387.86 48.84 387.673 48.84H385.593V55.22C385.593 55.9 385.853 56.24 386.373 56.24C386.76 56.24 387.26 56.0533 387.873 55.68C388.046 55.84 388.16 56.04 388.213 56.28ZM393.865 47.64C395.145 47.64 396.192 48.0467 397.005 48.86C397.832 49.66 398.245 50.8333 398.245 52.38C398.245 53.9267 397.825 55.1267 396.985 55.98C396.159 56.82 395.085 57.24 393.765 57.24C392.445 57.24 391.385 56.8267 390.585 56C389.799 55.16 389.405 53.98 389.405 52.46C389.405 50.9267 389.832 49.74 390.685 48.9C391.539 48.06 392.599 47.64 393.865 47.64ZM390.965 52.38C390.965 53.6733 391.225 54.66 391.745 55.34C392.279 56.02 392.972 56.36 393.825 56.36C394.679 56.36 395.365 56.02 395.885 55.34C396.419 54.66 396.685 53.6867 396.685 52.42C396.685 51.1533 396.419 50.1867 395.885 49.52C395.352 48.8533 394.712 48.52 393.965 48.52C393.219 48.52 392.612 48.62 392.145 48.82C391.359 49.46 390.965 50.6467 390.965 52.38ZM416.062 44.04L413.962 43.6C413.962 43.2 414.068 43 414.282 43L416.702 43.08L418.462 43C418.662 43 418.762 43.2 418.762 43.6L417.262 44.04L417.202 57H416.082L407.482 45.34L407.642 55.96L409.762 56.4C409.762 56.8 409.655 57 409.442 57L407.022 56.92L405.062 57C404.862 57 404.762 56.8 404.762 56.4L406.402 55.96V44.06L404.762 43.62C404.762 43.2067 404.848 43 405.022 43C405.208 43 406.122 43.0267 407.762 43.08L416.182 54.48L416.062 44.04ZM425.122 55.18V52.48C423.388 52.6933 422.142 53.1333 421.382 53.8C421.315 54.0667 421.282 54.38 421.282 54.74C421.282 55.0867 421.382 55.4067 421.582 55.7C421.782 55.98 422.088 56.12 422.502 56.12C423.315 56.12 424.188 55.8067 425.122 55.18ZM422.942 48.4C422.902 48.44 422.768 48.58 422.542 48.82C422.315 49.0467 422.122 49.2333 421.962 49.38C421.482 49.82 421.122 50.04 420.882 50.04C420.642 50.04 420.448 49.9067 420.302 49.64C420.155 49.36 420.068 49.1067 420.042 48.88C421.108 48.2933 422.262 47.88 423.502 47.64C424.515 47.64 425.275 47.9067 425.782 48.44C426.288 48.9733 426.542 49.68 426.542 50.56V55.66C426.542 56.14 426.828 56.38 427.402 56.38C427.562 56.38 427.762 56.36 428.002 56.32C428.122 56.44 428.182 56.6067 428.182 56.82C427.728 57.1 427.255 57.24 426.762 57.24C425.842 57.24 425.308 56.8133 425.162 55.96C423.522 56.8133 422.395 57.24 421.782 57.24C421.168 57.24 420.675 57.0133 420.302 56.56C419.942 56.1067 419.762 55.5733 419.762 54.96C419.762 54.1333 420.202 53.4133 421.082 52.8C421.975 52.1867 423.322 51.86 425.122 51.82V50.62C425.122 49.98 424.922 49.4533 424.522 49.04C424.135 48.6133 423.608 48.4 422.942 48.4ZM433.484 57H432.324L429.424 48.92L428.484 48.48C428.484 48.08 428.577 47.88 428.764 47.88L430.324 47.96L431.784 47.88C431.97 47.88 432.064 48.08 432.064 48.48L430.824 48.88L433.124 55.34L435.324 48.88L434.084 48.48C434.084 48.08 434.177 47.88 434.364 47.88L435.724 47.96L436.964 47.88C437.15 47.88 437.244 48.08 437.244 48.48L436.304 48.92L433.484 57ZM441.393 55.96L443.113 56.4C443.113 56.8 443.02 57 442.833 57L440.693 56.92L438.533 57C438.346 57 438.253 56.8 438.253 56.4L439.973 55.96V48.8H438.553C438.366 48.8 438.273 48.5533 438.273 48.06C438.273 48.0333 438.713 47.96 439.593 47.84C440.486 47.7067 440.98 47.64 441.073 47.64C441.286 47.76 441.393 47.9467 441.393 48.2V55.96ZM440.893 43.46C441.346 43.46 441.573 43.8333 441.573 44.58L441.433 45.7C441.02 45.82 440.68 45.88 440.413 45.88C439.946 45.88 439.713 45.5133 439.713 44.78C439.713 44.4467 439.766 44.0533 439.873 43.6C440.3 43.5067 440.64 43.46 440.893 43.46ZM451.588 50.8C451.588 51.9067 451.248 52.7467 450.568 53.32C449.901 53.8933 449.014 54.18 447.908 54.18C447.574 54.18 447.241 54.1467 446.908 54.08C446.401 54.7867 446.128 55.3733 446.088 55.84H449.348C450.414 55.84 451.241 56.1 451.828 56.62C452.414 57.14 452.708 57.7733 452.708 58.52C452.708 59.4933 452.248 60.3533 451.328 61.1C450.408 61.86 449.134 62.24 447.508 62.24C446.361 62.24 445.474 61.9733 444.848 61.44C444.221 60.92 443.908 60.2133 443.908 59.32C443.908 59.0133 444.501 58.24 445.688 57H445.028C444.868 56.88 444.788 56.6933 444.788 56.44C444.788 55.8667 445.228 54.9867 446.108 53.8C445.014 53.28 444.468 52.3067 444.468 50.88C444.468 49.8533 444.808 49.06 445.488 48.5C446.181 47.9267 447.014 47.64 447.988 47.64C448.974 47.64 449.781 47.86 450.408 48.3C450.968 47.8067 451.574 47.4733 452.228 47.3C452.521 47.6467 452.668 47.9333 452.668 48.16C452.668 48.3867 452.554 48.54 452.328 48.62C452.101 48.6867 451.641 48.7533 450.948 48.82C451.374 49.3533 451.588 50.0133 451.588 50.8ZM449.548 57H446.568L445.308 59.08C445.308 59.7467 445.494 60.2933 445.868 60.72C446.254 61.1467 446.948 61.36 447.948 61.36C448.948 61.36 449.761 61.08 450.388 60.52C451.014 59.96 451.328 59.3333 451.328 58.64C451.328 58.1733 451.168 57.78 450.848 57.46C450.541 57.1533 450.108 57 449.548 57ZM445.928 50.54C445.928 51.38 446.108 52.0667 446.468 52.6C446.841 53.1333 447.348 53.4 447.988 53.4C448.641 53.4 449.161 53.1867 449.548 52.76C449.948 52.32 450.148 51.7067 450.148 50.92C450.148 50.12 449.948 49.5067 449.548 49.08C449.148 48.6533 448.681 48.44 448.148 48.44C447.628 48.44 447.148 48.52 446.708 48.68C446.188 49.08 445.928 49.7 445.928 50.54ZM459.36 55.18V52.48C457.627 52.6933 456.38 53.1333 455.62 53.8C455.553 54.0667 455.52 54.38 455.52 54.74C455.52 55.0867 455.62 55.4067 455.82 55.7C456.02 55.98 456.327 56.12 456.74 56.12C457.553 56.12 458.427 55.8067 459.36 55.18ZM457.18 48.4C457.14 48.44 457.007 48.58 456.78 48.82C456.553 49.0467 456.36 49.2333 456.2 49.38C455.72 49.82 455.36 50.04 455.12 50.04C454.88 50.04 454.687 49.9067 454.54 49.64C454.393 49.36 454.307 49.1067 454.28 48.88C455.347 48.2933 456.5 47.88 457.74 47.64C458.753 47.64 459.513 47.9067 460.02 48.44C460.527 48.9733 460.78 49.68 460.78 50.56V55.66C460.78 56.14 461.067 56.38 461.64 56.38C461.8 56.38 462 56.36 462.24 56.32C462.36 56.44 462.42 56.6067 462.42 56.82C461.967 57.1 461.493 57.24 461 57.24C460.08 57.24 459.547 56.8133 459.4 55.96C457.76 56.8133 456.633 57.24 456.02 57.24C455.407 57.24 454.913 57.0133 454.54 56.56C454.18 56.1067 454 55.5733 454 54.96C454 54.1333 454.44 53.4133 455.32 52.8C456.213 52.1867 457.56 51.86 459.36 51.82V50.62C459.36 49.98 459.16 49.4533 458.76 49.04C458.373 48.6133 457.847 48.4 457.18 48.4ZM468.682 56.28C467.909 56.92 467.102 57.24 466.262 57.24C465.182 57.24 464.642 56.6067 464.642 55.34V48.84H463.402C463.215 48.84 463.122 48.58 463.122 48.06L464.782 47.78L465.302 45.54L466.062 45.3V47.88H468.422C468.422 48.52 468.329 48.84 468.142 48.84H466.062V55.22C466.062 55.9 466.322 56.24 466.842 56.24C467.229 56.24 467.729 56.0533 468.342 55.68C468.515 55.84 468.629 56.04 468.682 56.28ZM474.654 47.64C475.614 47.64 476.368 48.0333 476.914 48.82C477.474 49.5933 477.754 50.54 477.754 51.66V52.1C476.074 52.38 474.394 52.52 472.714 52.52H471.414V52.8C471.414 53.8933 471.694 54.7467 472.254 55.36C472.814 55.9733 473.514 56.28 474.354 56.28C475.208 56.28 476.034 56.1133 476.834 55.78C477.008 55.94 477.121 56.14 477.174 56.38C476.294 56.9533 475.254 57.24 474.054 57.24C472.854 57.24 471.854 56.86 471.054 56.1C470.268 55.34 469.874 54.2067 469.874 52.7C469.874 51.18 470.308 49.96 471.174 49.04C472.041 48.1067 473.201 47.64 474.654 47.64ZM473.134 48.7C472.228 49.3133 471.674 50.3333 471.474 51.76C473.021 51.7333 474.554 51.5933 476.074 51.34C476.114 51.1 476.134 50.8733 476.134 50.66C476.134 50.02 475.961 49.52 475.614 49.16C475.268 48.7867 474.761 48.6 474.094 48.6C473.734 48.6 473.414 48.6333 473.134 48.7Z" fill="#1C274C"/>
<path d="M387.604 174.78L387.784 175.56C386.224 176.68 384.524 177.24 382.684 177.24C380.857 177.24 379.364 176.613 378.204 175.36C377.057 174.107 376.484 172.327 376.484 170.02C376.484 167.7 377.124 165.913 378.404 164.66C379.684 163.393 381.304 162.76 383.264 162.76C384.944 162.76 386.417 163.16 387.684 163.96L387.164 166.94C386.564 166.94 386.264 166.847 386.264 166.66V164.44C385.317 164.107 384.317 163.94 383.264 163.94C382.224 163.94 381.224 164.1 380.264 164.42C379.637 164.887 379.144 165.613 378.784 166.6C378.424 167.587 378.244 168.707 378.244 169.96C378.244 171.973 378.677 173.513 379.544 174.58C380.424 175.647 381.557 176.18 382.944 176.18C383.544 176.18 384.157 176.08 384.784 175.88C385.424 175.667 385.964 175.393 386.404 175.06L386.064 170.88L382.364 170.66V169.8H387.604V174.78ZM394.244 167.64C395.524 167.64 396.571 168.047 397.384 168.86C398.211 169.66 398.624 170.833 398.624 172.38C398.624 173.927 398.204 175.127 397.364 175.98C396.538 176.82 395.464 177.24 394.144 177.24C392.824 177.24 391.764 176.827 390.964 176C390.178 175.16 389.784 173.98 389.784 172.46C389.784 170.927 390.211 169.74 391.064 168.9C391.918 168.06 392.978 167.64 394.244 167.64ZM391.344 172.38C391.344 173.673 391.604 174.66 392.124 175.34C392.658 176.02 393.351 176.36 394.204 176.36C395.058 176.36 395.744 176.02 396.264 175.34C396.798 174.66 397.064 173.687 397.064 172.42C397.064 171.153 396.798 170.187 396.264 169.52C395.731 168.853 395.091 168.52 394.344 168.52C393.598 168.52 392.991 168.62 392.524 168.82C391.738 169.46 391.344 170.647 391.344 172.38ZM406.821 164.04L405.141 163.6C405.141 163.2 405.241 163 405.441 163C405.561 163 406.247 163.027 407.501 163.08C409.514 163.027 410.554 163 410.621 163C411.834 163 412.801 163.373 413.521 164.12C414.241 164.867 414.601 165.773 414.601 166.84C414.601 167.56 414.347 168.26 413.841 168.94C413.334 169.607 412.627 170.093 411.721 170.4C412.054 170.6 412.374 170.96 412.681 171.48L415.241 175.96L416.841 176.4C416.841 176.8 416.741 177 416.541 177H413.921L411.041 171.56C410.801 171.133 410.567 170.84 410.341 170.68L408.461 170.98L408.301 175.96L410.321 176.4C410.321 176.8 410.221 177 410.021 177C409.581 177 408.741 176.973 407.501 176.92L405.441 177C405.241 177 405.141 176.8 405.141 176.4L406.821 175.96V164.04ZM410.101 163.84L408.301 164.04L408.481 169.84L409.741 169.92C410.874 169.92 411.727 169.613 412.301 169C412.874 168.387 413.161 167.667 413.161 166.84C413.161 166.013 412.894 165.307 412.361 164.72C411.841 164.133 411.087 163.84 410.101 163.84ZM419.995 175.96L421.715 176.4C421.715 176.8 421.621 177 421.435 177L419.295 176.92L417.135 177C416.948 177 416.855 176.8 416.855 176.4L418.575 175.96V168.8H417.155C416.968 168.8 416.875 168.553 416.875 168.06C416.875 168.033 417.315 167.96 418.195 167.84C419.088 167.707 419.581 167.64 419.675 167.64C419.888 167.76 419.995 167.947 419.995 168.2V175.96ZM419.495 163.46C419.948 163.46 420.175 163.833 420.175 164.58L420.035 165.7C419.621 165.82 419.281 165.88 419.015 165.88C418.548 165.88 418.315 165.513 418.315 164.78C418.315 164.447 418.368 164.053 418.475 163.6C418.901 163.507 419.241 163.46 419.495 163.46ZM430.189 170.8C430.189 171.907 429.849 172.747 429.169 173.32C428.503 173.893 427.616 174.18 426.509 174.18C426.176 174.18 425.843 174.147 425.509 174.08C425.003 174.787 424.729 175.373 424.689 175.84H427.949C429.016 175.84 429.843 176.1 430.429 176.62C431.016 177.14 431.309 177.773 431.309 178.52C431.309 179.493 430.849 180.353 429.929 181.1C429.009 181.86 427.736 182.24 426.109 182.24C424.963 182.24 424.076 181.973 423.449 181.44C422.823 180.92 422.509 180.213 422.509 179.32C422.509 179.013 423.103 178.24 424.289 177H423.629C423.469 176.88 423.389 176.693 423.389 176.44C423.389 175.867 423.829 174.987 424.709 173.8C423.616 173.28 423.069 172.307 423.069 170.88C423.069 169.853 423.409 169.06 424.089 168.5C424.783 167.927 425.616 167.64 426.589 167.64C427.576 167.64 428.383 167.86 429.009 168.3C429.569 167.807 430.176 167.473 430.829 167.3C431.123 167.647 431.269 167.933 431.269 168.16C431.269 168.387 431.156 168.54 430.929 168.62C430.703 168.687 430.243 168.753 429.549 168.82C429.976 169.353 430.189 170.013 430.189 170.8ZM428.149 177H425.169L423.909 179.08C423.909 179.747 424.096 180.293 424.469 180.72C424.856 181.147 425.549 181.36 426.549 181.36C427.549 181.36 428.363 181.08 428.989 180.52C429.616 179.96 429.929 179.333 429.929 178.64C429.929 178.173 429.769 177.78 429.449 177.46C429.143 177.153 428.709 177 428.149 177ZM424.529 170.54C424.529 171.38 424.709 172.067 425.069 172.6C425.443 173.133 425.949 173.4 426.589 173.4C427.243 173.4 427.763 173.187 428.149 172.76C428.549 172.32 428.749 171.707 428.749 170.92C428.749 170.12 428.549 169.507 428.149 169.08C427.749 168.653 427.283 168.44 426.749 168.44C426.229 168.44 425.749 168.52 425.309 168.68C424.789 169.08 424.529 169.7 424.529 170.54ZM435.182 175.96L436.622 176.4C436.622 176.8 436.535 177 436.362 177C436.348 177 435.728 176.973 434.502 176.92L432.302 177C432.128 177 432.042 176.8 432.042 176.4L433.762 175.96V162.92H432.282C432.095 162.92 432.002 162.673 432.002 162.18C432.002 162.153 432.455 162.08 433.362 161.96C434.268 161.827 434.768 161.76 434.862 161.76C435.075 161.88 435.182 162.067 435.182 162.32L435.122 169.1L435.182 169.14C436.022 168.553 436.928 168.093 437.902 167.76C438.928 167.76 439.688 168.007 440.182 168.5C440.688 168.993 440.942 169.68 440.942 170.56V175.96L442.662 176.4C442.662 176.8 442.575 177 442.402 177C442.388 177 441.655 176.973 440.202 176.92L438.342 177C438.168 177 438.082 176.8 438.082 176.4L439.522 175.96V170.62C439.522 169.42 438.955 168.82 437.822 168.82C437.115 168.82 436.362 169.073 435.562 169.58C435.308 170.207 435.182 170.72 435.182 171.12V175.96ZM448.924 176.28C448.151 176.92 447.344 177.24 446.504 177.24C445.424 177.24 444.884 176.607 444.884 175.34V168.84H443.644C443.457 168.84 443.364 168.58 443.364 168.06L445.024 167.78L445.544 165.54L446.304 165.3V167.88H448.664C448.664 168.52 448.571 168.84 448.384 168.84H446.304V175.22C446.304 175.9 446.564 176.24 447.084 176.24C447.471 176.24 447.971 176.053 448.584 175.68C448.757 175.84 448.871 176.04 448.924 176.28Z" fill="#1C274C"/>
</svg>
