<svg width="636" height="407" viewBox="0 0 636 407" fill="none" xmlns="http://www.w3.org/2000/svg">
<rect x="378.75" y="5.75" width="78.5" height="78.5" rx="13.25" stroke="#1C274C" stroke-width="3.5" stroke-dasharray="7 7"/>
<path d="M418 181L428.104 163.5H407.896L418 181ZM416.25 83V86.0625H419.75V83H416.25ZM416.25 92.1875V98.3125H419.75V92.1875H416.25ZM416.25 104.438V110.562H419.75V104.438H416.25ZM416.25 116.688V122.812H419.75V116.688H416.25ZM416.25 128.938V135.062H419.75V128.938H416.25ZM416.25 141.188V147.312H419.75V141.188H416.25ZM416.25 153.438V159.562H419.75V153.438H416.25ZM416.25 165.688V171.812H419.75V165.688H416.25Z" fill="#1C274C"/>
<mask id="mask0_483_133" style="mask-type:alpha" maskUnits="userSpaceOnUse" x="0" y="0" width="158" height="158">
<path fill-rule="evenodd" clip-rule="evenodd" d="M79.0002 157.15C122.244 157.15 157.3 122.094 157.3 78.8498C157.3 35.6059 122.244 0.549805 79.0002 0.549805C35.7563 0.549805 0.700195 35.6059 0.700195 78.8498C0.700195 122.094 35.7563 157.15 79.0002 157.15ZM79 106.75C94.4087 106.75 106.9 94.2587 106.9 78.85C106.9 63.4413 94.4087 50.95 79 50.95C63.5913 50.95 51.1 63.4413 51.1 78.85C51.1 94.2587 63.5913 106.75 79 106.75Z" fill="#D9D9D9"/>
</mask>
<g mask="url(#mask0_483_133)">
<path d="M77.917 25.1479C82.5551 25.1479 86.3151 21.3879 86.3151 16.7498C86.3151 12.1117 82.5551 8.35171 77.917 8.35171C73.2789 8.35171 69.5189 12.1117 69.5189 16.7498C69.5189 21.3879 73.2789 25.1479 77.917 25.1479ZM79.4916 77.7671L79.4916 16.7498L76.3424 16.7498L76.3424 77.7671L79.4916 77.7671Z" fill="#001C30"/>
<path d="M104.194 32.7206C108.2 35.0577 113.343 33.7044 115.68 29.6981C118.017 25.6918 116.664 20.5495 112.657 18.2125C108.651 15.8755 103.509 17.2287 101.172 21.235C98.8345 25.2413 100.188 30.3836 104.194 32.7206ZM79.2771 78.5605L109.786 26.26L107.065 24.6731L76.5569 76.9737L79.2771 78.5605Z" fill="#1C274C"/>
<path d="M122.963 51.49C125.3 55.4963 130.443 56.8495 134.449 54.5125C138.455 52.1755 139.809 47.0332 137.472 43.0269C135.135 39.0206 129.992 37.6673 125.986 40.0044C121.98 42.3414 120.626 47.4837 122.963 51.49ZM78.7104 79.1272L131.011 48.6186L129.424 45.8983L77.1236 76.4069L78.7104 79.1272Z" fill="#001C30"/>
<path d="M130.536 77.7671C130.536 82.4052 134.296 86.1652 138.934 86.1652C143.572 86.1652 147.332 82.4052 147.332 77.7671C147.332 73.129 143.572 69.369 138.934 69.369C134.296 69.369 130.536 73.129 130.536 77.7671ZM77.917 79.3417H138.934V76.1925H77.917V79.3417Z" fill="#1C274C"/>
<path d="M122.963 104.044C120.626 108.051 121.98 113.193 125.986 115.53C129.992 117.867 135.135 116.514 137.472 112.507C139.809 108.501 138.455 103.359 134.449 101.022C130.443 98.6846 125.3 100.038 122.963 104.044ZM77.1236 79.1272L129.424 109.636L131.011 106.916L78.7104 76.4069L77.1236 79.1272Z" fill="#1C274C"/>
<path d="M104.194 122.814C100.188 125.151 98.8345 130.293 101.172 134.299C103.509 138.305 108.651 139.659 112.657 137.322C116.664 134.985 118.017 129.842 115.68 125.836C113.343 121.83 108.2 120.477 104.194 122.814ZM76.5569 78.5605L107.065 130.861L109.786 129.274L79.2771 76.9737L76.5569 78.5605Z" fill="#1C274C"/>
<path d="M77.917 130.386C73.2789 130.386 69.5189 134.146 69.5189 138.784C69.5189 143.423 73.2789 147.182 77.917 147.182C82.5551 147.182 86.3151 143.423 86.3151 138.784C86.3151 134.146 82.5551 130.386 77.917 130.386ZM76.3424 77.7671V138.784H79.4916V77.7671H76.3424Z" fill="#1C274C"/>
<path d="M51.6399 122.814C47.6336 120.477 42.4913 121.83 40.1543 125.836C37.8172 129.842 39.1705 134.985 43.1768 137.322C47.1831 139.659 52.3254 138.305 54.6624 134.299C56.9994 130.293 55.6462 125.151 51.6399 122.814ZM76.5569 76.9737L46.0482 129.274L48.7685 130.861L79.2771 78.5605L76.5569 76.9737Z" fill="#1C274C"/>
<path d="M32.8705 104.044C30.5335 100.038 25.3912 98.6846 21.3849 101.022C17.3786 103.359 16.0254 108.501 18.3624 112.507C20.6994 116.514 25.8417 117.867 29.848 115.53C33.8543 113.193 35.2076 108.051 32.8705 104.044ZM77.1236 76.4069L24.823 106.916L26.4099 109.636L78.7104 79.1272L77.1236 76.4069Z" fill="#1C274C"/>
<path d="M25.2978 77.7671C25.2978 73.129 21.5378 69.369 16.8997 69.369C12.2616 69.369 8.50162 73.129 8.50162 77.7671C8.50162 82.4052 12.2616 86.1652 16.8997 86.1652C21.5378 86.1652 25.2978 82.4052 25.2978 77.7671ZM77.917 76.1925H16.8997V79.3417H77.917V76.1925Z" fill="#001C30"/>
<path d="M32.8705 51.49C35.2076 47.4837 33.8543 42.3414 29.848 40.0044C25.8417 37.6673 20.6994 39.0206 18.3624 43.0269C16.0254 47.0332 17.3786 52.1755 21.3849 54.5125C25.3912 56.8495 30.5335 55.4963 32.8705 51.49ZM78.7104 76.4069L26.4099 45.8983L24.823 48.6186L77.1236 79.1272L78.7104 76.4069Z" fill="#1C274C"/>
<path d="M51.6399 32.7206C55.6462 30.3836 56.9994 25.2413 54.6624 21.235C52.3254 17.2287 47.1831 15.8755 43.1768 18.2125C39.1705 20.5495 37.8172 25.6918 40.1543 29.6981C42.4913 33.7044 47.6336 35.0577 51.6399 32.7206ZM79.2771 76.9737L48.7685 24.6731L46.0482 26.26L76.5569 78.5605L79.2771 76.9737Z" fill="#1C274C"/>
</g>
<path d="M85.75 106.3C96.55 144.55 104.65 202.42 108.25 237.7C111.85 272.98 115.45 359.65 112.3 406.45" stroke="#1C274C" stroke-width="5.4"/>
<circle cx="78.9021" cy="78.7517" r="20.2735" stroke="#001C30" stroke-width="4.72392"/>
<path d="M210.155 254.465C218.398 257.556 243.419 266.83 263.219 266.83C282.796 266.83 308.727 259.789 318.344 256.011" stroke="#1C274C" stroke-width="3.648"/>
<path d="M209.643 253.538V282.3C217.966 284.996 242.498 289.85 262.475 290.569C282.452 291.288 310.332 285.596 320.043 282.3V253.44" stroke="#1C274C" stroke-width="3.648"/>
<path d="M211.563 255.84C205.323 247.2 202.942 237.661 202.942 225.1C202.942 190.956 230.621 163.278 264.764 163.278C298.908 163.278 326.586 190.956 326.586 225.1C326.586 237.661 322.923 248.16 318.603 255.84" stroke="#1C274C" stroke-width="3.36"/>
<path d="M264.886 164.72C264.886 158.126 264.985 153.592 263.22 147.925C261.455 142.258 259.613 138.652 257.553 135.561" stroke="#1C274C" stroke-width="2.9184"/>
<circle cx="255.182" cy="128.039" r="8.13538" stroke="#1C274C" stroke-width="2.688"/>
<path d="M208.682 281.28C201.076 279.18 190.023 279.821 180.066 288.221C167.62 298.72 154.655 322.344 133.393 319.194V285.479" stroke="#1C274C" stroke-width="3.648"/>
<path d="M211.185 256.526C202.256 254.637 184.83 255.312 176.153 260.132C162.243 267.86 151.424 287.437 132.362 287.437" stroke="#1C274C" stroke-width="3.648"/>
<ellipse cx="245.702" cy="220.566" rx="3.0911" ry="6.1822" fill="#1C274C"/>
<ellipse cx="284.856" cy="220.566" rx="3.0911" ry="6.1822" fill="#1C274C"/>
<path d="M208.683 282.72C204.046 288.387 195.18 302.991 191.883 318.24C188.586 333.49 186.123 348.96 181.803 355.68C192.965 363.58 224.993 382.85 249.31 384.91C279.706 387.486 281.766 380.129 307.01 374.607C323.496 371 338.608 374.091 340.497 374.607C342.558 366.364 342.352 343.49 337.406 326.179C332.46 308.869 325.058 291.514 319.563 282.24" stroke="#1C274C" stroke-width="3.36"/>
<path d="M422.88 220.67L423.15 221.84C420.81 223.52 418.26 224.36 415.5 224.36C412.76 224.36 410.52 223.42 408.78 221.54C407.06 219.66 406.2 216.99 406.2 213.53C406.2 210.05 407.16 207.37 409.08 205.49C411 203.59 413.43 202.64 416.37 202.64C418.89 202.64 421.1 203.24 423 204.44L422.22 208.91C421.32 208.91 420.87 208.77 420.87 208.49V205.16C419.45 204.66 417.95 204.41 416.37 204.41C414.81 204.41 413.31 204.65 411.87 205.13C410.93 205.83 410.19 206.92 409.65 208.4C409.11 209.88 408.84 211.56 408.84 213.44C408.84 216.46 409.49 218.77 410.79 220.37C412.11 221.97 413.81 222.77 415.89 222.77C416.79 222.77 417.71 222.62 418.65 222.32C419.61 222 420.42 221.59 421.08 221.09L420.57 214.82L415.02 214.49V213.2H422.88V220.67ZM433.921 209.96C435.361 209.96 436.491 210.55 437.311 211.73C438.151 212.89 438.571 214.31 438.571 215.99V216.65C436.051 217.07 433.531 217.28 431.011 217.28H429.061V217.7C429.061 219.34 429.481 220.62 430.321 221.54C431.161 222.46 432.211 222.92 433.471 222.92C434.751 222.92 435.991 222.67 437.191 222.17C437.451 222.41 437.621 222.71 437.701 223.07C436.381 223.93 434.821 224.36 433.021 224.36C431.221 224.36 429.721 223.79 428.521 222.65C427.341 221.51 426.751 219.81 426.751 217.55C426.751 215.27 427.401 213.44 428.701 212.06C430.001 210.66 431.741 209.96 433.921 209.96ZM431.641 211.55C430.281 212.47 429.451 214 429.151 216.14C431.471 216.1 433.771 215.89 436.051 215.51C436.111 215.15 436.141 214.81 436.141 214.49C436.141 213.53 435.881 212.78 435.361 212.24C434.841 211.68 434.081 211.4 433.081 211.4C432.541 211.4 432.061 211.45 431.641 211.55ZM448.854 222.92C447.694 223.88 446.484 224.36 445.224 224.36C443.604 224.36 442.794 223.41 442.794 221.51V211.76H440.934C440.654 211.76 440.514 211.37 440.514 210.59L443.004 210.17L443.784 206.81L444.924 206.45V210.32H448.464C448.464 211.28 448.324 211.76 448.044 211.76H444.924V221.33C444.924 222.35 445.314 222.86 446.094 222.86C446.674 222.86 447.424 222.58 448.344 222.02C448.604 222.26 448.774 222.56 448.854 222.92ZM461.753 204.56L459.173 203.9C459.173 203.3 459.323 203 459.623 203C459.983 203 461.103 203.04 462.983 203.12L466.073 203C466.373 203 466.523 203.3 466.523 203.9L463.943 204.56L464.093 213.5L463.943 222.35H470.993L471.773 219.53C471.853 219.25 472.273 219.11 473.033 219.11L472.793 223.64C472.773 223.88 472.483 224 471.923 224L462.983 223.76L459.623 224C459.323 224 459.173 223.7 459.173 223.1L461.753 222.44L461.603 213.5L461.753 204.56ZM481.837 209.96C483.757 209.96 485.327 210.57 486.547 211.79C487.787 212.99 488.407 214.75 488.407 217.07C488.407 219.39 487.777 221.19 486.517 222.47C485.277 223.73 483.667 224.36 481.687 224.36C479.707 224.36 478.117 223.74 476.917 222.5C475.737 221.24 475.147 219.47 475.147 217.19C475.147 214.89 475.787 213.11 477.067 211.85C478.347 210.59 479.937 209.96 481.837 209.96ZM477.487 217.07C477.487 219.01 477.877 220.49 478.657 221.51C479.457 222.53 480.497 223.04 481.777 223.04C483.057 223.04 484.087 222.53 484.867 221.51C485.667 220.49 486.067 219.03 486.067 217.13C486.067 215.23 485.667 213.78 484.867 212.78C484.067 211.78 483.107 211.28 481.987 211.28C480.867 211.28 479.957 211.43 479.257 211.73C478.077 212.69 477.487 214.47 477.487 217.07ZM499.101 211.82C498.461 211.46 497.641 211.28 496.641 211.28C495.641 211.28 494.791 211.62 494.091 212.3C494.011 212.54 493.971 212.87 493.971 213.29C493.971 214.01 494.341 214.58 495.081 215L498.831 217.16C500.531 218.16 501.381 219.36 501.381 220.76C501.381 221.92 500.931 222.81 500.031 223.43C499.131 224.05 497.901 224.36 496.341 224.36C494.801 224.36 493.261 224.1 491.721 223.58C491.721 223.28 491.821 222.55 492.021 221.39C492.221 220.23 492.331 219.65 492.351 219.65C493.091 219.65 493.461 219.79 493.461 220.07V222.23C494.261 222.81 495.181 223.1 496.221 223.1C498.281 223.1 499.311 222.41 499.311 221.03C499.311 220.27 498.811 219.6 497.811 219.02L494.331 217.01C492.911 216.19 492.201 215.06 492.201 213.62C492.201 212.6 492.621 211.74 493.461 211.04C494.301 210.32 495.431 209.97 496.851 209.99C498.291 209.99 499.621 210.22 500.841 210.68C500.841 210.96 500.741 211.62 500.541 212.66C500.341 213.7 500.231 214.22 500.211 214.22C499.471 214.22 499.101 214.08 499.101 213.8V211.82ZM512.059 222.92C510.899 223.88 509.689 224.36 508.429 224.36C506.809 224.36 505.999 223.41 505.999 221.51V211.76H504.139C503.859 211.76 503.719 211.37 503.719 210.59L506.209 210.17L506.989 206.81L508.129 206.45V210.32H511.669C511.669 211.28 511.529 211.76 511.249 211.76H508.129V221.33C508.129 222.35 508.519 222.86 509.299 222.86C509.879 222.86 510.629 222.58 511.549 222.02C511.809 222.26 511.979 222.56 512.059 222.92ZM515.617 208.94L514.837 204.32C516.037 204.02 517.197 203.87 518.317 203.87C520.137 203.87 521.627 204.26 522.787 205.04C523.947 205.8 524.527 206.85 524.527 208.19C524.527 209.01 524.257 209.88 523.717 210.8C523.177 211.72 522.577 212.52 521.917 213.2C520.177 215 519.307 216.26 519.307 216.98V218.48H518.287C518.127 217.1 518.047 216.11 518.047 215.51C518.067 215.11 518.417 214.49 519.097 213.65C519.797 212.79 520.517 211.87 521.257 210.89C522.017 209.89 522.457 209.04 522.577 208.34C522.557 207.34 522.117 206.6 521.257 206.12C520.417 205.62 519.427 205.37 518.287 205.37C517.727 205.37 517.257 205.41 516.877 205.49V208.52C516.877 208.8 516.457 208.94 515.617 208.94ZM519.187 221.15C519.907 221.15 520.267 221.65 520.267 222.65L520.057 224.12C519.357 224.28 518.787 224.36 518.347 224.36C517.607 224.36 517.237 223.87 517.237 222.89C517.237 222.45 517.317 221.93 517.477 221.33C518.197 221.21 518.767 221.15 519.187 221.15ZM416.84 255.12L416.68 257.98C415.56 258.82 414.06 259.24 412.18 259.24C410.3 259.24 408.767 258.613 407.58 257.36C406.393 256.107 405.8 254.327 405.8 252.02C405.8 249.7 406.44 247.913 407.72 246.66C409 245.393 410.62 244.76 412.58 244.76C414.14 244.76 415.513 245.16 416.7 245.96L416.18 248.94C415.58 248.94 415.28 248.847 415.28 248.66V246.44C414.44 246.107 413.52 245.94 412.52 245.94C411.52 245.94 410.54 246.1 409.58 246.42C408.953 246.887 408.46 247.613 408.1 248.6C407.74 249.587 407.56 250.707 407.56 251.96C407.56 253.973 408.013 255.513 408.92 256.58C409.827 257.647 411.007 258.18 412.46 258.18C413.66 258.18 414.667 257.933 415.48 257.44L415.94 255.4C415.993 255.213 416.293 255.12 416.84 255.12ZM423.212 259L421.072 258.92L418.912 259C418.725 259 418.632 258.8 418.632 258.4L420.352 257.96V244.92H418.932C418.745 244.92 418.652 244.673 418.652 244.18C418.652 244.153 419.092 244.08 419.972 243.96C420.865 243.827 421.359 243.76 421.452 243.76C421.665 243.88 421.772 244.067 421.772 244.32V257.96L423.492 258.4C423.492 258.8 423.399 259 423.212 259ZM428.236 257.96L429.956 258.4C429.956 258.8 429.863 259 429.676 259L427.536 258.92L425.376 259C425.189 259 425.096 258.8 425.096 258.4L426.816 257.96V250.8H425.396C425.209 250.8 425.116 250.553 425.116 250.06C425.116 250.033 425.556 249.96 426.436 249.84C427.329 249.707 427.823 249.64 427.916 249.64C428.129 249.76 428.236 249.947 428.236 250.2V257.96ZM427.736 245.46C428.189 245.46 428.416 245.833 428.416 246.58L428.276 247.7C427.863 247.82 427.523 247.88 427.256 247.88C426.789 247.88 426.556 247.513 426.556 246.78C426.556 246.447 426.609 246.053 426.716 245.6C427.143 245.507 427.483 245.46 427.736 245.46ZM438.451 257.78C438.637 257.927 438.757 258.127 438.811 258.38C437.917 258.953 436.984 259.24 436.011 259.24C434.691 259.24 433.617 258.827 432.791 258C431.964 257.16 431.551 255.98 431.551 254.46C431.551 252.927 431.997 251.74 432.891 250.9C433.784 250.06 434.911 249.64 436.271 249.64C437.097 249.787 437.904 250.047 438.691 250.42C438.691 250.7 438.617 250.98 438.471 251.26C438.337 251.54 438.211 251.68 438.091 251.68C437.784 251.68 437.491 251.587 437.211 251.4C436.944 251.2 436.664 251 436.371 250.8C436.091 250.6 435.904 250.467 435.811 250.4C434.011 250.64 433.111 251.967 433.111 254.38C433.111 255.593 433.391 256.547 433.951 257.24C434.524 257.933 435.297 258.28 436.271 258.28C436.951 258.28 437.677 258.113 438.451 257.78ZM442.702 258.92L440.522 259C440.336 259 440.242 258.8 440.242 258.4L441.962 257.96V244.92H440.542C440.356 244.92 440.262 244.673 440.262 244.18C440.262 244.153 440.702 244.08 441.582 243.96C442.476 243.827 442.969 243.76 443.062 243.76C443.276 243.88 443.382 244.067 443.382 244.32V253.38H444.502L446.442 250.88L445.202 250.48C445.202 250.08 445.296 249.88 445.482 249.88L446.842 249.96L448.842 249.88C449.029 249.88 449.122 250.08 449.122 250.48L447.782 250.92L445.342 253.7L448.282 257.96L449.942 258.4C449.942 258.8 449.849 259 449.662 259H447.362L444.082 254.18L443.382 254.26V257.96L444.822 258.4C444.822 258.8 444.729 259 444.542 259L442.702 258.92ZM459.113 257.96L460.833 258.4C460.833 258.8 460.74 259 460.553 259L458.413 258.92L456.253 259C456.067 259 455.973 258.8 455.973 258.4L457.693 257.96V250.8H456.273C456.087 250.8 455.993 250.553 455.993 250.06C455.993 250.033 456.433 249.96 457.313 249.84C458.207 249.707 458.7 249.64 458.793 249.64C459.007 249.76 459.113 249.947 459.113 250.2V257.96ZM458.613 245.46C459.067 245.46 459.293 245.833 459.293 246.58L459.153 247.7C458.74 247.82 458.4 247.88 458.133 247.88C457.667 247.88 457.433 247.513 457.433 246.78C457.433 246.447 457.487 246.053 457.593 245.6C458.02 245.507 458.36 245.46 458.613 245.46ZM467.388 258.28C466.615 258.92 465.808 259.24 464.968 259.24C463.888 259.24 463.348 258.607 463.348 257.34V250.84H462.108C461.921 250.84 461.828 250.58 461.828 250.06L463.488 249.78L464.008 247.54L464.768 247.3V249.88H467.128C467.128 250.52 467.035 250.84 466.848 250.84H464.768V257.22C464.768 257.9 465.028 258.24 465.548 258.24C465.935 258.24 466.435 258.053 467.048 257.68C467.221 257.84 467.335 258.04 467.388 258.28ZM479.047 258.28C478.274 258.92 477.467 259.24 476.627 259.24C475.547 259.24 475.007 258.607 475.007 257.34V250.84H473.767C473.581 250.84 473.487 250.58 473.487 250.06L475.147 249.78L475.667 247.54L476.427 247.3V249.88H478.787C478.787 250.52 478.694 250.84 478.507 250.84H476.427V257.22C476.427 257.9 476.687 258.24 477.207 258.24C477.594 258.24 478.094 258.053 478.707 257.68C478.881 257.84 478.994 258.04 479.047 258.28ZM485.1 249.64C486.38 249.64 487.427 250.047 488.24 250.86C489.067 251.66 489.48 252.833 489.48 254.38C489.48 255.927 489.06 257.127 488.22 257.98C487.393 258.82 486.32 259.24 485 259.24C483.68 259.24 482.62 258.827 481.82 258C481.033 257.16 480.64 255.98 480.64 254.46C480.64 252.927 481.067 251.74 481.92 250.9C482.773 250.06 483.833 249.64 485.1 249.64ZM482.2 254.38C482.2 255.673 482.46 256.66 482.98 257.34C483.513 258.02 484.207 258.36 485.06 258.36C485.913 258.36 486.6 258.02 487.12 257.34C487.653 256.66 487.92 255.687 487.92 254.42C487.92 253.153 487.653 252.187 487.12 251.52C486.587 250.853 485.947 250.52 485.2 250.52C484.453 250.52 483.847 250.62 483.38 250.82C482.593 251.46 482.2 252.647 482.2 254.38ZM500.776 259L498.636 258.92L496.476 259C496.289 259 496.196 258.8 496.196 258.4L497.916 257.96V244.92H496.496C496.309 244.92 496.216 244.673 496.216 244.18C496.216 244.153 496.656 244.08 497.536 243.96C498.429 243.827 498.923 243.76 499.016 243.76C499.229 243.88 499.336 244.067 499.336 244.32V257.96L501.056 258.4C501.056 258.8 500.963 259 500.776 259ZM507.12 249.64C508.4 249.64 509.447 250.047 510.26 250.86C511.087 251.66 511.5 252.833 511.5 254.38C511.5 255.927 511.08 257.127 510.24 257.98C509.413 258.82 508.34 259.24 507.02 259.24C505.7 259.24 504.64 258.827 503.84 258C503.053 257.16 502.66 255.98 502.66 254.46C502.66 252.927 503.087 251.74 503.94 250.9C504.793 250.06 505.853 249.64 507.12 249.64ZM504.22 254.38C504.22 255.673 504.48 256.66 505 257.34C505.533 258.02 506.227 258.36 507.08 258.36C507.933 258.36 508.62 258.02 509.14 257.34C509.673 256.66 509.94 255.687 509.94 254.42C509.94 253.153 509.673 252.187 509.14 251.52C508.607 250.853 507.967 250.52 507.22 250.52C506.473 250.52 505.867 250.62 505.4 250.82C504.613 251.46 504.22 252.647 504.22 254.38ZM520.409 257.78C520.596 257.927 520.716 258.127 520.769 258.38C519.876 258.953 518.943 259.24 517.969 259.24C516.649 259.24 515.576 258.827 514.749 258C513.923 257.16 513.509 255.98 513.509 254.46C513.509 252.927 513.956 251.74 514.849 250.9C515.743 250.06 516.869 249.64 518.229 249.64C519.056 249.787 519.863 250.047 520.649 250.42C520.649 250.7 520.576 250.98 520.429 251.26C520.296 251.54 520.169 251.68 520.049 251.68C519.743 251.68 519.449 251.587 519.169 251.4C518.903 251.2 518.623 251 518.329 250.8C518.049 250.6 517.863 250.467 517.769 250.4C515.969 250.64 515.069 251.967 515.069 254.38C515.069 255.593 515.349 256.547 515.909 257.24C516.483 257.933 517.256 258.28 518.229 258.28C518.909 258.28 519.636 258.113 520.409 257.78ZM528.161 257.18V254.48C526.427 254.693 525.181 255.133 524.421 255.8C524.354 256.067 524.321 256.38 524.321 256.74C524.321 257.087 524.421 257.407 524.621 257.7C524.821 257.98 525.127 258.12 525.541 258.12C526.354 258.12 527.227 257.807 528.161 257.18ZM525.981 250.4C525.941 250.44 525.807 250.58 525.581 250.82C525.354 251.047 525.161 251.233 525.001 251.38C524.521 251.82 524.161 252.04 523.921 252.04C523.681 252.04 523.487 251.907 523.341 251.64C523.194 251.36 523.107 251.107 523.081 250.88C524.147 250.293 525.301 249.88 526.541 249.64C527.554 249.64 528.314 249.907 528.821 250.44C529.327 250.973 529.581 251.68 529.581 252.56V257.66C529.581 258.14 529.867 258.38 530.441 258.38C530.601 258.38 530.801 258.36 531.041 258.32C531.161 258.44 531.221 258.607 531.221 258.82C530.767 259.1 530.294 259.24 529.801 259.24C528.881 259.24 528.347 258.813 528.201 257.96C526.561 258.813 525.434 259.24 524.821 259.24C524.207 259.24 523.714 259.013 523.341 258.56C522.981 258.107 522.801 257.573 522.801 256.96C522.801 256.133 523.241 255.413 524.121 254.8C525.014 254.187 526.361 253.86 528.161 253.82V252.62C528.161 251.98 527.961 251.453 527.561 251.04C527.174 250.613 526.647 250.4 525.981 250.4ZM537.883 258.28C537.109 258.92 536.303 259.24 535.463 259.24C534.383 259.24 533.843 258.607 533.843 257.34V250.84H532.603C532.416 250.84 532.323 250.58 532.323 250.06L533.983 249.78L534.503 247.54L535.263 247.3V249.88H537.623C537.623 250.52 537.529 250.84 537.343 250.84H535.263V257.22C535.263 257.9 535.523 258.24 536.043 258.24C536.429 258.24 536.929 258.053 537.543 257.68C537.716 257.84 537.829 258.04 537.883 258.28ZM544.255 249.64C545.215 249.64 545.968 250.033 546.515 250.82C547.075 251.593 547.355 252.54 547.355 253.66V254.1C545.675 254.38 543.995 254.52 542.315 254.52H541.015V254.8C541.015 255.893 541.295 256.747 541.855 257.36C542.415 257.973 543.115 258.28 543.955 258.28C544.808 258.28 545.635 258.113 546.435 257.78C546.608 257.94 546.722 258.14 546.775 258.38C545.895 258.953 544.855 259.24 543.655 259.24C542.455 259.24 541.455 258.86 540.655 258.1C539.868 257.34 539.475 256.207 539.475 254.7C539.475 253.18 539.908 251.96 540.775 251.04C541.642 250.107 542.802 249.64 544.255 249.64ZM542.735 250.7C541.828 251.313 541.275 252.333 541.075 253.76C542.622 253.733 544.155 253.593 545.675 253.34C545.715 253.1 545.735 252.873 545.735 252.66C545.735 252.02 545.562 251.52 545.215 251.16C544.868 250.787 544.362 250.6 543.695 250.6C543.335 250.6 543.015 250.633 542.735 250.7ZM559.917 257.18V254.48C558.184 254.693 556.937 255.133 556.177 255.8C556.11 256.067 556.077 256.38 556.077 256.74C556.077 257.087 556.177 257.407 556.377 257.7C556.577 257.98 556.884 258.12 557.297 258.12C558.11 258.12 558.984 257.807 559.917 257.18ZM557.737 250.4C557.697 250.44 557.564 250.58 557.337 250.82C557.11 251.047 556.917 251.233 556.757 251.38C556.277 251.82 555.917 252.04 555.677 252.04C555.437 252.04 555.244 251.907 555.097 251.64C554.95 251.36 554.864 251.107 554.837 250.88C555.904 250.293 557.057 249.88 558.297 249.64C559.31 249.64 560.07 249.907 560.577 250.44C561.084 250.973 561.337 251.68 561.337 252.56V257.66C561.337 258.14 561.624 258.38 562.197 258.38C562.357 258.38 562.557 258.36 562.797 258.32C562.917 258.44 562.977 258.607 562.977 258.82C562.524 259.1 562.05 259.24 561.557 259.24C560.637 259.24 560.104 258.813 559.957 257.96C558.317 258.813 557.19 259.24 556.577 259.24C555.964 259.24 555.47 259.013 555.097 258.56C554.737 258.107 554.557 257.573 554.557 256.96C554.557 256.133 554.997 255.413 555.877 254.8C556.77 254.187 558.117 253.86 559.917 253.82V252.62C559.917 251.98 559.717 251.453 559.317 251.04C558.93 250.613 558.404 250.4 557.737 250.4ZM573.579 257.96L575.299 258.4C575.299 258.8 575.206 259 575.019 259L572.839 258.92L570.999 259C570.812 259 570.719 258.8 570.719 258.4L572.159 257.96V252.62C572.159 251.42 571.592 250.82 570.459 250.82C569.752 250.82 568.999 251.073 568.199 251.58C567.946 252.207 567.819 252.72 567.819 253.12V257.96L569.259 258.4C569.259 258.8 569.166 259 568.979 259L567.139 258.92L564.959 259C564.772 259 564.679 258.8 564.679 258.4L566.399 257.96V251.04H564.959C564.772 251.04 564.679 250.793 564.679 250.3C564.679 250.273 565.072 250.2 565.859 250.08C566.659 249.947 567.112 249.88 567.219 249.88C567.326 249.88 567.419 249.967 567.499 250.14C567.592 250.3 567.699 250.633 567.819 251.14C568.659 250.473 569.566 249.973 570.539 249.64C571.552 249.64 572.312 249.907 572.819 250.44C573.326 250.973 573.579 251.68 573.579 252.56V257.96ZM583.853 257.96C583.066 258.467 582.18 258.893 581.193 259.24C579.98 259.24 578.973 258.827 578.173 258C577.386 257.16 576.993 255.967 576.993 254.42C576.993 252.86 577.38 251.693 578.153 250.92C578.94 250.147 579.94 249.76 581.153 249.76C581.98 249.76 582.866 249.953 583.813 250.34V244.92H582.393C582.206 244.92 582.113 244.673 582.113 244.18C582.113 244.153 582.553 244.08 583.433 243.96C584.326 243.827 584.82 243.76 584.913 243.76C585.126 243.88 585.233 244.067 585.233 244.32V257.66C585.233 258.14 585.52 258.38 586.093 258.38C586.253 258.38 586.453 258.36 586.693 258.32C586.813 258.44 586.873 258.607 586.873 258.82C586.42 259.1 585.946 259.24 585.453 259.24C584.533 259.24 584 258.813 583.853 257.96ZM578.553 254.4C578.553 255.547 578.793 256.44 579.273 257.08C579.753 257.72 580.393 258.04 581.193 258.04C582.006 258.04 582.88 257.74 583.813 257.14V251.1C582.853 250.807 582.06 250.66 581.433 250.66C579.513 250.66 578.553 251.907 578.553 254.4ZM600.815 252.8C600.815 253.907 600.475 254.747 599.795 255.32C599.128 255.893 598.242 256.18 597.135 256.18C596.802 256.18 596.468 256.147 596.135 256.08C595.628 256.787 595.355 257.373 595.315 257.84H598.575C599.642 257.84 600.468 258.1 601.055 258.62C601.642 259.14 601.935 259.773 601.935 260.52C601.935 261.493 601.475 262.353 600.555 263.1C599.635 263.86 598.362 264.24 596.735 264.24C595.588 264.24 594.702 263.973 594.075 263.44C593.448 262.92 593.135 262.213 593.135 261.32C593.135 261.013 593.728 260.24 594.915 259H594.255C594.095 258.88 594.015 258.693 594.015 258.44C594.015 257.867 594.455 256.987 595.335 255.8C594.242 255.28 593.695 254.307 593.695 252.88C593.695 251.853 594.035 251.06 594.715 250.5C595.408 249.927 596.242 249.64 597.215 249.64C598.202 249.64 599.008 249.86 599.635 250.3C600.195 249.807 600.802 249.473 601.455 249.3C601.748 249.647 601.895 249.933 601.895 250.16C601.895 250.387 601.782 250.54 601.555 250.62C601.328 250.687 600.868 250.753 600.175 250.82C600.602 251.353 600.815 252.013 600.815 252.8ZM598.775 259H595.795L594.535 261.08C594.535 261.747 594.722 262.293 595.095 262.72C595.482 263.147 596.175 263.36 597.175 263.36C598.175 263.36 598.988 263.08 599.615 262.52C600.242 261.96 600.555 261.333 600.555 260.64C600.555 260.173 600.395 259.78 600.075 259.46C599.768 259.153 599.335 259 598.775 259ZM595.155 252.54C595.155 253.38 595.335 254.067 595.695 254.6C596.068 255.133 596.575 255.4 597.215 255.4C597.868 255.4 598.388 255.187 598.775 254.76C599.175 254.32 599.375 253.707 599.375 252.92C599.375 252.12 599.175 251.507 598.775 251.08C598.375 250.653 597.908 250.44 597.375 250.44C596.855 250.44 596.375 250.52 595.935 250.68C595.415 251.08 595.155 251.7 595.155 252.54ZM608.207 249.64C609.167 249.64 609.921 250.033 610.467 250.82C611.027 251.593 611.307 252.54 611.307 253.66V254.1C609.627 254.38 607.947 254.52 606.267 254.52H604.967V254.8C604.967 255.893 605.247 256.747 605.807 257.36C606.367 257.973 607.067 258.28 607.907 258.28C608.761 258.28 609.587 258.113 610.387 257.78C610.561 257.94 610.674 258.14 610.727 258.38C609.847 258.953 608.807 259.24 607.607 259.24C606.407 259.24 605.407 258.86 604.607 258.1C603.821 257.34 603.427 256.207 603.427 254.7C603.427 253.18 603.861 251.96 604.727 251.04C605.594 250.107 606.754 249.64 608.207 249.64ZM606.687 250.7C605.781 251.313 605.227 252.333 605.027 253.76C606.574 253.733 608.107 253.593 609.627 253.34C609.667 253.1 609.687 252.873 609.687 252.66C609.687 252.02 609.514 251.52 609.167 251.16C608.821 250.787 608.314 250.6 607.647 250.6C607.287 250.6 606.967 250.633 606.687 250.7ZM618.162 258.28C617.389 258.92 616.582 259.24 615.742 259.24C614.662 259.24 614.122 258.607 614.122 257.34V250.84H612.882C612.696 250.84 612.602 250.58 612.602 250.06L614.262 249.78L614.782 247.54L615.542 247.3V249.88H617.902C617.902 250.52 617.809 250.84 617.622 250.84H615.542V257.22C615.542 257.9 615.802 258.24 616.322 258.24C616.709 258.24 617.209 258.053 617.822 257.68C617.996 257.84 618.109 258.04 618.162 258.28ZM407.88 272.32L407.82 279.1L407.88 279.14C408.72 278.553 409.627 278.093 410.6 277.76C411.813 277.76 412.793 278.16 413.54 278.96C414.3 279.747 414.68 280.94 414.68 282.54C414.68 284.127 414.28 285.307 413.48 286.08C412.693 286.853 411.673 287.24 410.42 287.24C409.433 287.24 408.433 287.033 407.42 286.62L407.14 287H406.46V272.92H404.98C404.793 272.92 404.7 272.673 404.7 272.18C404.7 272.153 405.153 272.08 406.06 271.96C406.967 271.827 407.467 271.76 407.56 271.76C407.773 271.88 407.88 272.067 407.88 272.32ZM413.12 282.48C413.12 281.333 412.887 280.44 412.42 279.8C411.953 279.147 411.34 278.82 410.58 278.82C409.833 278.82 409.06 279.073 408.26 279.58C408.007 280.207 407.88 280.72 407.88 281.12V285.96C408.68 286.227 409.42 286.36 410.1 286.36C412.113 286.36 413.12 285.067 413.12 282.48ZM422.248 285.18V282.48C420.515 282.693 419.268 283.133 418.508 283.8C418.442 284.067 418.408 284.38 418.408 284.74C418.408 285.087 418.508 285.407 418.708 285.7C418.908 285.98 419.215 286.12 419.628 286.12C420.442 286.12 421.315 285.807 422.248 285.18ZM420.068 278.4C420.028 278.44 419.895 278.58 419.668 278.82C419.442 279.047 419.248 279.233 419.088 279.38C418.608 279.82 418.248 280.04 418.008 280.04C417.768 280.04 417.575 279.907 417.428 279.64C417.282 279.36 417.195 279.107 417.168 278.88C418.235 278.293 419.388 277.88 420.628 277.64C421.642 277.64 422.402 277.907 422.908 278.44C423.415 278.973 423.668 279.68 423.668 280.56V285.66C423.668 286.14 423.955 286.38 424.528 286.38C424.688 286.38 424.888 286.36 425.128 286.32C425.248 286.44 425.308 286.607 425.308 286.82C424.855 287.1 424.382 287.24 423.888 287.24C422.968 287.24 422.435 286.813 422.288 285.96C420.648 286.813 419.522 287.24 418.908 287.24C418.295 287.24 417.802 287.013 417.428 286.56C417.068 286.107 416.888 285.573 416.888 284.96C416.888 284.133 417.328 283.413 418.208 282.8C419.102 282.187 420.448 281.86 422.248 281.82V280.62C422.248 279.98 422.048 279.453 421.648 279.04C421.262 278.613 420.735 278.4 420.068 278.4ZM433.91 285.78C434.097 285.927 434.217 286.127 434.27 286.38C433.377 286.953 432.443 287.24 431.47 287.24C430.15 287.24 429.077 286.827 428.25 286C427.423 285.16 427.01 283.98 427.01 282.46C427.01 280.927 427.457 279.74 428.35 278.9C429.243 278.06 430.37 277.64 431.73 277.64C432.557 277.787 433.363 278.047 434.15 278.42C434.15 278.7 434.077 278.98 433.93 279.26C433.797 279.54 433.67 279.68 433.55 279.68C433.243 279.68 432.95 279.587 432.67 279.4C432.403 279.2 432.123 279 431.83 278.8C431.55 278.6 431.363 278.467 431.27 278.4C429.47 278.64 428.57 279.967 428.57 282.38C428.57 283.593 428.85 284.547 429.41 285.24C429.983 285.933 430.757 286.28 431.73 286.28C432.41 286.28 433.137 286.113 433.91 285.78ZM438.162 286.92L435.982 287C435.795 287 435.702 286.8 435.702 286.4L437.422 285.96V272.92H436.002C435.815 272.92 435.722 272.673 435.722 272.18C435.722 272.153 436.162 272.08 437.042 271.96C437.935 271.827 438.428 271.76 438.522 271.76C438.735 271.88 438.842 272.067 438.842 272.32V281.38H439.962L441.902 278.88L440.662 278.48C440.662 278.08 440.755 277.88 440.942 277.88L442.302 277.96L444.302 277.88C444.488 277.88 444.582 278.08 444.582 278.48L443.242 278.92L440.802 281.7L443.742 285.96L445.402 286.4C445.402 286.8 445.308 287 445.122 287H442.822L439.542 282.18L438.842 282.26V285.96L440.282 286.4C440.282 286.8 440.188 287 440.002 287L438.162 286.92ZM456.393 286.28C455.619 286.92 454.813 287.24 453.973 287.24C452.893 287.24 452.353 286.607 452.353 285.34V278.84H451.113C450.926 278.84 450.833 278.58 450.833 278.06L452.493 277.78L453.013 275.54L453.773 275.3V277.88H456.133C456.133 278.52 456.039 278.84 455.853 278.84H453.773V285.22C453.773 285.9 454.033 286.24 454.553 286.24C454.939 286.24 455.439 286.053 456.053 285.68C456.226 285.84 456.339 286.04 456.393 286.28ZM462.445 277.64C463.725 277.64 464.772 278.047 465.585 278.86C466.412 279.66 466.825 280.833 466.825 282.38C466.825 283.927 466.405 285.127 465.565 285.98C464.738 286.82 463.665 287.24 462.345 287.24C461.025 287.24 459.965 286.827 459.165 286C458.378 285.16 457.985 283.98 457.985 282.46C457.985 280.927 458.412 279.74 459.265 278.9C460.118 278.06 461.178 277.64 462.445 277.64ZM459.545 282.38C459.545 283.673 459.805 284.66 460.325 285.34C460.858 286.02 461.552 286.36 462.405 286.36C463.258 286.36 463.945 286.02 464.465 285.34C464.998 284.66 465.265 283.687 465.265 282.42C465.265 281.153 464.998 280.187 464.465 279.52C463.932 278.853 463.292 278.52 462.545 278.52C461.798 278.52 461.192 278.62 460.725 278.82C459.938 279.46 459.545 280.647 459.545 282.38ZM480.821 278.92L477.861 287L475.661 291.86C475.555 292.113 475.375 292.24 475.121 292.24C474.868 292.24 474.488 292.1 473.981 291.82L474.541 290.92C474.901 290.307 475.335 289.567 475.841 288.7C476.361 287.847 476.735 287.233 476.961 286.86L473.881 278.92L472.941 278.48C472.941 278.08 473.035 277.88 473.221 277.88L474.781 277.96L476.241 277.88C476.428 277.88 476.521 278.08 476.521 278.48L475.281 278.88L477.661 285L479.841 278.88L478.601 278.48C478.601 278.08 478.688 277.88 478.861 277.88L480.241 277.96L481.481 277.88C481.668 277.88 481.761 278.08 481.761 278.48L480.821 278.92ZM487.63 277.64C488.91 277.64 489.956 278.047 490.77 278.86C491.596 279.66 492.01 280.833 492.01 282.38C492.01 283.927 491.59 285.127 490.75 285.98C489.923 286.82 488.85 287.24 487.53 287.24C486.21 287.24 485.15 286.827 484.35 286C483.563 285.16 483.17 283.98 483.17 282.46C483.17 280.927 483.596 279.74 484.45 278.9C485.303 278.06 486.363 277.64 487.63 277.64ZM484.73 282.38C484.73 283.673 484.99 284.66 485.51 285.34C486.043 286.02 486.736 286.36 487.59 286.36C488.443 286.36 489.13 286.02 489.65 285.34C490.183 284.66 490.45 283.687 490.45 282.42C490.45 281.153 490.183 280.187 489.65 279.52C489.116 278.853 488.476 278.52 487.73 278.52C486.983 278.52 486.376 278.62 485.91 278.82C485.123 279.46 484.73 280.647 484.73 282.38ZM495.219 278.8H493.799C493.612 278.8 493.519 278.553 493.519 278.06C493.519 278.033 493.959 277.96 494.839 277.84C495.732 277.707 496.225 277.64 496.319 277.64C496.532 277.76 496.639 277.947 496.639 278.2V284.28C496.639 284.933 496.825 285.393 497.199 285.66C497.572 285.927 498.012 286.06 498.519 286.06C499.319 286.06 500.165 285.727 501.059 285.06V278.8H499.639C499.452 278.8 499.359 278.553 499.359 278.06C499.359 278.033 499.799 277.96 500.679 277.84C501.572 277.707 502.065 277.64 502.159 277.64C502.372 277.76 502.479 277.947 502.479 278.2V285.66C502.479 286.14 502.765 286.38 503.339 286.38C503.499 286.38 503.699 286.36 503.939 286.32C504.059 286.44 504.119 286.607 504.119 286.82C503.665 287.1 503.192 287.24 502.699 287.24C501.779 287.24 501.245 286.813 501.099 285.96C500.219 286.533 499.459 286.92 498.819 287.12C498.579 287.2 498.425 287.24 498.359 287.24C497.265 287.24 496.465 286.973 495.959 286.44C495.465 285.893 495.219 285.167 495.219 284.26V278.8ZM508.868 279.14C509.748 278.34 510.642 277.833 511.548 277.62C511.855 277.967 512.008 278.373 512.008 278.84C512.008 279.12 511.075 279.32 509.208 279.44C508.955 280.133 508.828 280.74 508.828 281.26V285.96L511.068 286.4C511.068 286.8 510.975 287 510.788 287L508.148 286.92L505.968 287C505.782 287 505.688 286.8 505.688 286.4L507.408 285.96V279.04H505.968C505.782 279.04 505.688 278.793 505.688 278.3C505.688 278.273 506.082 278.2 506.868 278.08C507.668 277.947 508.115 277.88 508.208 277.88C508.408 277.88 508.602 278.273 508.788 279.06L508.868 279.14ZM522.12 271.76C522.546 271.76 523.073 271.847 523.7 272.02C524.326 272.193 524.793 272.367 525.1 272.54C525.1 272.82 525.026 273.1 524.88 273.38C524.746 273.66 524.62 273.8 524.5 273.8C524.193 273.8 523.9 273.707 523.62 273.52C523.353 273.32 523.073 273.12 522.78 272.92C522.5 272.72 522.313 272.587 522.22 272.52C521.713 272.96 521.46 274.347 521.46 276.68V277.86H523.84C523.84 278.5 523.746 278.82 523.56 278.82H521.46V285.96L523.7 286.4C523.7 286.8 523.606 287 523.42 287L520.78 286.92L518.6 287C518.413 287 518.32 286.8 518.32 286.4L520.04 285.96V278.82H518.82C518.633 278.82 518.54 278.56 518.54 278.04L520.04 277.8C520.04 276.28 520.126 275.147 520.3 274.4C520.473 273.64 520.706 273.067 521 272.68C521.293 272.293 521.666 271.987 522.12 271.76ZM529.877 287L527.737 286.92L525.577 287C525.39 287 525.297 286.8 525.297 286.4L527.017 285.96V272.92H525.597C525.41 272.92 525.317 272.673 525.317 272.18C525.317 272.153 525.757 272.08 526.637 271.96C527.53 271.827 528.024 271.76 528.117 271.76C528.33 271.88 528.437 272.067 528.437 272.32V285.96L530.157 286.4C530.157 286.8 530.064 287 529.877 287ZM536.221 277.64C537.501 277.64 538.548 278.047 539.361 278.86C540.188 279.66 540.601 280.833 540.601 282.38C540.601 283.927 540.181 285.127 539.341 285.98C538.514 286.82 537.441 287.24 536.121 287.24C534.801 287.24 533.741 286.827 532.941 286C532.154 285.16 531.761 283.98 531.761 282.46C531.761 280.927 532.188 279.74 533.041 278.9C533.894 278.06 534.954 277.64 536.221 277.64ZM533.321 282.38C533.321 283.673 533.581 284.66 534.101 285.34C534.634 286.02 535.328 286.36 536.181 286.36C537.034 286.36 537.721 286.02 538.241 285.34C538.774 284.66 539.041 283.687 539.041 282.42C539.041 281.153 538.774 280.187 538.241 279.52C537.708 278.853 537.068 278.52 536.321 278.52C535.574 278.52 534.968 278.62 534.501 278.82C533.714 279.46 533.321 280.647 533.321 282.38ZM546.21 287H545.05L542.55 278.92L541.61 278.48C541.61 278.08 541.703 277.88 541.89 277.88L543.45 277.96L544.91 277.88C545.097 277.88 545.19 278.08 545.19 278.48L543.95 278.88L545.83 285.12L547.93 277.88H548.49L550.67 285.12L552.49 278.88L551.25 278.48C551.25 278.08 551.343 277.88 551.53 277.88L552.89 277.96L554.13 277.88C554.317 277.88 554.41 278.08 554.41 278.48L553.47 278.92L551.05 287H549.91L548.01 280.9L546.21 287ZM560.583 277.64C561.543 277.64 562.296 278.033 562.843 278.82C563.403 279.593 563.683 280.54 563.683 281.66V282.1C562.003 282.38 560.323 282.52 558.643 282.52H557.343V282.8C557.343 283.893 557.623 284.747 558.183 285.36C558.743 285.973 559.443 286.28 560.283 286.28C561.136 286.28 561.963 286.113 562.763 285.78C562.936 285.94 563.05 286.14 563.103 286.38C562.223 286.953 561.183 287.24 559.983 287.24C558.783 287.24 557.783 286.86 556.983 286.1C556.196 285.34 555.803 284.207 555.803 282.7C555.803 281.18 556.236 279.96 557.103 279.04C557.97 278.107 559.13 277.64 560.583 277.64ZM559.063 278.7C558.156 279.313 557.603 280.333 557.403 281.76C558.95 281.733 560.483 281.593 562.003 281.34C562.043 281.1 562.063 280.873 562.063 280.66C562.063 280.02 561.89 279.52 561.543 279.16C561.196 278.787 560.69 278.6 560.023 278.6C559.663 278.6 559.343 278.633 559.063 278.7ZM568.758 279.14C569.638 278.34 570.531 277.833 571.438 277.62C571.745 277.967 571.898 278.373 571.898 278.84C571.898 279.12 570.965 279.32 569.098 279.44C568.845 280.133 568.718 280.74 568.718 281.26V285.96L570.958 286.4C570.958 286.8 570.865 287 570.678 287L568.038 286.92L565.858 287C565.671 287 565.578 286.8 565.578 286.4L567.298 285.96V279.04H565.858C565.671 279.04 565.578 278.793 565.578 278.3C565.578 278.273 565.971 278.2 566.758 278.08C567.558 277.947 568.005 277.88 568.098 277.88C568.298 277.88 568.491 278.273 568.678 279.06L568.758 279.14Z" fill="#1C274C"/>
<path d="M519.969 40.5937C519.969 43.9456 517.389 46.5625 514.328 46.5625C511.267 46.5625 508.688 43.9456 508.688 40.5937C508.688 37.2419 511.267 34.625 514.328 34.625C517.389 34.625 519.969 37.2419 519.969 40.5937Z" stroke="#1C274C" stroke-width="2.5"/>
<path d="M519.25 45.1875L528.437 54.375" stroke="#1C274C" stroke-width="1.2"/>
<path d="M532.389 29.0725C530.614 31.9155 527.04 32.7688 524.443 31.1474C521.847 29.526 521.045 25.9401 522.821 23.097C524.596 20.254 528.17 19.4007 530.766 21.0221C533.363 22.6435 534.165 26.2294 532.389 29.0725Z" stroke="#1C274C" stroke-width="2.5"/>
<path d="M529.348 32.5889L532.274 45.2481" stroke="#1C274C" stroke-width="1.2"/>
<path d="M528.628 56.2258C529.718 59.6791 527.919 63.2641 524.699 64.2802C521.479 65.2963 517.948 63.3927 516.859 59.9395C515.769 56.4862 517.568 52.9012 520.788 51.8851C524.008 50.869 527.538 52.7726 528.628 56.2258Z" fill="#1C274C" stroke="#1C274C" stroke-width="1.44"/>
<path d="M528.82 60.9805L540.347 66.9775" stroke="#1C274C" stroke-width="1.2"/>
<path d="M510.92 22.2461C511.454 25.8276 509.115 29.0857 505.775 29.5835C502.435 30.0813 499.248 27.647 498.714 24.0655C498.18 20.4839 500.519 17.2259 503.859 16.7281C507.199 16.2303 510.386 18.6646 510.92 22.2461Z" fill="#1C274C" stroke="#1C274C" stroke-width="1.44"/>
<path d="M510.363 26.9727L520.805 34.7053" stroke="#1C274C" stroke-width="1.2"/>
<path d="M507.896 51.6666C509.837 54.7231 509.022 58.6502 506.172 60.4609C503.322 62.2715 499.42 61.3407 497.479 58.2842C495.537 55.2278 496.352 51.3007 499.202 49.49C502.053 47.6793 505.954 48.6101 507.896 51.6666Z" fill="#1C274C" stroke="#1C274C" stroke-width="1.44"/>
<path d="M509.305 56.2124L521.986 59.0408" stroke="#1C274C" stroke-width="1.2"/>
<path d="M550.562 63.562C550.562 70.7737 544.999 76.4995 538.281 76.4995C531.563 76.4995 526 70.7737 526 63.562C526 56.3503 531.563 50.6245 538.281 50.6245C544.999 50.6245 550.562 56.3503 550.562 63.562Z" stroke="#1C274C" stroke-width="3"/>
<path d="M422.103 18.2532C422.103 21.2068 419.829 23.5222 417.118 23.5222C414.408 23.5222 412.134 21.2068 412.134 18.2532C412.134 15.2995 414.408 12.9841 417.118 12.9841C419.829 12.9841 422.103 15.2995 422.103 18.2532Z" stroke="#1C274C" stroke-width="1.9683"/>
<path d="M421.737 18.2532C421.737 21.021 419.611 23.1563 417.118 23.1563C414.626 23.1563 412.499 21.021 412.499 18.2532C412.499 15.4854 414.626 13.35 417.118 13.35C419.611 13.35 421.737 15.4854 421.737 18.2532Z" fill="#F4CE0B" stroke="#1C274C" stroke-width="2.7"/>
<path d="M439.929 26.2117C439.929 28.9795 437.802 31.1148 435.31 31.1148C432.817 31.1148 430.691 28.9795 430.691 26.2117C430.691 23.4438 432.817 21.3085 435.31 21.3085C437.802 21.3085 439.929 23.4438 439.929 26.2117Z" stroke="#1C274C" stroke-width="2.7"/>
<path d="M439.929 63.7307C439.929 66.4985 437.802 68.6339 435.31 68.6339C432.817 68.6339 430.691 66.4985 430.691 63.7307C430.691 60.9629 432.817 58.8275 435.31 58.8275C437.802 58.8275 439.929 60.9629 439.929 63.7307Z" stroke="#1C274C" stroke-width="2.7"/>
<path d="M402.409 26.2117C402.409 28.9795 400.283 31.1148 397.79 31.1148C395.298 31.1148 393.171 28.9795 393.171 26.2117C393.171 23.4438 395.298 21.3085 397.79 21.3085C400.283 21.3085 402.409 23.4438 402.409 26.2117Z" stroke="#1C274C" stroke-width="2.7"/>
<path d="M402.409 63.7307C402.409 66.4985 400.283 68.6339 397.79 68.6339C395.298 68.6339 393.171 66.4985 393.171 63.7307C393.171 60.9629 395.298 58.8275 397.79 58.8275C400.283 58.8275 402.409 60.9629 402.409 63.7307Z" stroke="#1C274C" stroke-width="2.7"/>
<path d="M421.737 70.552C421.737 73.3198 419.611 75.4552 417.118 75.4552C414.626 75.4552 412.499 73.3198 412.499 70.552C412.499 67.7842 414.626 65.6488 417.118 65.6488C419.611 65.6488 421.737 67.7842 421.737 70.552Z" fill="#F4CE0B" stroke="#1C274C" stroke-width="2.7"/>
<path d="M447.887 45.5398C447.887 48.3076 445.76 50.443 443.268 50.443C440.775 50.443 438.649 48.3076 438.649 45.5398C438.649 42.772 440.775 40.6366 443.268 40.6366C445.76 40.6366 447.887 42.772 447.887 45.5398Z" fill="#F4CE0B" stroke="#1C274C" stroke-width="2.7"/>
<path d="M395.588 45.5398C395.588 48.3076 393.461 50.443 390.969 50.443C388.476 50.443 386.35 48.3076 386.35 45.5398C386.35 42.772 388.476 40.6366 390.969 40.6366C393.461 40.6366 395.588 42.772 395.588 45.5398Z" fill="#F4CE0B" stroke="#1C274C" stroke-width="2.7"/>
<path d="M417.062 23.938V64.2994" stroke="#1C274C" stroke-width="1.64025"/>
<path d="M396.369 46.1079H437.299" stroke="#1C274C" stroke-width="1.64025"/>
<path d="M402.055 30.1914L431.615 59.7519" stroke="#1C274C" stroke-width="1.64025"/>
<path d="M402.055 60.3202L431.615 30.7598" stroke="#1C274C" stroke-width="1.64025"/>
<path d="M427.75 44.9712C427.75 51.0701 423.048 55.8865 417.403 55.8865C411.757 55.8865 407.056 51.0701 407.056 44.9712C407.056 38.8723 411.757 34.0559 417.403 34.0559C423.048 34.0559 427.75 38.8723 427.75 44.9712Z" fill="#F4CE0B" stroke="#1C274C" stroke-width="3.18208"/>
<path d="M608.1 77H622.9M634 39.6667C634 29.3574 625.717 21 615.5 21C605.283 21 597 29.3574 597 39.6667C597 47.3211 601.566 53.8996 608.1 56.7803V65.8H622.9V56.7803C629.434 53.8996 634 47.3211 634 39.6667Z" stroke="#1C274C" stroke-width="3" stroke-linecap="round" stroke-linejoin="round"/>
</svg>
