<svg width="65" height="69" viewBox="0 0 65 69" fill="none" xmlns="http://www.w3.org/2000/svg">
<g filter="url(#filter0_d_304_47)">
<g filter="url(#filter1_f_304_47)">
<path d="M42.03 33C42.03 38.5824 37.7212 43.03 32.5 43.03C27.2788 43.03 22.97 38.5824 22.97 33C22.97 27.4176 27.2788 22.97 32.5 22.97C37.7212 22.97 42.03 27.4176 42.03 33Z" fill="white" stroke="white" stroke-width="1.94"/>
<path d="M36.9 9.5C36.9 12.2328 34.7921 14.4 32.25 14.4C29.7079 14.4 27.6 12.2328 27.6 9.5C27.6 6.76719 29.7079 4.6 32.25 4.6C34.7921 4.6 36.9 6.76719 36.9 9.5Z" stroke="white" stroke-width="1.2"/>
<path d="M36.9 9.5C36.9 12.2328 34.7921 14.4 32.25 14.4C29.7079 14.4 27.6 12.2328 27.6 9.5C27.6 6.76719 29.7079 4.6 32.25 4.6C34.7921 4.6 36.9 6.76719 36.9 9.5Z" fill="white" stroke="white" stroke-width="1.2"/>
<path d="M52.9 16.5C52.9 19.2328 50.7921 21.4 48.25 21.4C45.7079 21.4 43.6 19.2328 43.6 16.5C43.6 13.7672 45.7079 11.6 48.25 11.6C50.7921 11.6 52.9 13.7672 52.9 16.5Z" stroke="white" stroke-width="1.2"/>
<path d="M52.9 49.5C52.9 52.2328 50.7921 54.4 48.25 54.4C45.7079 54.4 43.6 52.2328 43.6 49.5C43.6 46.7672 45.7079 44.6 48.25 44.6C50.7921 44.6 52.9 46.7672 52.9 49.5Z" stroke="white" stroke-width="1.2"/>
<path d="M19.9 16.5C19.9 19.2328 17.7921 21.4 15.25 21.4C12.7079 21.4 10.6 19.2328 10.6 16.5C10.6 13.7672 12.7079 11.6 15.25 11.6C17.7921 11.6 19.9 13.7672 19.9 16.5Z" stroke="white" stroke-width="1.2"/>
<path d="M19.9 49.5C19.9 52.2328 17.7921 54.4 15.25 54.4C12.7079 54.4 10.6 52.2328 10.6 49.5C10.6 46.7672 12.7079 44.6 15.25 44.6C17.7921 44.6 19.9 46.7672 19.9 49.5Z" stroke="white" stroke-width="1.2"/>
<path d="M36.9 55.5C36.9 58.2328 34.7921 60.4 32.25 60.4C29.7079 60.4 27.6 58.2328 27.6 55.5C27.6 52.7672 29.7079 50.6 32.25 50.6C34.7921 50.6 36.9 52.7672 36.9 55.5Z" fill="white" stroke="white" stroke-width="1.2"/>
<path d="M59.9 33.5C59.9 36.2328 57.7921 38.4 55.25 38.4C52.7079 38.4 50.6 36.2328 50.6 33.5C50.6 30.7672 52.7079 28.6 55.25 28.6C57.7921 28.6 59.9 30.7672 59.9 33.5Z" fill="white" stroke="white" stroke-width="1.2"/>
<path d="M13.9 33.5C13.9 36.2328 11.7921 38.4 9.25 38.4C6.70787 38.4 4.6 36.2328 4.6 33.5C4.6 30.7672 6.70787 28.6 9.25 28.6C11.7921 28.6 13.9 30.7672 13.9 33.5Z" fill="white" stroke="white" stroke-width="1.2"/>
<path d="M32.2002 14.5V50" stroke="white"/>
<path d="M14 34H50" stroke="white"/>
<path d="M19 20L45 46" stroke="white"/>
<path d="M19 46.5L45 20.5" stroke="white"/>
</g>
<path d="M42.03 33C42.03 38.5824 37.7212 43.03 32.5 43.03C27.2788 43.03 22.97 38.5824 22.97 33C22.97 27.4176 27.2788 22.97 32.5 22.97C37.7212 22.97 42.03 27.4176 42.03 33Z" fill="white" stroke="white" stroke-width="1.94"/>
<path d="M36.9 9.5C36.9 12.2328 34.7921 14.4 32.25 14.4C29.7079 14.4 27.6 12.2328 27.6 9.5C27.6 6.76719 29.7079 4.6 32.25 4.6C34.7921 4.6 36.9 6.76719 36.9 9.5Z" stroke="white" stroke-width="1.2"/>
<path d="M36.9 9.5C36.9 12.2328 34.7921 14.4 32.25 14.4C29.7079 14.4 27.6 12.2328 27.6 9.5C27.6 6.76719 29.7079 4.6 32.25 4.6C34.7921 4.6 36.9 6.76719 36.9 9.5Z" fill="white" stroke="white" stroke-width="1.2"/>
<path d="M52.9 16.5C52.9 19.2328 50.7921 21.4 48.25 21.4C45.7079 21.4 43.6 19.2328 43.6 16.5C43.6 13.7672 45.7079 11.6 48.25 11.6C50.7921 11.6 52.9 13.7672 52.9 16.5Z" stroke="white" stroke-width="1.2"/>
<path d="M52.9 49.5C52.9 52.2328 50.7921 54.4 48.25 54.4C45.7079 54.4 43.6 52.2328 43.6 49.5C43.6 46.7672 45.7079 44.6 48.25 44.6C50.7921 44.6 52.9 46.7672 52.9 49.5Z" stroke="white" stroke-width="1.2"/>
<path d="M19.9 16.5C19.9 19.2328 17.7921 21.4 15.25 21.4C12.7079 21.4 10.6 19.2328 10.6 16.5C10.6 13.7672 12.7079 11.6 15.25 11.6C17.7921 11.6 19.9 13.7672 19.9 16.5Z" stroke="white" stroke-width="1.2"/>
<path d="M19.9 49.5C19.9 52.2328 17.7921 54.4 15.25 54.4C12.7079 54.4 10.6 52.2328 10.6 49.5C10.6 46.7672 12.7079 44.6 15.25 44.6C17.7921 44.6 19.9 46.7672 19.9 49.5Z" stroke="white" stroke-width="1.2"/>
<path d="M36.9 55.5C36.9 58.2328 34.7921 60.4 32.25 60.4C29.7079 60.4 27.6 58.2328 27.6 55.5C27.6 52.7672 29.7079 50.6 32.25 50.6C34.7921 50.6 36.9 52.7672 36.9 55.5Z" fill="white" stroke="white" stroke-width="1.2"/>
<path d="M59.9 33.5C59.9 36.2328 57.7921 38.4 55.25 38.4C52.7079 38.4 50.6 36.2328 50.6 33.5C50.6 30.7672 52.7079 28.6 55.25 28.6C57.7921 28.6 59.9 30.7672 59.9 33.5Z" fill="white" stroke="white" stroke-width="1.2"/>
<path d="M13.9 33.5C13.9 36.2328 11.7921 38.4 9.25 38.4C6.70787 38.4 4.6 36.2328 4.6 33.5C4.6 30.7672 6.70787 28.6 9.25 28.6C11.7921 28.6 13.9 30.7672 13.9 33.5Z" fill="white" stroke="white" stroke-width="1.2"/>
<path d="M32.2002 14.5V50" stroke="white"/>
<path d="M14 34H50" stroke="white"/>
<path d="M19 20L45 46" stroke="white"/>
<path d="M19 46.5L45 20.5" stroke="white"/>
</g>
<defs>
<filter id="filter0_d_304_47" x="0" y="4" width="64.5" height="65" filterUnits="userSpaceOnUse" color-interpolation-filters="sRGB">
<feFlood flood-opacity="0" result="BackgroundImageFix"/>
<feColorMatrix in="SourceAlpha" type="matrix" values="0 0 0 0 0 0 0 0 0 0 0 0 0 0 0 0 0 0 127 0" result="hardAlpha"/>
<feOffset dy="4"/>
<feGaussianBlur stdDeviation="2"/>
<feComposite in2="hardAlpha" operator="out"/>
<feColorMatrix type="matrix" values="0 0 0 0 0 0 0 0 0 0 0 0 0 0 0 0 0 0 0.25 0"/>
<feBlend mode="normal" in2="BackgroundImageFix" result="effect1_dropShadow_304_47"/>
<feBlend mode="normal" in="SourceGraphic" in2="effect1_dropShadow_304_47" result="shape"/>
</filter>
<filter id="filter1_f_304_47" x="0.11" y="0.11" width="64.28" height="64.78" filterUnits="userSpaceOnUse" color-interpolation-filters="sRGB">
<feFlood flood-opacity="0" result="BackgroundImageFix"/>
<feBlend mode="normal" in="SourceGraphic" in2="BackgroundImageFix" result="shape"/>
<feGaussianBlur stdDeviation="1.945" result="effect1_foregroundBlur_304_47"/>
</filter>
</defs>
</svg>
