<svg width="50" height="50" viewBox="0 0 50 50" fill="none" xmlns="http://www.w3.org/2000/svg">
<g filter="url(#filter0_f_431_100)">
<path d="M25.4 30.7V34.3M16.4 22.6518C17.2486 22.6 18.2947 22.6 19.64 22.6H31.16C32.5053 22.6 33.5515 22.6 34.4 22.6518M16.4 22.6518C15.341 22.7165 14.5897 22.8619 13.9485 23.1886C12.9324 23.7063 12.1063 24.5323 11.5886 25.5484C11 26.7036 11 28.2156 11 31.24V33.76C11 36.7844 11 38.2964 11.5886 39.4516C12.1063 40.4677 12.9324 41.2937 13.9485 41.8114C15.1036 42.4 16.6157 42.4 19.64 42.4H31.16C34.1844 42.4 35.6964 42.4 36.8516 41.8114C37.8677 41.2937 38.6937 40.4677 39.2114 39.4516C39.8 38.2964 39.8 36.7844 39.8 33.76V31.24C39.8 28.2156 39.8 26.7036 39.2114 25.5484C38.6937 24.5323 37.8677 23.7063 36.8516 23.1886C36.2103 22.8619 35.4589 22.7165 34.4 22.6518M16.4 22.6518V19C16.4 14.0294 20.4294 10 25.4 10C30.3705 10 34.4 14.0294 34.4 19V22.6518" stroke="#1D284C" stroke-width="3.6" stroke-linecap="round" stroke-linejoin="round"/>
</g>
<path d="M25.4 30.7V34.3M16.4 22.6518C17.2486 22.6 18.2947 22.6 19.64 22.6H31.16C32.5053 22.6 33.5515 22.6 34.4 22.6518M16.4 22.6518C15.341 22.7165 14.5897 22.8619 13.9485 23.1886C12.9324 23.7063 12.1063 24.5323 11.5886 25.5484C11 26.7036 11 28.2156 11 31.24V33.76C11 36.7844 11 38.2964 11.5886 39.4516C12.1063 40.4677 12.9324 41.2937 13.9485 41.8114C15.1036 42.4 16.6157 42.4 19.64 42.4H31.16C34.1844 42.4 35.6964 42.4 36.8516 41.8114C37.8677 41.2937 38.6937 40.4677 39.2114 39.4516C39.8 38.2964 39.8 36.7844 39.8 33.76V31.24C39.8 28.2156 39.8 26.7036 39.2114 25.5484C38.6937 24.5323 37.8677 23.7063 36.8516 23.1886C36.2103 22.8619 35.4589 22.7165 34.4 22.6518M16.4 22.6518V19C16.4 14.0294 20.4294 10 25.4 10C30.3705 10 34.4 14.0294 34.4 19V22.6518" stroke="#1D284C" stroke-width="3.6" stroke-linecap="round" stroke-linejoin="round"/>
<defs>
<filter id="filter0_f_431_100" x="5.2002" y="4.2002" width="40.3994" height="44" filterUnits="userSpaceOnUse" color-interpolation-filters="sRGB">
<feFlood flood-opacity="0" result="BackgroundImageFix"/>
<feBlend mode="normal" in="SourceGraphic" in2="BackgroundImageFix" result="shape"/>
<feGaussianBlur stdDeviation="2" result="effect1_foregroundBlur_431_100"/>
</filter>
</defs>
</svg>
