<svg width="50" height="50" viewBox="0 0 50 50" fill="none" xmlns="http://www.w3.org/2000/svg">
<g filter="url(#filter0_f_485_328)">
<path d="M24.458 14.25L35.4163 6.25V22.3333" stroke="white" stroke-width="2" stroke-linecap="round" stroke-linejoin="round"/>
<path d="M13.6878 16.6665H12.5003C11.9478 16.6665 11.4179 16.886 11.0272 17.2767C10.6365 17.6674 10.417 18.1973 10.417 18.7498V31.2498C10.417 31.8024 10.6365 32.3323 11.0272 32.723C11.4179 33.1137 11.9478 33.3332 12.5003 33.3332H21.167L35.417 43.7498V32.6665L13.6878 16.6665Z" stroke="white" stroke-width="2" stroke-linecap="round" stroke-linejoin="round"/>
<path d="M43.75 38.8125L6.25 11.1875" stroke="white" stroke-width="2" stroke-linecap="round" stroke-linejoin="round"/>
</g>
<path d="M24.4307 13.7125L35.9369 5.3125V22.2" stroke="white" stroke-width="2" stroke-linecap="round" stroke-linejoin="round"/>
<path d="M13.1219 16.25H11.875C11.2948 16.25 10.7384 16.4805 10.3282 16.8907C9.91797 17.3009 9.6875 17.8573 9.6875 18.4375V31.5625C9.6875 32.1427 9.91797 32.6991 10.3282 33.1093C10.7384 33.5195 11.2948 33.75 11.875 33.75H20.975L35.9375 44.6875V33.05L13.1219 16.25Z" stroke="white" stroke-width="2" stroke-linecap="round" stroke-linejoin="round"/>
<path d="M44.6875 39.5033L5.3125 10.4971" stroke="white" stroke-width="2" stroke-linecap="round" stroke-linejoin="round"/>
<defs>
<filter id="filter0_f_485_328" x="1.25" y="1.25" width="47.5" height="47.5" filterUnits="userSpaceOnUse" color-interpolation-filters="sRGB">
<feFlood flood-opacity="0" result="BackgroundImageFix"/>
<feBlend mode="normal" in="SourceGraphic" in2="BackgroundImageFix" result="shape"/>
<feGaussianBlur stdDeviation="2" result="effect1_foregroundBlur_485_328"/>
</filter>
</defs>
</svg>
