<svg width="58" height="56" viewBox="0 0 58 56" fill="none" xmlns="http://www.w3.org/2000/svg">
<g filter="url(#filter0_f_304_110)">
<path d="M27.0168 7.48513C27.6451 6.06854 27.9594 5.36024 28.3969 5.14213C28.7769 4.95262 29.2231 4.95262 29.6031 5.14213C30.0406 5.36024 30.3549 6.06854 30.9833 7.48513L35.9881 18.7685C36.1741 19.1873 36.2669 19.3967 36.4107 19.557C36.5377 19.6989 36.6933 19.8124 36.8667 19.8901C37.0629 19.9779 37.2898 20.0019 37.7436 20.05L49.969 21.3467C51.5038 21.5095 52.2711 21.5909 52.6128 21.9416C52.9095 22.2462 53.0473 22.6728 52.9855 23.0946C52.9144 23.5801 52.3411 24.0991 51.1947 25.1375L42.0624 33.4077C41.7237 33.7145 41.554 33.8681 41.4468 34.0549C41.3518 34.2205 41.2924 34.404 41.2726 34.5939C41.25 34.8085 41.2973 35.0327 41.392 35.4814L43.9428 47.566C44.263 49.0833 44.4232 49.8418 44.1968 50.2766C44 50.6546 43.639 50.9181 43.2208 50.9892C42.7393 51.0711 42.0708 50.6838 40.7338 49.9089L30.0849 43.7366C29.6897 43.5075 29.4921 43.3932 29.282 43.3482C29.0961 43.3087 28.9039 43.3087 28.718 43.3482C28.508 43.3932 28.3104 43.5075 27.9152 43.7366L17.2663 49.9089C15.9294 50.6838 15.2609 51.0711 14.7794 50.9892C14.3611 50.9181 14 50.6546 13.8034 50.2766C13.5771 49.8418 13.7372 49.0833 14.0574 47.566L16.6081 35.4814C16.7027 35.0327 16.7501 34.8085 16.7276 34.5939C16.7077 34.404 16.6483 34.2205 16.5533 34.0549C16.446 33.8681 16.2765 33.7145 15.9376 33.4077L6.80554 25.1375C5.65906 24.0991 5.0858 23.5801 5.01453 23.0946C4.95265 22.6728 5.09055 22.2462 5.38732 21.9416C5.72898 21.5909 6.4964 21.5095 8.03125 21.3467L20.2565 20.05C20.7103 20.0019 20.9371 19.9779 21.1333 19.8901C21.3069 19.8124 21.4623 19.6989 21.5895 19.557C21.7332 19.3967 21.8261 19.1873 22.0119 18.7685L27.0168 7.48513Z" stroke="white" stroke-width="1.94" stroke-linecap="round" stroke-linejoin="round"/>
</g>
<path d="M27.0168 7.48513C27.6451 6.06854 27.9594 5.36024 28.3969 5.14213C28.7769 4.95262 29.2231 4.95262 29.6031 5.14213C30.0406 5.36024 30.3549 6.06854 30.9833 7.48513L35.9881 18.7685C36.1741 19.1873 36.2669 19.3967 36.4107 19.557C36.5377 19.6989 36.6933 19.8124 36.8667 19.8901C37.0629 19.9779 37.2898 20.0019 37.7436 20.05L49.969 21.3467C51.5038 21.5095 52.2711 21.5909 52.6128 21.9416C52.9095 22.2462 53.0473 22.6728 52.9855 23.0946C52.9144 23.5801 52.3411 24.0991 51.1947 25.1375L42.0624 33.4077C41.7237 33.7145 41.554 33.8681 41.4468 34.0549C41.3518 34.2205 41.2924 34.404 41.2726 34.5939C41.25 34.8085 41.2973 35.0327 41.392 35.4814L43.9428 47.566C44.263 49.0833 44.4232 49.8418 44.1968 50.2766C44 50.6546 43.639 50.9181 43.2208 50.9892C42.7393 51.0711 42.0708 50.6838 40.7338 49.9089L30.0849 43.7366C29.6897 43.5075 29.4921 43.3932 29.282 43.3482C29.0961 43.3087 28.9039 43.3087 28.718 43.3482C28.508 43.3932 28.3104 43.5075 27.9152 43.7366L17.2663 49.9089C15.9294 50.6838 15.2609 51.0711 14.7794 50.9892C14.3611 50.9181 14 50.6546 13.8034 50.2766C13.5771 49.8418 13.7372 49.0833 14.0574 47.566L16.6081 35.4814C16.7027 35.0327 16.7501 34.8085 16.7276 34.5939C16.7077 34.404 16.6483 34.2205 16.5533 34.0549C16.446 33.8681 16.2765 33.7145 15.9376 33.4077L6.80554 25.1375C5.65906 24.0991 5.0858 23.5801 5.01453 23.0946C4.95265 22.6728 5.09055 22.2462 5.38732 21.9416C5.72898 21.5909 6.4964 21.5095 8.03125 21.3467L20.2565 20.05C20.7103 20.0019 20.9371 19.9779 21.1333 19.8901C21.3069 19.8124 21.4623 19.6989 21.5895 19.557C21.7332 19.3967 21.8261 19.1873 22.0119 18.7685L27.0168 7.48513Z" stroke="white" stroke-width="1.94" stroke-linecap="round" stroke-linejoin="round"/>
<defs>
<filter id="filter0_f_304_110" x="0.140273" y="0.139785" width="57.7195" height="55.7199" filterUnits="userSpaceOnUse" color-interpolation-filters="sRGB">
<feFlood flood-opacity="0" result="BackgroundImageFix"/>
<feBlend mode="normal" in="SourceGraphic" in2="BackgroundImageFix" result="shape"/>
<feGaussianBlur stdDeviation="1.945" result="effect1_foregroundBlur_304_110"/>
</filter>
</defs>
</svg>
