<svg width="50" height="50" viewBox="0 0 50 50" fill="none" xmlns="http://www.w3.org/2000/svg">
<g filter="url(#filter0_f_472_37)">
<path d="M23.7412 5.49076C24.0753 5.15683 24.5282 4.96924 25.0006 4.96924C25.4729 4.96924 25.9259 5.15683 26.2599 5.49076L33.3849 12.6158C33.7094 12.9517 33.8889 13.4017 33.8849 13.8687C33.8808 14.3357 33.6935 14.7825 33.3632 15.1128C33.033 15.443 32.5862 15.6303 32.1192 15.6344C31.6521 15.6385 31.2022 15.4589 30.8662 15.1345L26.7818 11.05V28.1251C26.7818 28.5975 26.5942 29.0506 26.2601 29.3846C25.9261 29.7187 25.473 29.9064 25.0006 29.9064C24.5282 29.9064 24.0751 29.7187 23.741 29.3846C23.407 29.0506 23.2193 28.5975 23.2193 28.1251V11.05L19.1349 15.1345C18.799 15.4589 18.349 15.6385 17.882 15.6344C17.4149 15.6303 16.9682 15.443 16.6379 15.1128C16.3077 14.7825 16.1203 14.3357 16.1163 13.8687C16.1122 13.4017 16.2918 12.9517 16.6162 12.6158L23.7412 5.49076Z" fill="#1C274C"/>
<path d="M14.3125 33.9062C14.3125 33.4338 14.1248 32.9808 13.7908 32.6467C13.4567 32.3127 13.0037 32.125 12.5312 32.125C12.0588 32.125 11.6058 32.3127 11.2717 32.6467C10.9377 32.9808 10.75 33.4338 10.75 33.9062V34.975C10.75 38.3273 13.4539 41.0312 16.8062 41.0312H33.1937C36.5461 41.0312 39.25 38.3273 39.25 34.975V33.9062C39.25 33.4338 39.0623 32.9808 38.7283 32.6467C38.3942 32.3127 37.9412 32.125 37.4687 32.125C36.9963 32.125 36.5433 32.3127 36.2092 32.6467C35.8752 32.9808 35.6875 33.4338 35.6875 33.9062V34.975C35.6875 36.3608 34.5796 37.4688 33.1937 37.4688H16.8062C15.4204 37.4688 14.3125 36.3608 14.3125 34.975V33.9062Z" fill="#1C274C"/>
</g>
<path d="M23.7412 5.49076C24.0753 5.15683 24.5282 4.96924 25.0006 4.96924C25.4729 4.96924 25.9259 5.15683 26.2599 5.49076L33.3849 12.6158C33.7094 12.9517 33.8889 13.4017 33.8849 13.8687C33.8808 14.3357 33.6935 14.7825 33.3632 15.1128C33.033 15.443 32.5862 15.6303 32.1192 15.6344C31.6521 15.6385 31.2022 15.4589 30.8662 15.1345L26.7818 11.05V28.1251C26.7818 28.5975 26.5942 29.0506 26.2601 29.3846C25.9261 29.7187 25.473 29.9064 25.0006 29.9064C24.5282 29.9064 24.0751 29.7187 23.741 29.3846C23.407 29.0506 23.2193 28.5975 23.2193 28.1251V11.05L19.1349 15.1345C18.799 15.4589 18.349 15.6385 17.882 15.6344C17.4149 15.6303 16.9682 15.443 16.6379 15.1128C16.3077 14.7825 16.1203 14.3357 16.1163 13.8687C16.1122 13.4017 16.2918 12.9517 16.6162 12.6158L23.7412 5.49076Z" fill="#1C274C"/>
<path d="M14.3125 33.9062C14.3125 33.4338 14.1248 32.9808 13.7908 32.6467C13.4567 32.3127 13.0037 32.125 12.5312 32.125C12.0588 32.125 11.6058 32.3127 11.2717 32.6467C10.9377 32.9808 10.75 33.4338 10.75 33.9062V34.975C10.75 38.3273 13.4539 41.0312 16.8062 41.0312H33.1937C36.5461 41.0312 39.25 38.3273 39.25 34.975V33.9062C39.25 33.4338 39.0623 32.9808 38.7283 32.6467C38.3942 32.3127 37.9412 32.125 37.4687 32.125C36.9963 32.125 36.5433 32.3127 36.2092 32.6467C35.8752 32.9808 35.6875 33.4338 35.6875 33.9062V34.975C35.6875 36.3608 34.5796 37.4688 33.1937 37.4688H16.8062C15.4204 37.4688 14.3125 36.3608 14.3125 34.975V33.9062Z" fill="#1C274C"/>
<defs>
<filter id="filter0_f_472_37" x="6.75" y="0.969238" width="36.5" height="44.062" filterUnits="userSpaceOnUse" color-interpolation-filters="sRGB">
<feFlood flood-opacity="0" result="BackgroundImageFix"/>
<feBlend mode="normal" in="SourceGraphic" in2="BackgroundImageFix" result="shape"/>
<feGaussianBlur stdDeviation="2" result="effect1_foregroundBlur_472_37"/>
</filter>
</defs>
</svg>
