<svg width="50" height="50" viewBox="0 0 50 50" fill="none" xmlns="http://www.w3.org/2000/svg">
<g filter="url(#filter0_f_431_59)">
<path d="M29.6129 11.3259L31.0961 9.84284C33.5532 7.38572 37.537 7.38572 39.9941 9.84284C42.4511 12.3 42.4511 16.2838 39.9941 18.7409L38.5109 20.2239M29.6129 11.3259C29.6129 11.3259 29.7983 14.4772 32.5791 17.2579C35.3596 20.0385 38.5109 20.2239 38.5109 20.2239M29.6129 11.3259L15.9791 24.9598C15.0557 25.8833 14.5939 26.3449 14.1968 26.8542C13.7283 27.4546 13.3267 28.1044 12.9991 28.792C12.7213 29.3748 12.5148 29.9943 12.1018 31.2334L10.7796 35.2M38.5109 20.2239L31.694 27.0409M10.7796 35.2L9.92403 37.7666C9.7208 38.3764 9.87948 39.0484 10.3339 39.5031C10.7884 39.9575 11.4606 40.1161 12.0703 39.9129L14.6369 39.0573M10.7796 35.2L14.6369 39.0573M24.8771 33.8578C23.9537 34.7812 23.492 35.243 22.9827 35.6402C22.3823 36.1086 21.7324 36.5102 21.0449 36.8379C20.462 37.1156 19.8426 37.322 18.6035 37.7351L14.6369 39.0573" stroke="#1C274C" stroke-width="4" stroke-linecap="round"/>
</g>
<path d="M29.6129 11.3259L31.0961 9.84284C33.5532 7.38572 37.537 7.38572 39.9941 9.84284C42.4511 12.3 42.4511 16.2838 39.9941 18.7409L38.5109 20.2239M29.6129 11.3259C29.6129 11.3259 29.7983 14.4772 32.5791 17.2579C35.3596 20.0385 38.5109 20.2239 38.5109 20.2239M29.6129 11.3259L15.9791 24.9598C15.0557 25.8833 14.5939 26.3449 14.1968 26.8542C13.7283 27.4546 13.3267 28.1044 12.9991 28.792C12.7213 29.3748 12.5148 29.9943 12.1018 31.2334L10.7796 35.2M38.5109 20.2239L31.694 27.0409M10.7796 35.2L9.92403 37.7666C9.7208 38.3764 9.87948 39.0484 10.3339 39.5031C10.7884 39.9575 11.4606 40.1161 12.0703 39.9129L14.6369 39.0573M10.7796 35.2L14.6369 39.0573M24.8771 33.8578C23.9537 34.7812 23.492 35.243 22.9827 35.6402C22.3823 36.1086 21.7324 36.5102 21.0449 36.8379C20.462 37.1156 19.8426 37.322 18.6035 37.7351L14.6369 39.0573" stroke="#1C274C" stroke-width="4" stroke-linecap="round"/>
<defs>
<filter id="filter0_f_431_59" x="3.83691" y="2" width="44" height="44" filterUnits="userSpaceOnUse" color-interpolation-filters="sRGB">
<feFlood flood-opacity="0" result="BackgroundImageFix"/>
<feBlend mode="normal" in="SourceGraphic" in2="BackgroundImageFix" result="shape"/>
<feGaussianBlur stdDeviation="2" result="effect1_foregroundBlur_431_59"/>
</filter>
</defs>
</svg>
