<svg width="50" height="50" viewBox="0 0 50 50" fill="none" xmlns="http://www.w3.org/2000/svg">
<g clip-path="url(#clip0_431_63)">
<g filter="url(#filter0_f_431_63)">
<path d="M34.6253 8.38442L35.9155 7.09432C38.053 4.95684 41.5186 4.95684 43.6561 7.09432C45.7934 9.23182 45.7934 12.6974 43.6561 14.8349L42.3658 16.1249M34.6253 8.38442C34.6253 8.38442 34.7865 11.1258 37.2056 13.5448C39.6244 15.9637 42.3658 16.1249 42.3658 16.1249M34.6253 8.38442L22.765 20.2448C21.9617 21.0481 21.5601 21.4497 21.2146 21.8927C20.8071 22.415 20.4577 22.9803 20.1727 23.5784C19.931 24.0855 19.7514 24.6243 19.3921 25.7022L18.2419 29.1528M42.3658 16.1249L36.4357 22.0552M18.2419 29.1528L17.4977 31.3856C17.3209 31.9161 17.4589 32.5007 17.8542 32.8962C18.2496 33.2914 18.8343 33.4294 19.3647 33.2527L21.5975 32.5084M18.2419 29.1528L21.5975 32.5084M30.5056 27.9853C29.7023 28.7886 29.3006 29.1902 28.8576 29.5358C28.3353 29.9432 27.77 30.2926 27.1719 30.5777C26.6648 30.8193 26.126 30.9989 25.0481 31.3582L21.5975 32.5084" stroke="#1C274C" stroke-width="4" stroke-linecap="round"/>
<mask id="path-2-inside-1_431_63" fill="white">
<path d="M46.75 25.375C46.75 24.5514 46.0823 23.8837 45.2587 23.8837C44.4351 23.8837 43.7674 24.5514 43.7674 25.375H46.75ZM25.375 6.98256C26.1986 6.98256 26.8663 6.31488 26.8663 5.49128C26.8663 4.66768 26.1986 4 25.375 4V6.98256ZM16.1799 41.3078C15.4669 40.8954 14.5547 41.139 14.1423 41.8518C13.7299 42.5649 13.9735 43.4771 14.6864 43.8895L16.1799 41.3078ZM6.86051 36.0635C7.2729 36.7765 8.18517 37.0201 8.8981 36.6077C9.61101 36.1953 9.85462 35.2831 9.44223 34.5702L6.86051 36.0635ZM43.7674 25.375C43.7674 35.5328 35.5328 43.7674 25.375 43.7674V46.75C37.1802 46.75 46.75 37.1802 46.75 25.375H43.7674ZM25.375 4C13.5699 4 4 13.5699 4 25.375H6.98256C6.98256 15.2171 15.2171 6.98256 25.375 6.98256V4ZM14.6864 43.8895C17.8319 45.7091 21.4842 46.75 25.375 46.75V43.7674C22.0224 43.7674 18.8836 42.8719 16.1799 41.3078L14.6864 43.8895ZM4 25.375C4 29.2658 5.04093 32.9181 6.86051 36.0635L9.44223 34.5702C7.87818 31.8664 6.98256 28.7276 6.98256 25.375H4Z"/>
</mask>
<path d="M46.75 25.375C46.75 24.5514 46.0823 23.8837 45.2587 23.8837C44.4351 23.8837 43.7674 24.5514 43.7674 25.375H46.75ZM25.375 6.98256C26.1986 6.98256 26.8663 6.31488 26.8663 5.49128C26.8663 4.66768 26.1986 4 25.375 4V6.98256ZM16.1799 41.3078C15.4669 40.8954 14.5547 41.139 14.1423 41.8518C13.7299 42.5649 13.9735 43.4771 14.6864 43.8895L16.1799 41.3078ZM6.86051 36.0635C7.2729 36.7765 8.18517 37.0201 8.8981 36.6077C9.61101 36.1953 9.85462 35.2831 9.44223 34.5702L6.86051 36.0635ZM43.7674 25.375C43.7674 35.5328 35.5328 43.7674 25.375 43.7674V46.75C37.1802 46.75 46.75 37.1802 46.75 25.375H43.7674ZM25.375 4C13.5699 4 4 13.5699 4 25.375H6.98256C6.98256 15.2171 15.2171 6.98256 25.375 6.98256V4ZM14.6864 43.8895C17.8319 45.7091 21.4842 46.75 25.375 46.75V43.7674C22.0224 43.7674 18.8836 42.8719 16.1799 41.3078L14.6864 43.8895ZM4 25.375C4 29.2658 5.04093 32.9181 6.86051 36.0635L9.44223 34.5702C7.87818 31.8664 6.98256 28.7276 6.98256 25.375H4Z" fill="#1C274C"/>
<path d="M43.7674 28.375H46.75V22.375H43.7674V28.375ZM22.375 4V6.98256H28.375V4H22.375ZM17.2832 45.3917L18.7767 42.81L13.583 39.8057L12.0896 42.3874L17.2832 45.3917ZM7.94019 31.9733L5.35847 33.4666L8.36255 38.6604L10.9443 37.1671L7.94019 31.9733ZM22.375 43.7674V46.75H28.375V43.7674H22.375ZM4 28.375H6.98256V22.375H4V28.375ZM16.1799 41.3078L19.1842 36.1142L19.1842 36.1142L16.1799 41.3078ZM14.1423 41.8518L8.94877 38.8473L8.94847 38.8478L14.1423 41.8518ZM14.6864 43.8895L17.6908 38.6959L17.6907 38.6958L14.6864 43.8895ZM6.86051 36.0635L12.0544 33.0596L12.0541 33.0591L6.86051 36.0635ZM8.8981 36.6077L11.9023 41.8014L11.9024 41.8014L8.8981 36.6077ZM9.44223 34.5702L4.2486 37.5746L4.24872 37.5748L9.44223 34.5702ZM52.75 25.375C52.75 21.2377 49.396 17.8837 45.2587 17.8837V29.8837C42.7686 29.8837 40.75 27.8651 40.75 25.375H52.75ZM45.2587 17.8837C41.1214 17.8837 37.7674 21.2377 37.7674 25.375H49.7674C49.7674 27.8651 47.7488 29.8837 45.2587 29.8837V17.8837ZM25.375 12.9826C29.5122 12.9826 32.8663 9.62865 32.8663 5.49128H20.8663C20.8663 3.00112 22.8849 0.982558 25.375 0.982558V12.9826ZM32.8663 5.49128C32.8663 1.35391 29.5122 -2 25.375 -2V10C22.8849 10 20.8663 7.98144 20.8663 5.49128H32.8663ZM19.1842 36.1142C15.6033 34.0428 11.0207 35.2659 8.94877 38.8473L19.3358 44.8564C18.0887 47.0121 15.3306 47.7481 13.1755 46.5015L19.1842 36.1142ZM8.94847 38.8478C6.87731 42.4287 8.10044 47.0114 11.6822 49.0832L17.6907 38.6958C19.8466 39.9429 20.5825 42.701 19.3361 44.8559L8.94847 38.8478ZM1.66663 39.0674C3.73834 42.6495 8.32127 43.8728 11.9023 41.8014L5.89385 31.414C8.04906 30.1674 10.8075 30.9036 12.0544 33.0596L1.66663 39.0674ZM11.9024 41.8014C15.4836 39.7298 16.7077 35.1471 14.6358 31.5657L4.24872 37.5748C3.00155 35.419 3.73843 32.6608 5.89379 31.4141L11.9024 41.8014ZM37.7674 25.375C37.7674 32.2191 32.2191 37.7674 25.375 37.7674V49.7674C38.8465 49.7674 49.7674 38.8465 49.7674 25.375H37.7674ZM25.375 52.75C40.4939 52.75 52.75 40.4939 52.75 25.375H40.75C40.75 33.8665 33.8665 40.75 25.375 40.75V52.75ZM25.375 -2C10.2562 -2 -2 10.2562 -2 25.375H10C10 16.8836 16.8836 10 25.375 10V-2ZM12.9826 25.375C12.9826 18.5309 18.5309 12.9826 25.375 12.9826V0.982558C11.9034 0.982558 0.982558 11.9034 0.982558 25.375H12.9826ZM11.6821 49.0832C15.7162 51.4168 20.4012 52.75 25.375 52.75V40.75C22.5671 40.75 19.9477 40.0014 17.6908 38.6959L11.6821 49.0832ZM25.375 37.7674C23.1052 37.7674 20.9992 37.1641 19.1842 36.1142L13.1755 46.5015C16.768 48.5796 20.9396 49.7674 25.375 49.7674V37.7674ZM-2 25.375C-2 30.3488 -0.666729 35.0339 1.66692 39.0679L12.0541 33.0591C10.7486 30.8023 10 28.1829 10 25.375H-2ZM14.6359 31.5659C13.5859 29.7508 12.9826 27.6448 12.9826 25.375H0.982558C0.982558 29.8104 2.17046 33.9821 4.2486 37.5746L14.6359 31.5659Z" fill="#1C274C" mask="url(#path-2-inside-1_431_63)"/>
</g>
<path d="M34.6253 8.38442L35.9155 7.09432C38.053 4.95684 41.5186 4.95684 43.6561 7.09432C45.7934 9.23182 45.7934 12.6974 43.6561 14.8349L42.3658 16.1249M34.6253 8.38442C34.6253 8.38442 34.7865 11.1258 37.2056 13.5448C39.6244 15.9637 42.3658 16.1249 42.3658 16.1249M34.6253 8.38442L22.765 20.2448C21.9617 21.0481 21.5601 21.4497 21.2146 21.8927C20.8071 22.415 20.4577 22.9803 20.1727 23.5784C19.931 24.0855 19.7514 24.6243 19.3921 25.7022L18.2419 29.1528M42.3658 16.1249L36.4357 22.0552M18.2419 29.1528L17.4977 31.3856C17.3209 31.9161 17.4589 32.5007 17.8542 32.8962C18.2496 33.2914 18.8343 33.4294 19.3647 33.2527L21.5975 32.5084M18.2419 29.1528L21.5975 32.5084M30.5056 27.9853C29.7023 28.7886 29.3006 29.1902 28.8576 29.5358C28.3353 29.9432 27.77 30.2926 27.1719 30.5777C26.6648 30.8193 26.126 30.9989 25.0481 31.3582L21.5975 32.5084" stroke="#1C274C" stroke-width="4" stroke-linecap="round"/>
<mask id="path-5-inside-2_431_63" fill="white">
<path d="M46.75 25.375C46.75 24.5514 46.0823 23.8837 45.2587 23.8837C44.4351 23.8837 43.7674 24.5514 43.7674 25.375H46.75ZM25.375 6.98256C26.1986 6.98256 26.8663 6.31488 26.8663 5.49128C26.8663 4.66768 26.1986 4 25.375 4V6.98256ZM16.1799 41.3078C15.4669 40.8954 14.5547 41.139 14.1423 41.8518C13.7299 42.5649 13.9735 43.4771 14.6864 43.8895L16.1799 41.3078ZM6.86051 36.0635C7.2729 36.7765 8.18517 37.0201 8.8981 36.6077C9.61101 36.1953 9.85462 35.2831 9.44223 34.5702L6.86051 36.0635ZM43.7674 25.375C43.7674 35.5328 35.5328 43.7674 25.375 43.7674V46.75C37.1802 46.75 46.75 37.1802 46.75 25.375H43.7674ZM25.375 4C13.5699 4 4 13.5699 4 25.375H6.98256C6.98256 15.2171 15.2171 6.98256 25.375 6.98256V4ZM14.6864 43.8895C17.8319 45.7091 21.4842 46.75 25.375 46.75V43.7674C22.0224 43.7674 18.8836 42.8719 16.1799 41.3078L14.6864 43.8895ZM4 25.375C4 29.2658 5.04093 32.9181 6.86051 36.0635L9.44223 34.5702C7.87818 31.8664 6.98256 28.7276 6.98256 25.375H4Z"/>
</mask>
<path d="M46.75 25.375C46.75 24.5514 46.0823 23.8837 45.2587 23.8837C44.4351 23.8837 43.7674 24.5514 43.7674 25.375H46.75ZM25.375 6.98256C26.1986 6.98256 26.8663 6.31488 26.8663 5.49128C26.8663 4.66768 26.1986 4 25.375 4V6.98256ZM16.1799 41.3078C15.4669 40.8954 14.5547 41.139 14.1423 41.8518C13.7299 42.5649 13.9735 43.4771 14.6864 43.8895L16.1799 41.3078ZM6.86051 36.0635C7.2729 36.7765 8.18517 37.0201 8.8981 36.6077C9.61101 36.1953 9.85462 35.2831 9.44223 34.5702L6.86051 36.0635ZM43.7674 25.375C43.7674 35.5328 35.5328 43.7674 25.375 43.7674V46.75C37.1802 46.75 46.75 37.1802 46.75 25.375H43.7674ZM25.375 4C13.5699 4 4 13.5699 4 25.375H6.98256C6.98256 15.2171 15.2171 6.98256 25.375 6.98256V4ZM14.6864 43.8895C17.8319 45.7091 21.4842 46.75 25.375 46.75V43.7674C22.0224 43.7674 18.8836 42.8719 16.1799 41.3078L14.6864 43.8895ZM4 25.375C4 29.2658 5.04093 32.9181 6.86051 36.0635L9.44223 34.5702C7.87818 31.8664 6.98256 28.7276 6.98256 25.375H4Z" fill="#1C274C"/>
<path d="M43.7674 28.375H46.75V22.375H43.7674V28.375ZM22.375 4V6.98256H28.375V4H22.375ZM17.2832 45.3917L18.7767 42.81L13.583 39.8057L12.0896 42.3874L17.2832 45.3917ZM7.94019 31.9733L5.35847 33.4666L8.36255 38.6604L10.9443 37.1671L7.94019 31.9733ZM22.375 43.7674V46.75H28.375V43.7674H22.375ZM4 28.375H6.98256V22.375H4V28.375ZM16.1799 41.3078L19.1842 36.1142L19.1842 36.1142L16.1799 41.3078ZM14.1423 41.8518L8.94877 38.8473L8.94847 38.8478L14.1423 41.8518ZM14.6864 43.8895L17.6908 38.6959L17.6907 38.6958L14.6864 43.8895ZM6.86051 36.0635L12.0544 33.0596L12.0541 33.0591L6.86051 36.0635ZM8.8981 36.6077L11.9023 41.8014L11.9024 41.8014L8.8981 36.6077ZM9.44223 34.5702L4.2486 37.5746L4.24872 37.5748L9.44223 34.5702ZM52.75 25.375C52.75 21.2377 49.396 17.8837 45.2587 17.8837V29.8837C42.7686 29.8837 40.75 27.8651 40.75 25.375H52.75ZM45.2587 17.8837C41.1214 17.8837 37.7674 21.2377 37.7674 25.375H49.7674C49.7674 27.8651 47.7488 29.8837 45.2587 29.8837V17.8837ZM25.375 12.9826C29.5122 12.9826 32.8663 9.62865 32.8663 5.49128H20.8663C20.8663 3.00112 22.8849 0.982558 25.375 0.982558V12.9826ZM32.8663 5.49128C32.8663 1.35391 29.5122 -2 25.375 -2V10C22.8849 10 20.8663 7.98144 20.8663 5.49128H32.8663ZM19.1842 36.1142C15.6033 34.0428 11.0207 35.2659 8.94877 38.8473L19.3358 44.8564C18.0887 47.0121 15.3306 47.7481 13.1755 46.5015L19.1842 36.1142ZM8.94847 38.8478C6.87731 42.4287 8.10044 47.0114 11.6822 49.0832L17.6907 38.6958C19.8466 39.9429 20.5825 42.701 19.3361 44.8559L8.94847 38.8478ZM1.66663 39.0674C3.73834 42.6495 8.32127 43.8728 11.9023 41.8014L5.89385 31.414C8.04906 30.1674 10.8075 30.9036 12.0544 33.0596L1.66663 39.0674ZM11.9024 41.8014C15.4836 39.7298 16.7077 35.1471 14.6358 31.5657L4.24872 37.5748C3.00155 35.419 3.73843 32.6608 5.89379 31.4141L11.9024 41.8014ZM37.7674 25.375C37.7674 32.2191 32.2191 37.7674 25.375 37.7674V49.7674C38.8465 49.7674 49.7674 38.8465 49.7674 25.375H37.7674ZM25.375 52.75C40.4939 52.75 52.75 40.4939 52.75 25.375H40.75C40.75 33.8665 33.8665 40.75 25.375 40.75V52.75ZM25.375 -2C10.2562 -2 -2 10.2562 -2 25.375H10C10 16.8836 16.8836 10 25.375 10V-2ZM12.9826 25.375C12.9826 18.5309 18.5309 12.9826 25.375 12.9826V0.982558C11.9034 0.982558 0.982558 11.9034 0.982558 25.375H12.9826ZM11.6821 49.0832C15.7162 51.4168 20.4012 52.75 25.375 52.75V40.75C22.5671 40.75 19.9477 40.0014 17.6908 38.6959L11.6821 49.0832ZM25.375 37.7674C23.1052 37.7674 20.9992 37.1641 19.1842 36.1142L13.1755 46.5015C16.768 48.5796 20.9396 49.7674 25.375 49.7674V37.7674ZM-2 25.375C-2 30.3488 -0.666729 35.0339 1.66692 39.0679L12.0541 33.0591C10.7486 30.8023 10 28.1829 10 25.375H-2ZM14.6359 31.5659C13.5859 29.7508 12.9826 27.6448 12.9826 25.375H0.982558C0.982558 29.8104 2.17046 33.9821 4.2486 37.5746L14.6359 31.5659Z" fill="#1C274C" mask="url(#path-5-inside-2_431_63)"/>
</g>
<defs>
<filter id="filter0_f_431_63" x="0" y="-0.508789" width="51.2588" height="51.2588" filterUnits="userSpaceOnUse" color-interpolation-filters="sRGB">
<feFlood flood-opacity="0" result="BackgroundImageFix"/>
<feBlend mode="normal" in="SourceGraphic" in2="BackgroundImageFix" result="shape"/>
<feGaussianBlur stdDeviation="2" result="effect1_foregroundBlur_431_63"/>
</filter>
<clipPath id="clip0_431_63">
<rect width="50" height="50" fill="white"/>
</clipPath>
</defs>
</svg>
